<?xml version="1.0" encoding="utf-8" standalone="no"?>
<!DOCTYPE svg PUBLIC "-//W3C//DTD SVG 1.1//EN"
  "http://www.w3.org/Graphics/SVG/1.1/DTD/svg11.dtd">
<!-- Created with matplotlib (https://matplotlib.org/) -->
<svg height="288pt" version="1.1" viewBox="0 0 432 288" width="432pt" xmlns="http://www.w3.org/2000/svg" xmlns:xlink="http://www.w3.org/1999/xlink">
 <defs>
  <style type="text/css">
*{stroke-linecap:butt;stroke-linejoin:round;}
  </style>
 </defs>
 <g id="figure_1">
  <g id="patch_1">
   <path d="M 0 288 
L 432 288 
L 432 0 
L 0 0 
z
" style="fill:#ffffff;"/>
  </g>
  <g id="axes_1">
   <g id="patch_2">
    <path d="M 54 252 
L 388.8 252 
L 388.8 34.56 
L 54 34.56 
z
" style="fill:#ffffff;"/>
   </g>
   <g id="PathCollection_1">
    <defs>
     <path d="M 0 3 
C 0.795609 3 1.55874 2.683901 2.12132 2.12132 
C 2.683901 1.55874 3 0.795609 3 0 
C 3 -0.795609 2.683901 -1.55874 2.12132 -2.12132 
C 1.55874 -2.683901 0.795609 -3 0 -3 
C -0.795609 -3 -1.55874 -2.683901 -2.12132 -2.12132 
C -2.683901 -1.55874 -3 -0.795609 -3 0 
C -3 0.795609 -2.683901 1.55874 -2.12132 2.12132 
C -1.55874 2.683901 -0.795609 3 0 3 
z
" id="C0_0_d46a5141c9"/>
    </defs>
    <g clip-path="url(#p46793edf33)">
     <use style="fill:#1f77b4;stroke:#ffffff;stroke-width:0.75;" x="69.218182" xlink:href="#C0_0_d46a5141c9" y="242.116362"/>
    </g>
    <g clip-path="url(#p46793edf33)">
     <use style="fill:#ff7f0e;stroke:#ffffff;stroke-width:0.75;" x="69.218182" xlink:href="#C0_0_d46a5141c9" y="242.116357"/>
    </g>
    <g clip-path="url(#p46793edf33)">
     <use style="fill:#2ca02c;stroke:#ffffff;stroke-width:0.75;" x="69.218182" xlink:href="#C0_0_d46a5141c9" y="242.116345"/>
    </g>
    <g clip-path="url(#p46793edf33)">
     <use style="fill:#1f77b4;stroke:#ffffff;stroke-width:0.75;" x="79.71348" xlink:href="#C0_0_d46a5141c9" y="242.116333"/>
    </g>
    <g clip-path="url(#p46793edf33)">
     <use style="fill:#ff7f0e;stroke:#ffffff;stroke-width:0.75;" x="79.71348" xlink:href="#C0_0_d46a5141c9" y="242.116364"/>
    </g>
    <g clip-path="url(#p46793edf33)">
     <use style="fill:#2ca02c;stroke:#ffffff;stroke-width:0.75;" x="79.71348" xlink:href="#C0_0_d46a5141c9" y="242.11635"/>
    </g>
    <g clip-path="url(#p46793edf33)">
     <use style="fill:#1f77b4;stroke:#ffffff;stroke-width:0.75;" x="90.208777" xlink:href="#C0_0_d46a5141c9" y="242.116344"/>
    </g>
    <g clip-path="url(#p46793edf33)">
     <use style="fill:#ff7f0e;stroke:#ffffff;stroke-width:0.75;" x="90.208777" xlink:href="#C0_0_d46a5141c9" y="242.116354"/>
    </g>
    <g clip-path="url(#p46793edf33)">
     <use style="fill:#2ca02c;stroke:#ffffff;stroke-width:0.75;" x="90.208777" xlink:href="#C0_0_d46a5141c9" y="242.116349"/>
    </g>
    <g clip-path="url(#p46793edf33)">
     <use style="fill:#1f77b4;stroke:#ffffff;stroke-width:0.75;" x="100.704075" xlink:href="#C0_0_d46a5141c9" y="242.116353"/>
    </g>
    <g clip-path="url(#p46793edf33)">
     <use style="fill:#ff7f0e;stroke:#ffffff;stroke-width:0.75;" x="100.704075" xlink:href="#C0_0_d46a5141c9" y="242.116353"/>
    </g>
    <g clip-path="url(#p46793edf33)">
     <use style="fill:#2ca02c;stroke:#ffffff;stroke-width:0.75;" x="100.704075" xlink:href="#C0_0_d46a5141c9" y="242.116351"/>
    </g>
    <g clip-path="url(#p46793edf33)">
     <use style="fill:#1f77b4;stroke:#ffffff;stroke-width:0.75;" x="111.199373" xlink:href="#C0_0_d46a5141c9" y="242.116355"/>
    </g>
    <g clip-path="url(#p46793edf33)">
     <use style="fill:#ff7f0e;stroke:#ffffff;stroke-width:0.75;" x="111.199373" xlink:href="#C0_0_d46a5141c9" y="242.116337"/>
    </g>
    <g clip-path="url(#p46793edf33)">
     <use style="fill:#2ca02c;stroke:#ffffff;stroke-width:0.75;" x="111.199373" xlink:href="#C0_0_d46a5141c9" y="242.116336"/>
    </g>
    <g clip-path="url(#p46793edf33)">
     <use style="fill:#1f77b4;stroke:#ffffff;stroke-width:0.75;" x="121.694671" xlink:href="#C0_0_d46a5141c9" y="242.116325"/>
    </g>
    <g clip-path="url(#p46793edf33)">
     <use style="fill:#ff7f0e;stroke:#ffffff;stroke-width:0.75;" x="121.694671" xlink:href="#C0_0_d46a5141c9" y="242.116339"/>
    </g>
    <g clip-path="url(#p46793edf33)">
     <use style="fill:#2ca02c;stroke:#ffffff;stroke-width:0.75;" x="121.694671" xlink:href="#C0_0_d46a5141c9" y="242.116339"/>
    </g>
    <g clip-path="url(#p46793edf33)">
     <use style="fill:#1f77b4;stroke:#ffffff;stroke-width:0.75;" x="132.189969" xlink:href="#C0_0_d46a5141c9" y="242.116325"/>
    </g>
    <g clip-path="url(#p46793edf33)">
     <use style="fill:#ff7f0e;stroke:#ffffff;stroke-width:0.75;" x="132.189969" xlink:href="#C0_0_d46a5141c9" y="242.11632"/>
    </g>
    <g clip-path="url(#p46793edf33)">
     <use style="fill:#2ca02c;stroke:#ffffff;stroke-width:0.75;" x="132.189969" xlink:href="#C0_0_d46a5141c9" y="242.116323"/>
    </g>
    <g clip-path="url(#p46793edf33)">
     <use style="fill:#1f77b4;stroke:#ffffff;stroke-width:0.75;" x="142.685266" xlink:href="#C0_0_d46a5141c9" y="242.116322"/>
    </g>
    <g clip-path="url(#p46793edf33)">
     <use style="fill:#ff7f0e;stroke:#ffffff;stroke-width:0.75;" x="142.685266" xlink:href="#C0_0_d46a5141c9" y="242.116253"/>
    </g>
    <g clip-path="url(#p46793edf33)">
     <use style="fill:#2ca02c;stroke:#ffffff;stroke-width:0.75;" x="142.685266" xlink:href="#C0_0_d46a5141c9" y="242.116336"/>
    </g>
    <g clip-path="url(#p46793edf33)">
     <use style="fill:#1f77b4;stroke:#ffffff;stroke-width:0.75;" x="153.180564" xlink:href="#C0_0_d46a5141c9" y="242.116271"/>
    </g>
    <g clip-path="url(#p46793edf33)">
     <use style="fill:#ff7f0e;stroke:#ffffff;stroke-width:0.75;" x="153.180564" xlink:href="#C0_0_d46a5141c9" y="242.116178"/>
    </g>
    <g clip-path="url(#p46793edf33)">
     <use style="fill:#2ca02c;stroke:#ffffff;stroke-width:0.75;" x="153.180564" xlink:href="#C0_0_d46a5141c9" y="242.116288"/>
    </g>
    <g clip-path="url(#p46793edf33)">
     <use style="fill:#1f77b4;stroke:#ffffff;stroke-width:0.75;" x="163.675862" xlink:href="#C0_0_d46a5141c9" y="242.116248"/>
    </g>
    <g clip-path="url(#p46793edf33)">
     <use style="fill:#ff7f0e;stroke:#ffffff;stroke-width:0.75;" x="163.675862" xlink:href="#C0_0_d46a5141c9" y="242.116052"/>
    </g>
    <g clip-path="url(#p46793edf33)">
     <use style="fill:#2ca02c;stroke:#ffffff;stroke-width:0.75;" x="163.675862" xlink:href="#C0_0_d46a5141c9" y="242.116246"/>
    </g>
    <g clip-path="url(#p46793edf33)">
     <use style="fill:#1f77b4;stroke:#ffffff;stroke-width:0.75;" x="174.17116" xlink:href="#C0_0_d46a5141c9" y="242.116215"/>
    </g>
    <g clip-path="url(#p46793edf33)">
     <use style="fill:#ff7f0e;stroke:#ffffff;stroke-width:0.75;" x="174.17116" xlink:href="#C0_0_d46a5141c9" y="242.115877"/>
    </g>
    <g clip-path="url(#p46793edf33)">
     <use style="fill:#2ca02c;stroke:#ffffff;stroke-width:0.75;" x="174.17116" xlink:href="#C0_0_d46a5141c9" y="242.116213"/>
    </g>
    <g clip-path="url(#p46793edf33)">
     <use style="fill:#1f77b4;stroke:#ffffff;stroke-width:0.75;" x="184.666458" xlink:href="#C0_0_d46a5141c9" y="242.1162"/>
    </g>
    <g clip-path="url(#p46793edf33)">
     <use style="fill:#ff7f0e;stroke:#ffffff;stroke-width:0.75;" x="184.666458" xlink:href="#C0_0_d46a5141c9" y="242.115257"/>
    </g>
    <g clip-path="url(#p46793edf33)">
     <use style="fill:#2ca02c;stroke:#ffffff;stroke-width:0.75;" x="184.666458" xlink:href="#C0_0_d46a5141c9" y="242.116209"/>
    </g>
    <g clip-path="url(#p46793edf33)">
     <use style="fill:#1f77b4;stroke:#ffffff;stroke-width:0.75;" x="195.161755" xlink:href="#C0_0_d46a5141c9" y="242.115823"/>
    </g>
    <g clip-path="url(#p46793edf33)">
     <use style="fill:#ff7f0e;stroke:#ffffff;stroke-width:0.75;" x="195.161755" xlink:href="#C0_0_d46a5141c9" y="242.114423"/>
    </g>
    <g clip-path="url(#p46793edf33)">
     <use style="fill:#2ca02c;stroke:#ffffff;stroke-width:0.75;" x="195.161755" xlink:href="#C0_0_d46a5141c9" y="242.115857"/>
    </g>
    <g clip-path="url(#p46793edf33)">
     <use style="fill:#1f77b4;stroke:#ffffff;stroke-width:0.75;" x="205.657053" xlink:href="#C0_0_d46a5141c9" y="242.115679"/>
    </g>
    <g clip-path="url(#p46793edf33)">
     <use style="fill:#ff7f0e;stroke:#ffffff;stroke-width:0.75;" x="205.657053" xlink:href="#C0_0_d46a5141c9" y="242.112714"/>
    </g>
    <g clip-path="url(#p46793edf33)">
     <use style="fill:#2ca02c;stroke:#ffffff;stroke-width:0.75;" x="205.657053" xlink:href="#C0_0_d46a5141c9" y="242.115698"/>
    </g>
    <g clip-path="url(#p46793edf33)">
     <use style="fill:#1f77b4;stroke:#ffffff;stroke-width:0.75;" x="216.152351" xlink:href="#C0_0_d46a5141c9" y="242.115281"/>
    </g>
    <g clip-path="url(#p46793edf33)">
     <use style="fill:#ff7f0e;stroke:#ffffff;stroke-width:0.75;" x="216.152351" xlink:href="#C0_0_d46a5141c9" y="242.109601"/>
    </g>
    <g clip-path="url(#p46793edf33)">
     <use style="fill:#2ca02c;stroke:#ffffff;stroke-width:0.75;" x="216.152351" xlink:href="#C0_0_d46a5141c9" y="242.11535"/>
    </g>
    <g clip-path="url(#p46793edf33)">
     <use style="fill:#1f77b4;stroke:#ffffff;stroke-width:0.75;" x="226.647649" xlink:href="#C0_0_d46a5141c9" y="242.113507"/>
    </g>
    <g clip-path="url(#p46793edf33)">
     <use style="fill:#ff7f0e;stroke:#ffffff;stroke-width:0.75;" x="226.647649" xlink:href="#C0_0_d46a5141c9" y="242.102814"/>
    </g>
    <g clip-path="url(#p46793edf33)">
     <use style="fill:#2ca02c;stroke:#ffffff;stroke-width:0.75;" x="226.647649" xlink:href="#C0_0_d46a5141c9" y="242.113625"/>
    </g>
    <g clip-path="url(#p46793edf33)">
     <use style="fill:#1f77b4;stroke:#ffffff;stroke-width:0.75;" x="237.142947" xlink:href="#C0_0_d46a5141c9" y="242.112563"/>
    </g>
    <g clip-path="url(#p46793edf33)">
     <use style="fill:#ff7f0e;stroke:#ffffff;stroke-width:0.75;" x="237.142947" xlink:href="#C0_0_d46a5141c9" y="242.082001"/>
    </g>
    <g clip-path="url(#p46793edf33)">
     <use style="fill:#2ca02c;stroke:#ffffff;stroke-width:0.75;" x="237.142947" xlink:href="#C0_0_d46a5141c9" y="242.111238"/>
    </g>
    <g clip-path="url(#p46793edf33)">
     <use style="fill:#1f77b4;stroke:#ffffff;stroke-width:0.75;" x="247.638245" xlink:href="#C0_0_d46a5141c9" y="242.109982"/>
    </g>
    <g clip-path="url(#p46793edf33)">
     <use style="fill:#ff7f0e;stroke:#ffffff;stroke-width:0.75;" x="247.638245" xlink:href="#C0_0_d46a5141c9" y="242.055516"/>
    </g>
    <g clip-path="url(#p46793edf33)">
     <use style="fill:#2ca02c;stroke:#ffffff;stroke-width:0.75;" x="247.638245" xlink:href="#C0_0_d46a5141c9" y="242.107931"/>
    </g>
    <g clip-path="url(#p46793edf33)">
     <use style="fill:#1f77b4;stroke:#ffffff;stroke-width:0.75;" x="258.133542" xlink:href="#C0_0_d46a5141c9" y="242.108547"/>
    </g>
    <g clip-path="url(#p46793edf33)">
     <use style="fill:#ff7f0e;stroke:#ffffff;stroke-width:0.75;" x="258.133542" xlink:href="#C0_0_d46a5141c9" y="241.991078"/>
    </g>
    <g clip-path="url(#p46793edf33)">
     <use style="fill:#2ca02c;stroke:#ffffff;stroke-width:0.75;" x="258.133542" xlink:href="#C0_0_d46a5141c9" y="242.107913"/>
    </g>
    <g clip-path="url(#p46793edf33)">
     <use style="fill:#1f77b4;stroke:#ffffff;stroke-width:0.75;" x="268.62884" xlink:href="#C0_0_d46a5141c9" y="242.092506"/>
    </g>
    <g clip-path="url(#p46793edf33)">
     <use style="fill:#ff7f0e;stroke:#ffffff;stroke-width:0.75;" x="268.62884" xlink:href="#C0_0_d46a5141c9" y="241.926165"/>
    </g>
    <g clip-path="url(#p46793edf33)">
     <use style="fill:#2ca02c;stroke:#ffffff;stroke-width:0.75;" x="268.62884" xlink:href="#C0_0_d46a5141c9" y="242.088332"/>
    </g>
    <g clip-path="url(#p46793edf33)">
     <use style="fill:#1f77b4;stroke:#ffffff;stroke-width:0.75;" x="279.124138" xlink:href="#C0_0_d46a5141c9" y="242.059672"/>
    </g>
    <g clip-path="url(#p46793edf33)">
     <use style="fill:#ff7f0e;stroke:#ffffff;stroke-width:0.75;" x="279.124138" xlink:href="#C0_0_d46a5141c9" y="241.622"/>
    </g>
    <g clip-path="url(#p46793edf33)">
     <use style="fill:#2ca02c;stroke:#ffffff;stroke-width:0.75;" x="279.124138" xlink:href="#C0_0_d46a5141c9" y="242.067133"/>
    </g>
    <g clip-path="url(#p46793edf33)">
     <use style="fill:#1f77b4;stroke:#ffffff;stroke-width:0.75;" x="289.619436" xlink:href="#C0_0_d46a5141c9" y="242.021578"/>
    </g>
    <g clip-path="url(#p46793edf33)">
     <use style="fill:#ff7f0e;stroke:#ffffff;stroke-width:0.75;" x="289.619436" xlink:href="#C0_0_d46a5141c9" y="241.29567"/>
    </g>
    <g clip-path="url(#p46793edf33)">
     <use style="fill:#2ca02c;stroke:#ffffff;stroke-width:0.75;" x="289.619436" xlink:href="#C0_0_d46a5141c9" y="242.066334"/>
    </g>
    <g clip-path="url(#p46793edf33)">
     <use style="fill:#1f77b4;stroke:#ffffff;stroke-width:0.75;" x="300.114734" xlink:href="#C0_0_d46a5141c9" y="241.945928"/>
    </g>
    <g clip-path="url(#p46793edf33)">
     <use style="fill:#ff7f0e;stroke:#ffffff;stroke-width:0.75;" x="300.114734" xlink:href="#C0_0_d46a5141c9" y="240.146185"/>
    </g>
    <g clip-path="url(#p46793edf33)">
     <use style="fill:#2ca02c;stroke:#ffffff;stroke-width:0.75;" x="300.114734" xlink:href="#C0_0_d46a5141c9" y="241.942074"/>
    </g>
    <g clip-path="url(#p46793edf33)">
     <use style="fill:#1f77b4;stroke:#ffffff;stroke-width:0.75;" x="310.610031" xlink:href="#C0_0_d46a5141c9" y="241.843891"/>
    </g>
    <g clip-path="url(#p46793edf33)">
     <use style="fill:#ff7f0e;stroke:#ffffff;stroke-width:0.75;" x="310.610031" xlink:href="#C0_0_d46a5141c9" y="238.110431"/>
    </g>
    <g clip-path="url(#p46793edf33)">
     <use style="fill:#2ca02c;stroke:#ffffff;stroke-width:0.75;" x="310.610031" xlink:href="#C0_0_d46a5141c9" y="241.838875"/>
    </g>
    <g clip-path="url(#p46793edf33)">
     <use style="fill:#1f77b4;stroke:#ffffff;stroke-width:0.75;" x="321.105329" xlink:href="#C0_0_d46a5141c9" y="241.732844"/>
    </g>
    <g clip-path="url(#p46793edf33)">
     <use style="fill:#ff7f0e;stroke:#ffffff;stroke-width:0.75;" x="321.105329" xlink:href="#C0_0_d46a5141c9" y="233.190129"/>
    </g>
    <g clip-path="url(#p46793edf33)">
     <use style="fill:#2ca02c;stroke:#ffffff;stroke-width:0.75;" x="321.105329" xlink:href="#C0_0_d46a5141c9" y="241.774465"/>
    </g>
    <g clip-path="url(#p46793edf33)">
     <use style="fill:#1f77b4;stroke:#ffffff;stroke-width:0.75;" x="331.600627" xlink:href="#C0_0_d46a5141c9" y="241.006179"/>
    </g>
    <g clip-path="url(#p46793edf33)">
     <use style="fill:#ff7f0e;stroke:#ffffff;stroke-width:0.75;" x="331.600627" xlink:href="#C0_0_d46a5141c9" y="227.258342"/>
    </g>
    <g clip-path="url(#p46793edf33)">
     <use style="fill:#2ca02c;stroke:#ffffff;stroke-width:0.75;" x="331.600627" xlink:href="#C0_0_d46a5141c9" y="241.014532"/>
    </g>
    <g clip-path="url(#p46793edf33)">
     <use style="fill:#1f77b4;stroke:#ffffff;stroke-width:0.75;" x="342.095925" xlink:href="#C0_0_d46a5141c9" y="240.137396"/>
    </g>
    <g clip-path="url(#p46793edf33)">
     <use style="fill:#ff7f0e;stroke:#ffffff;stroke-width:0.75;" x="342.095925" xlink:href="#C0_0_d46a5141c9" y="213.319914"/>
    </g>
    <g clip-path="url(#p46793edf33)">
     <use style="fill:#2ca02c;stroke:#ffffff;stroke-width:0.75;" x="342.095925" xlink:href="#C0_0_d46a5141c9" y="240.310679"/>
    </g>
    <g clip-path="url(#p46793edf33)">
     <use style="fill:#1f77b4;stroke:#ffffff;stroke-width:0.75;" x="352.591223" xlink:href="#C0_0_d46a5141c9" y="238.436932"/>
    </g>
    <g clip-path="url(#p46793edf33)">
     <use style="fill:#ff7f0e;stroke:#ffffff;stroke-width:0.75;" x="352.591223" xlink:href="#C0_0_d46a5141c9" y="191.343443"/>
    </g>
    <g clip-path="url(#p46793edf33)">
     <use style="fill:#2ca02c;stroke:#ffffff;stroke-width:0.75;" x="352.591223" xlink:href="#C0_0_d46a5141c9" y="238.505281"/>
    </g>
    <g clip-path="url(#p46793edf33)">
     <use style="fill:#1f77b4;stroke:#ffffff;stroke-width:0.75;" x="363.08652" xlink:href="#C0_0_d46a5141c9" y="236.61495"/>
    </g>
    <g clip-path="url(#p46793edf33)">
     <use style="fill:#ff7f0e;stroke:#ffffff;stroke-width:0.75;" x="363.08652" xlink:href="#C0_0_d46a5141c9" y="131.95743"/>
    </g>
    <g clip-path="url(#p46793edf33)">
     <use style="fill:#2ca02c;stroke:#ffffff;stroke-width:0.75;" x="363.08652" xlink:href="#C0_0_d46a5141c9" y="236.315986"/>
    </g>
    <g clip-path="url(#p46793edf33)">
     <use style="fill:#1f77b4;stroke:#ffffff;stroke-width:0.75;" x="373.581818" xlink:href="#C0_0_d46a5141c9" y="229.659209"/>
    </g>
    <g clip-path="url(#p46793edf33)">
     <use style="fill:#ff7f0e;stroke:#ffffff;stroke-width:0.75;" x="373.581818" xlink:href="#C0_0_d46a5141c9" y="44.443636"/>
    </g>
    <g clip-path="url(#p46793edf33)">
     <use style="fill:#2ca02c;stroke:#ffffff;stroke-width:0.75;" x="373.581818" xlink:href="#C0_0_d46a5141c9" y="230.101299"/>
    </g>
   </g>
   <g id="PathCollection_2"/>
   <g id="PathCollection_3"/>
   <g id="PathCollection_4"/>
   <g id="PathCollection_5"/>
   <g id="matplotlib.axis_1">
    <g id="xtick_1">
     <g id="line2d_1">
      <defs>
       <path d="M 0 0 
L 0 3.5 
" id="mf59355a4a8" style="stroke:#000000;stroke-width:0.8;"/>
      </defs>
      <g>
       <use style="stroke:#000000;stroke-width:0.8;" x="69.218182" xlink:href="#mf59355a4a8" y="252"/>
      </g>
     </g>
     <g id="text_1">
      <!-- 0 -->
      <defs>
       <path d="M 31.78125 66.40625 
Q 24.171875 66.40625 20.328125 58.90625 
Q 16.5 51.421875 16.5 36.375 
Q 16.5 21.390625 20.328125 13.890625 
Q 24.171875 6.390625 31.78125 6.390625 
Q 39.453125 6.390625 43.28125 13.890625 
Q 47.125 21.390625 47.125 36.375 
Q 47.125 51.421875 43.28125 58.90625 
Q 39.453125 66.40625 31.78125 66.40625 
z
M 31.78125 74.21875 
Q 44.046875 74.21875 50.515625 64.515625 
Q 56.984375 54.828125 56.984375 36.375 
Q 56.984375 17.96875 50.515625 8.265625 
Q 44.046875 -1.421875 31.78125 -1.421875 
Q 19.53125 -1.421875 13.0625 8.265625 
Q 6.59375 17.96875 6.59375 36.375 
Q 6.59375 54.828125 13.0625 64.515625 
Q 19.53125 74.21875 31.78125 74.21875 
z
" id="DejaVuSans-48"/>
      </defs>
      <g transform="translate(66.036932 266.598437)scale(0.1 -0.1)">
       <use xlink:href="#DejaVuSans-48"/>
      </g>
     </g>
    </g>
    <g id="xtick_2">
     <g id="line2d_2">
      <g>
       <use style="stroke:#000000;stroke-width:0.8;" x="121.694671" xlink:href="#mf59355a4a8" y="252"/>
      </g>
     </g>
     <g id="text_2">
      <!-- 5 -->
      <defs>
       <path d="M 10.796875 72.90625 
L 49.515625 72.90625 
L 49.515625 64.59375 
L 19.828125 64.59375 
L 19.828125 46.734375 
Q 21.96875 47.46875 24.109375 47.828125 
Q 26.265625 48.1875 28.421875 48.1875 
Q 40.625 48.1875 47.75 41.5 
Q 54.890625 34.8125 54.890625 23.390625 
Q 54.890625 11.625 47.5625 5.09375 
Q 40.234375 -1.421875 26.90625 -1.421875 
Q 22.3125 -1.421875 17.546875 -0.640625 
Q 12.796875 0.140625 7.71875 1.703125 
L 7.71875 11.625 
Q 12.109375 9.234375 16.796875 8.0625 
Q 21.484375 6.890625 26.703125 6.890625 
Q 35.15625 6.890625 40.078125 11.328125 
Q 45.015625 15.765625 45.015625 23.390625 
Q 45.015625 31 40.078125 35.4375 
Q 35.15625 39.890625 26.703125 39.890625 
Q 22.75 39.890625 18.8125 39.015625 
Q 14.890625 38.140625 10.796875 36.28125 
z
" id="DejaVuSans-53"/>
      </defs>
      <g transform="translate(118.513421 266.598437)scale(0.1 -0.1)">
       <use xlink:href="#DejaVuSans-53"/>
      </g>
     </g>
    </g>
    <g id="xtick_3">
     <g id="line2d_3">
      <g>
       <use style="stroke:#000000;stroke-width:0.8;" x="174.17116" xlink:href="#mf59355a4a8" y="252"/>
      </g>
     </g>
     <g id="text_3">
      <!-- 10 -->
      <defs>
       <path d="M 12.40625 8.296875 
L 28.515625 8.296875 
L 28.515625 63.921875 
L 10.984375 60.40625 
L 10.984375 69.390625 
L 28.421875 72.90625 
L 38.28125 72.90625 
L 38.28125 8.296875 
L 54.390625 8.296875 
L 54.390625 0 
L 12.40625 0 
z
" id="DejaVuSans-49"/>
      </defs>
      <g transform="translate(167.80866 266.598437)scale(0.1 -0.1)">
       <use xlink:href="#DejaVuSans-49"/>
       <use x="63.623047" xlink:href="#DejaVuSans-48"/>
      </g>
     </g>
    </g>
    <g id="xtick_4">
     <g id="line2d_4">
      <g>
       <use style="stroke:#000000;stroke-width:0.8;" x="226.647649" xlink:href="#mf59355a4a8" y="252"/>
      </g>
     </g>
     <g id="text_4">
      <!-- 15 -->
      <g transform="translate(220.285149 266.598437)scale(0.1 -0.1)">
       <use xlink:href="#DejaVuSans-49"/>
       <use x="63.623047" xlink:href="#DejaVuSans-53"/>
      </g>
     </g>
    </g>
    <g id="xtick_5">
     <g id="line2d_5">
      <g>
       <use style="stroke:#000000;stroke-width:0.8;" x="279.124138" xlink:href="#mf59355a4a8" y="252"/>
      </g>
     </g>
     <g id="text_5">
      <!-- 20 -->
      <defs>
       <path d="M 19.1875 8.296875 
L 53.609375 8.296875 
L 53.609375 0 
L 7.328125 0 
L 7.328125 8.296875 
Q 12.9375 14.109375 22.625 23.890625 
Q 32.328125 33.6875 34.8125 36.53125 
Q 39.546875 41.84375 41.421875 45.53125 
Q 43.3125 49.21875 43.3125 52.78125 
Q 43.3125 58.59375 39.234375 62.25 
Q 35.15625 65.921875 28.609375 65.921875 
Q 23.96875 65.921875 18.8125 64.3125 
Q 13.671875 62.703125 7.8125 59.421875 
L 7.8125 69.390625 
Q 13.765625 71.78125 18.9375 73 
Q 24.125 74.21875 28.421875 74.21875 
Q 39.75 74.21875 46.484375 68.546875 
Q 53.21875 62.890625 53.21875 53.421875 
Q 53.21875 48.921875 51.53125 44.890625 
Q 49.859375 40.875 45.40625 35.40625 
Q 44.1875 33.984375 37.640625 27.21875 
Q 31.109375 20.453125 19.1875 8.296875 
z
" id="DejaVuSans-50"/>
      </defs>
      <g transform="translate(272.761638 266.598437)scale(0.1 -0.1)">
       <use xlink:href="#DejaVuSans-50"/>
       <use x="63.623047" xlink:href="#DejaVuSans-48"/>
      </g>
     </g>
    </g>
    <g id="xtick_6">
     <g id="line2d_6">
      <g>
       <use style="stroke:#000000;stroke-width:0.8;" x="331.600627" xlink:href="#mf59355a4a8" y="252"/>
      </g>
     </g>
     <g id="text_6">
      <!-- 25 -->
      <g transform="translate(325.238127 266.598437)scale(0.1 -0.1)">
       <use xlink:href="#DejaVuSans-50"/>
       <use x="63.623047" xlink:href="#DejaVuSans-53"/>
      </g>
     </g>
    </g>
    <g id="xtick_7">
     <g id="line2d_7">
      <g>
       <use style="stroke:#000000;stroke-width:0.8;" x="384.077116" xlink:href="#mf59355a4a8" y="252"/>
      </g>
     </g>
     <g id="text_7">
      <!-- 30 -->
      <defs>
       <path d="M 40.578125 39.3125 
Q 47.65625 37.796875 51.625 33 
Q 55.609375 28.21875 55.609375 21.1875 
Q 55.609375 10.40625 48.1875 4.484375 
Q 40.765625 -1.421875 27.09375 -1.421875 
Q 22.515625 -1.421875 17.65625 -0.515625 
Q 12.796875 0.390625 7.625 2.203125 
L 7.625 11.71875 
Q 11.71875 9.328125 16.59375 8.109375 
Q 21.484375 6.890625 26.8125 6.890625 
Q 36.078125 6.890625 40.9375 10.546875 
Q 45.796875 14.203125 45.796875 21.1875 
Q 45.796875 27.640625 41.28125 31.265625 
Q 36.765625 34.90625 28.71875 34.90625 
L 20.21875 34.90625 
L 20.21875 43.015625 
L 29.109375 43.015625 
Q 36.375 43.015625 40.234375 45.921875 
Q 44.09375 48.828125 44.09375 54.296875 
Q 44.09375 59.90625 40.109375 62.90625 
Q 36.140625 65.921875 28.71875 65.921875 
Q 24.65625 65.921875 20.015625 65.03125 
Q 15.375 64.15625 9.8125 62.3125 
L 9.8125 71.09375 
Q 15.4375 72.65625 20.34375 73.4375 
Q 25.25 74.21875 29.59375 74.21875 
Q 40.828125 74.21875 47.359375 69.109375 
Q 53.90625 64.015625 53.90625 55.328125 
Q 53.90625 49.265625 50.4375 45.09375 
Q 46.96875 40.921875 40.578125 39.3125 
z
" id="DejaVuSans-51"/>
      </defs>
      <g transform="translate(377.714616 266.598437)scale(0.1 -0.1)">
       <use xlink:href="#DejaVuSans-51"/>
       <use x="63.623047" xlink:href="#DejaVuSans-48"/>
      </g>
     </g>
    </g>
    <g id="text_8">
     <!-- n -->
     <defs>
      <path d="M 54.890625 33.015625 
L 54.890625 0 
L 45.90625 0 
L 45.90625 32.71875 
Q 45.90625 40.484375 42.875 44.328125 
Q 39.84375 48.1875 33.796875 48.1875 
Q 26.515625 48.1875 22.3125 43.546875 
Q 18.109375 38.921875 18.109375 30.90625 
L 18.109375 0 
L 9.078125 0 
L 9.078125 54.6875 
L 18.109375 54.6875 
L 18.109375 46.1875 
Q 21.34375 51.125 25.703125 53.5625 
Q 30.078125 56 35.796875 56 
Q 45.21875 56 50.046875 50.171875 
Q 54.890625 44.34375 54.890625 33.015625 
z
" id="DejaVuSans-110"/>
     </defs>
     <g transform="translate(218.23125 280.276563)scale(0.1 -0.1)">
      <use xlink:href="#DejaVuSans-110"/>
     </g>
    </g>
   </g>
   <g id="matplotlib.axis_2">
    <g id="ytick_1">
     <g id="line2d_8">
      <defs>
       <path d="M 0 0 
L -3.5 0 
" id="mb5c96f14b9" style="stroke:#000000;stroke-width:0.8;"/>
      </defs>
      <g>
       <use style="stroke:#000000;stroke-width:0.8;" x="54" xlink:href="#mb5c96f14b9" y="242.116484"/>
      </g>
     </g>
     <g id="text_9">
      <!-- 0 -->
      <g transform="translate(40.6375 245.915703)scale(0.1 -0.1)">
       <use xlink:href="#DejaVuSans-48"/>
      </g>
     </g>
    </g>
    <g id="ytick_2">
     <g id="line2d_9">
      <g>
       <use style="stroke:#000000;stroke-width:0.8;" x="54" xlink:href="#mb5c96f14b9" y="213.413085"/>
      </g>
     </g>
     <g id="text_10">
      <!-- 500 -->
      <g transform="translate(27.9125 217.212304)scale(0.1 -0.1)">
       <use xlink:href="#DejaVuSans-53"/>
       <use x="63.623047" xlink:href="#DejaVuSans-48"/>
       <use x="127.246094" xlink:href="#DejaVuSans-48"/>
      </g>
     </g>
    </g>
    <g id="ytick_3">
     <g id="line2d_10">
      <g>
       <use style="stroke:#000000;stroke-width:0.8;" x="54" xlink:href="#mb5c96f14b9" y="184.709686"/>
      </g>
     </g>
     <g id="text_11">
      <!-- 1000 -->
      <g transform="translate(21.55 188.508904)scale(0.1 -0.1)">
       <use xlink:href="#DejaVuSans-49"/>
       <use x="63.623047" xlink:href="#DejaVuSans-48"/>
       <use x="127.246094" xlink:href="#DejaVuSans-48"/>
       <use x="190.869141" xlink:href="#DejaVuSans-48"/>
      </g>
     </g>
    </g>
    <g id="ytick_4">
     <g id="line2d_11">
      <g>
       <use style="stroke:#000000;stroke-width:0.8;" x="54" xlink:href="#mb5c96f14b9" y="156.006286"/>
      </g>
     </g>
     <g id="text_12">
      <!-- 1500 -->
      <g transform="translate(21.55 159.805505)scale(0.1 -0.1)">
       <use xlink:href="#DejaVuSans-49"/>
       <use x="63.623047" xlink:href="#DejaVuSans-53"/>
       <use x="127.246094" xlink:href="#DejaVuSans-48"/>
       <use x="190.869141" xlink:href="#DejaVuSans-48"/>
      </g>
     </g>
    </g>
    <g id="ytick_5">
     <g id="line2d_12">
      <g>
       <use style="stroke:#000000;stroke-width:0.8;" x="54" xlink:href="#mb5c96f14b9" y="127.302887"/>
      </g>
     </g>
     <g id="text_13">
      <!-- 2000 -->
      <g transform="translate(21.55 131.102106)scale(0.1 -0.1)">
       <use xlink:href="#DejaVuSans-50"/>
       <use x="63.623047" xlink:href="#DejaVuSans-48"/>
       <use x="127.246094" xlink:href="#DejaVuSans-48"/>
       <use x="190.869141" xlink:href="#DejaVuSans-48"/>
      </g>
     </g>
    </g>
    <g id="ytick_6">
     <g id="line2d_13">
      <g>
       <use style="stroke:#000000;stroke-width:0.8;" x="54" xlink:href="#mb5c96f14b9" y="98.599488"/>
      </g>
     </g>
     <g id="text_14">
      <!-- 2500 -->
      <g transform="translate(21.55 102.398707)scale(0.1 -0.1)">
       <use xlink:href="#DejaVuSans-50"/>
       <use x="63.623047" xlink:href="#DejaVuSans-53"/>
       <use x="127.246094" xlink:href="#DejaVuSans-48"/>
       <use x="190.869141" xlink:href="#DejaVuSans-48"/>
      </g>
     </g>
    </g>
    <g id="ytick_7">
     <g id="line2d_14">
      <g>
       <use style="stroke:#000000;stroke-width:0.8;" x="54" xlink:href="#mb5c96f14b9" y="69.896089"/>
      </g>
     </g>
     <g id="text_15">
      <!-- 3000 -->
      <g transform="translate(21.55 73.695307)scale(0.1 -0.1)">
       <use xlink:href="#DejaVuSans-51"/>
       <use x="63.623047" xlink:href="#DejaVuSans-48"/>
       <use x="127.246094" xlink:href="#DejaVuSans-48"/>
       <use x="190.869141" xlink:href="#DejaVuSans-48"/>
      </g>
     </g>
    </g>
    <g id="ytick_8">
     <g id="line2d_15">
      <g>
       <use style="stroke:#000000;stroke-width:0.8;" x="54" xlink:href="#mb5c96f14b9" y="41.192689"/>
      </g>
     </g>
     <g id="text_16">
      <!-- 3500 -->
      <g transform="translate(21.55 44.991908)scale(0.1 -0.1)">
       <use xlink:href="#DejaVuSans-51"/>
       <use x="63.623047" xlink:href="#DejaVuSans-53"/>
       <use x="127.246094" xlink:href="#DejaVuSans-48"/>
       <use x="190.869141" xlink:href="#DejaVuSans-48"/>
      </g>
     </g>
    </g>
    <g id="text_17">
     <!-- tiempo (ms) -->
     <defs>
      <path d="M 18.3125 70.21875 
L 18.3125 54.6875 
L 36.8125 54.6875 
L 36.8125 47.703125 
L 18.3125 47.703125 
L 18.3125 18.015625 
Q 18.3125 11.328125 20.140625 9.421875 
Q 21.96875 7.515625 27.59375 7.515625 
L 36.8125 7.515625 
L 36.8125 0 
L 27.59375 0 
Q 17.1875 0 13.234375 3.875 
Q 9.28125 7.765625 9.28125 18.015625 
L 9.28125 47.703125 
L 2.6875 47.703125 
L 2.6875 54.6875 
L 9.28125 54.6875 
L 9.28125 70.21875 
z
" id="DejaVuSans-116"/>
      <path d="M 9.421875 54.6875 
L 18.40625 54.6875 
L 18.40625 0 
L 9.421875 0 
z
M 9.421875 75.984375 
L 18.40625 75.984375 
L 18.40625 64.59375 
L 9.421875 64.59375 
z
" id="DejaVuSans-105"/>
      <path d="M 56.203125 29.59375 
L 56.203125 25.203125 
L 14.890625 25.203125 
Q 15.484375 15.921875 20.484375 11.0625 
Q 25.484375 6.203125 34.421875 6.203125 
Q 39.59375 6.203125 44.453125 7.46875 
Q 49.3125 8.734375 54.109375 11.28125 
L 54.109375 2.78125 
Q 49.265625 0.734375 44.1875 -0.34375 
Q 39.109375 -1.421875 33.890625 -1.421875 
Q 20.796875 -1.421875 13.15625 6.1875 
Q 5.515625 13.8125 5.515625 26.8125 
Q 5.515625 40.234375 12.765625 48.109375 
Q 20.015625 56 32.328125 56 
Q 43.359375 56 49.78125 48.890625 
Q 56.203125 41.796875 56.203125 29.59375 
z
M 47.21875 32.234375 
Q 47.125 39.59375 43.09375 43.984375 
Q 39.0625 48.390625 32.421875 48.390625 
Q 24.90625 48.390625 20.390625 44.140625 
Q 15.875 39.890625 15.1875 32.171875 
z
" id="DejaVuSans-101"/>
      <path d="M 52 44.1875 
Q 55.375 50.25 60.0625 53.125 
Q 64.75 56 71.09375 56 
Q 79.640625 56 84.28125 50.015625 
Q 88.921875 44.046875 88.921875 33.015625 
L 88.921875 0 
L 79.890625 0 
L 79.890625 32.71875 
Q 79.890625 40.578125 77.09375 44.375 
Q 74.3125 48.1875 68.609375 48.1875 
Q 61.625 48.1875 57.5625 43.546875 
Q 53.515625 38.921875 53.515625 30.90625 
L 53.515625 0 
L 44.484375 0 
L 44.484375 32.71875 
Q 44.484375 40.625 41.703125 44.40625 
Q 38.921875 48.1875 33.109375 48.1875 
Q 26.21875 48.1875 22.15625 43.53125 
Q 18.109375 38.875 18.109375 30.90625 
L 18.109375 0 
L 9.078125 0 
L 9.078125 54.6875 
L 18.109375 54.6875 
L 18.109375 46.1875 
Q 21.1875 51.21875 25.484375 53.609375 
Q 29.78125 56 35.6875 56 
Q 41.65625 56 45.828125 52.96875 
Q 50 49.953125 52 44.1875 
z
" id="DejaVuSans-109"/>
      <path d="M 18.109375 8.203125 
L 18.109375 -20.796875 
L 9.078125 -20.796875 
L 9.078125 54.6875 
L 18.109375 54.6875 
L 18.109375 46.390625 
Q 20.953125 51.265625 25.265625 53.625 
Q 29.59375 56 35.59375 56 
Q 45.5625 56 51.78125 48.09375 
Q 58.015625 40.1875 58.015625 27.296875 
Q 58.015625 14.40625 51.78125 6.484375 
Q 45.5625 -1.421875 35.59375 -1.421875 
Q 29.59375 -1.421875 25.265625 0.953125 
Q 20.953125 3.328125 18.109375 8.203125 
z
M 48.6875 27.296875 
Q 48.6875 37.203125 44.609375 42.84375 
Q 40.53125 48.484375 33.40625 48.484375 
Q 26.265625 48.484375 22.1875 42.84375 
Q 18.109375 37.203125 18.109375 27.296875 
Q 18.109375 17.390625 22.1875 11.75 
Q 26.265625 6.109375 33.40625 6.109375 
Q 40.53125 6.109375 44.609375 11.75 
Q 48.6875 17.390625 48.6875 27.296875 
z
" id="DejaVuSans-112"/>
      <path d="M 30.609375 48.390625 
Q 23.390625 48.390625 19.1875 42.75 
Q 14.984375 37.109375 14.984375 27.296875 
Q 14.984375 17.484375 19.15625 11.84375 
Q 23.34375 6.203125 30.609375 6.203125 
Q 37.796875 6.203125 41.984375 11.859375 
Q 46.1875 17.53125 46.1875 27.296875 
Q 46.1875 37.015625 41.984375 42.703125 
Q 37.796875 48.390625 30.609375 48.390625 
z
M 30.609375 56 
Q 42.328125 56 49.015625 48.375 
Q 55.71875 40.765625 55.71875 27.296875 
Q 55.71875 13.875 49.015625 6.21875 
Q 42.328125 -1.421875 30.609375 -1.421875 
Q 18.84375 -1.421875 12.171875 6.21875 
Q 5.515625 13.875 5.515625 27.296875 
Q 5.515625 40.765625 12.171875 48.375 
Q 18.84375 56 30.609375 56 
z
" id="DejaVuSans-111"/>
      <path id="DejaVuSans-32"/>
      <path d="M 31 75.875 
Q 24.46875 64.65625 21.28125 53.65625 
Q 18.109375 42.671875 18.109375 31.390625 
Q 18.109375 20.125 21.3125 9.0625 
Q 24.515625 -2 31 -13.1875 
L 23.1875 -13.1875 
Q 15.875 -1.703125 12.234375 9.375 
Q 8.59375 20.453125 8.59375 31.390625 
Q 8.59375 42.28125 12.203125 53.3125 
Q 15.828125 64.359375 23.1875 75.875 
z
" id="DejaVuSans-40"/>
      <path d="M 44.28125 53.078125 
L 44.28125 44.578125 
Q 40.484375 46.53125 36.375 47.5 
Q 32.28125 48.484375 27.875 48.484375 
Q 21.1875 48.484375 17.84375 46.4375 
Q 14.5 44.390625 14.5 40.28125 
Q 14.5 37.15625 16.890625 35.375 
Q 19.28125 33.59375 26.515625 31.984375 
L 29.59375 31.296875 
Q 39.15625 29.25 43.1875 25.515625 
Q 47.21875 21.78125 47.21875 15.09375 
Q 47.21875 7.46875 41.1875 3.015625 
Q 35.15625 -1.421875 24.609375 -1.421875 
Q 20.21875 -1.421875 15.453125 -0.5625 
Q 10.6875 0.296875 5.421875 2 
L 5.421875 11.28125 
Q 10.40625 8.6875 15.234375 7.390625 
Q 20.0625 6.109375 24.8125 6.109375 
Q 31.15625 6.109375 34.5625 8.28125 
Q 37.984375 10.453125 37.984375 14.40625 
Q 37.984375 18.0625 35.515625 20.015625 
Q 33.0625 21.96875 24.703125 23.78125 
L 21.578125 24.515625 
Q 13.234375 26.265625 9.515625 29.90625 
Q 5.8125 33.546875 5.8125 39.890625 
Q 5.8125 47.609375 11.28125 51.796875 
Q 16.75 56 26.8125 56 
Q 31.78125 56 36.171875 55.265625 
Q 40.578125 54.546875 44.28125 53.078125 
z
" id="DejaVuSans-115"/>
      <path d="M 8.015625 75.875 
L 15.828125 75.875 
Q 23.140625 64.359375 26.78125 53.3125 
Q 30.421875 42.28125 30.421875 31.390625 
Q 30.421875 20.453125 26.78125 9.375 
Q 23.140625 -1.703125 15.828125 -13.1875 
L 8.015625 -13.1875 
Q 14.5 -2 17.703125 9.0625 
Q 20.90625 20.125 20.90625 31.390625 
Q 20.90625 42.671875 17.703125 53.65625 
Q 14.5 64.65625 8.015625 75.875 
z
" id="DejaVuSans-41"/>
     </defs>
     <g transform="translate(15.470312 173.775312)rotate(-90)scale(0.1 -0.1)">
      <use xlink:href="#DejaVuSans-116"/>
      <use x="39.208984" xlink:href="#DejaVuSans-105"/>
      <use x="66.992188" xlink:href="#DejaVuSans-101"/>
      <use x="128.515625" xlink:href="#DejaVuSans-109"/>
      <use x="225.927734" xlink:href="#DejaVuSans-112"/>
      <use x="289.404297" xlink:href="#DejaVuSans-111"/>
      <use x="350.585938" xlink:href="#DejaVuSans-32"/>
      <use x="382.373047" xlink:href="#DejaVuSans-40"/>
      <use x="421.386719" xlink:href="#DejaVuSans-109"/>
      <use x="518.798828" xlink:href="#DejaVuSans-115"/>
      <use x="570.898438" xlink:href="#DejaVuSans-41"/>
     </g>
    </g>
   </g>
   <g id="patch_3">
    <path d="M 54 252 
L 54 34.56 
" style="fill:none;stroke:#000000;stroke-linecap:square;stroke-linejoin:miter;stroke-width:0.8;"/>
   </g>
   <g id="patch_4">
    <path d="M 388.8 252 
L 388.8 34.56 
" style="fill:none;stroke:#000000;stroke-linecap:square;stroke-linejoin:miter;stroke-width:0.8;"/>
   </g>
   <g id="patch_5">
    <path d="M 54 252 
L 388.8 252 
" style="fill:none;stroke:#000000;stroke-linecap:square;stroke-linejoin:miter;stroke-width:0.8;"/>
   </g>
   <g id="patch_6">
    <path d="M 54 34.56 
L 388.8 34.56 
" style="fill:none;stroke:#000000;stroke-linecap:square;stroke-linejoin:miter;stroke-width:0.8;"/>
   </g>
   <g id="legend_1">
    <g id="patch_7">
     <path d="M 61 101.2725 
L 131.4 101.2725 
Q 133.4 101.2725 133.4 99.2725 
L 133.4 41.56 
Q 133.4 39.56 131.4 39.56 
L 61 39.56 
Q 59 39.56 59 41.56 
L 59 99.2725 
Q 59 101.2725 61 101.2725 
z
" style="fill:#ffffff;opacity:0.8;stroke:#cccccc;stroke-linejoin:miter;"/>
    </g>
    <g id="PathCollection_6">
     <defs>
      <path id="m0febddb9e4" style="stroke:#ffffff;stroke-width:1.5;"/>
     </defs>
     <g>
      <use style="fill:#ffffff;stroke:#ffffff;stroke-width:1.5;" x="73" xlink:href="#m0febddb9e4" y="48.533437"/>
     </g>
    </g>
    <g id="text_18">
     <!-- metodo -->
     <defs>
      <path d="M 45.40625 46.390625 
L 45.40625 75.984375 
L 54.390625 75.984375 
L 54.390625 0 
L 45.40625 0 
L 45.40625 8.203125 
Q 42.578125 3.328125 38.25 0.953125 
Q 33.9375 -1.421875 27.875 -1.421875 
Q 17.96875 -1.421875 11.734375 6.484375 
Q 5.515625 14.40625 5.515625 27.296875 
Q 5.515625 40.1875 11.734375 48.09375 
Q 17.96875 56 27.875 56 
Q 33.9375 56 38.25 53.625 
Q 42.578125 51.265625 45.40625 46.390625 
z
M 14.796875 27.296875 
Q 14.796875 17.390625 18.875 11.75 
Q 22.953125 6.109375 30.078125 6.109375 
Q 37.203125 6.109375 41.296875 11.75 
Q 45.40625 17.390625 45.40625 27.296875 
Q 45.40625 37.203125 41.296875 42.84375 
Q 37.203125 48.484375 30.078125 48.484375 
Q 22.953125 48.484375 18.875 42.84375 
Q 14.796875 37.203125 14.796875 27.296875 
z
" id="DejaVuSans-100"/>
     </defs>
     <g transform="translate(91 51.158437)scale(0.1 -0.1)">
      <use xlink:href="#DejaVuSans-109"/>
      <use x="97.412109" xlink:href="#DejaVuSans-101"/>
      <use x="158.935547" xlink:href="#DejaVuSans-116"/>
      <use x="198.144531" xlink:href="#DejaVuSans-111"/>
      <use x="259.326172" xlink:href="#DejaVuSans-100"/>
      <use x="322.802734" xlink:href="#DejaVuSans-111"/>
     </g>
    </g>
    <g id="PathCollection_7">
     <defs>
      <path d="M 0 3 
C 0.795609 3 1.55874 2.683901 2.12132 2.12132 
C 2.683901 1.55874 3 0.795609 3 0 
C 3 -0.795609 2.683901 -1.55874 2.12132 -2.12132 
C 1.55874 -2.683901 0.795609 -3 0 -3 
C -0.795609 -3 -1.55874 -2.683901 -2.12132 -2.12132 
C -2.683901 -1.55874 -3 -0.795609 -3 0 
C -3 0.795609 -2.683901 1.55874 -2.12132 2.12132 
C -1.55874 2.683901 -0.795609 3 0 3 
z
" id="mee86edb098" style="stroke:#1f77b4;"/>
     </defs>
     <g>
      <use style="fill:#1f77b4;stroke:#1f77b4;" x="73" xlink:href="#mee86edb098" y="63.211562"/>
     </g>
    </g>
    <g id="text_19">
     <!-- BT -->
     <defs>
      <path d="M 19.671875 34.8125 
L 19.671875 8.109375 
L 35.5 8.109375 
Q 43.453125 8.109375 47.28125 11.40625 
Q 51.125 14.703125 51.125 21.484375 
Q 51.125 28.328125 47.28125 31.5625 
Q 43.453125 34.8125 35.5 34.8125 
z
M 19.671875 64.796875 
L 19.671875 42.828125 
L 34.28125 42.828125 
Q 41.5 42.828125 45.03125 45.53125 
Q 48.578125 48.25 48.578125 53.8125 
Q 48.578125 59.328125 45.03125 62.0625 
Q 41.5 64.796875 34.28125 64.796875 
z
M 9.8125 72.90625 
L 35.015625 72.90625 
Q 46.296875 72.90625 52.390625 68.21875 
Q 58.5 63.53125 58.5 54.890625 
Q 58.5 48.1875 55.375 44.234375 
Q 52.25 40.28125 46.1875 39.3125 
Q 53.46875 37.75 57.5 32.78125 
Q 61.53125 27.828125 61.53125 20.40625 
Q 61.53125 10.640625 54.890625 5.3125 
Q 48.25 0 35.984375 0 
L 9.8125 0 
z
" id="DejaVuSans-66"/>
      <path d="M -0.296875 72.90625 
L 61.375 72.90625 
L 61.375 64.59375 
L 35.5 64.59375 
L 35.5 0 
L 25.59375 0 
L 25.59375 64.59375 
L -0.296875 64.59375 
z
" id="DejaVuSans-84"/>
     </defs>
     <g transform="translate(91 65.836562)scale(0.1 -0.1)">
      <use xlink:href="#DejaVuSans-66"/>
      <use x="68.603516" xlink:href="#DejaVuSans-84"/>
     </g>
    </g>
    <g id="PathCollection_8">
     <defs>
      <path d="M 0 3 
C 0.795609 3 1.55874 2.683901 2.12132 2.12132 
C 2.683901 1.55874 3 0.795609 3 0 
C 3 -0.795609 2.683901 -1.55874 2.12132 -2.12132 
C 1.55874 -2.683901 0.795609 -3 0 -3 
C -0.795609 -3 -1.55874 -2.683901 -2.12132 -2.12132 
C -2.683901 -1.55874 -3 -0.795609 -3 0 
C -3 0.795609 -2.683901 1.55874 -2.12132 2.12132 
C -1.55874 2.683901 -0.795609 3 0 3 
z
" id="m603251a70f" style="stroke:#ff7f0e;"/>
     </defs>
     <g>
      <use style="fill:#ff7f0e;stroke:#ff7f0e;" x="73" xlink:href="#m603251a70f" y="77.889687"/>
     </g>
    </g>
    <g id="text_20">
     <!-- BT-F -->
     <defs>
      <path d="M 4.890625 31.390625 
L 31.203125 31.390625 
L 31.203125 23.390625 
L 4.890625 23.390625 
z
" id="DejaVuSans-45"/>
      <path d="M 9.8125 72.90625 
L 51.703125 72.90625 
L 51.703125 64.59375 
L 19.671875 64.59375 
L 19.671875 43.109375 
L 48.578125 43.109375 
L 48.578125 34.8125 
L 19.671875 34.8125 
L 19.671875 0 
L 9.8125 0 
z
" id="DejaVuSans-70"/>
     </defs>
     <g transform="translate(91 80.514687)scale(0.1 -0.1)">
      <use xlink:href="#DejaVuSans-66"/>
      <use x="68.603516" xlink:href="#DejaVuSans-84"/>
      <use x="120.5625" xlink:href="#DejaVuSans-45"/>
      <use x="156.646484" xlink:href="#DejaVuSans-70"/>
     </g>
    </g>
    <g id="PathCollection_9">
     <defs>
      <path d="M 0 3 
C 0.795609 3 1.55874 2.683901 2.12132 2.12132 
C 2.683901 1.55874 3 0.795609 3 0 
C 3 -0.795609 2.683901 -1.55874 2.12132 -2.12132 
C 1.55874 -2.683901 0.795609 -3 0 -3 
C -0.795609 -3 -1.55874 -2.683901 -2.12132 -2.12132 
C -2.683901 -1.55874 -3 -0.795609 -3 0 
C -3 0.795609 -2.683901 1.55874 -2.12132 2.12132 
C -1.55874 2.683901 -0.795609 3 0 3 
z
" id="m7d3b9b14d7" style="stroke:#2ca02c;"/>
     </defs>
     <g>
      <use style="fill:#2ca02c;stroke:#2ca02c;" x="73" xlink:href="#m7d3b9b14d7" y="92.567813"/>
     </g>
    </g>
    <g id="text_21">
     <!-- BT-O -->
     <defs>
      <path d="M 39.40625 66.21875 
Q 28.65625 66.21875 22.328125 58.203125 
Q 16.015625 50.203125 16.015625 36.375 
Q 16.015625 22.609375 22.328125 14.59375 
Q 28.65625 6.59375 39.40625 6.59375 
Q 50.140625 6.59375 56.421875 14.59375 
Q 62.703125 22.609375 62.703125 36.375 
Q 62.703125 50.203125 56.421875 58.203125 
Q 50.140625 66.21875 39.40625 66.21875 
z
M 39.40625 74.21875 
Q 54.734375 74.21875 63.90625 63.9375 
Q 73.09375 53.65625 73.09375 36.375 
Q 73.09375 19.140625 63.90625 8.859375 
Q 54.734375 -1.421875 39.40625 -1.421875 
Q 24.03125 -1.421875 14.8125 8.828125 
Q 5.609375 19.09375 5.609375 36.375 
Q 5.609375 53.65625 14.8125 63.9375 
Q 24.03125 74.21875 39.40625 74.21875 
z
" id="DejaVuSans-79"/>
     </defs>
     <g transform="translate(91 95.192813)scale(0.1 -0.1)">
      <use xlink:href="#DejaVuSans-66"/>
      <use x="68.603516" xlink:href="#DejaVuSans-84"/>
      <use x="120.5625" xlink:href="#DejaVuSans-45"/>
      <use x="159.396484" xlink:href="#DejaVuSans-79"/>
     </g>
    </g>
   </g>
  </g>
 </g>
 <defs>
  <clipPath id="p46793edf33">
   <rect height="217.44" width="334.8" x="54" y="34.56"/>
  </clipPath>
 </defs>
</svg>
