<?xml version="1.0" encoding="utf-8" standalone="no"?>
<!DOCTYPE svg PUBLIC "-//W3C//DTD SVG 1.1//EN"
  "http://www.w3.org/Graphics/SVG/1.1/DTD/svg11.dtd">
<!-- Created with matplotlib (https://matplotlib.org/) -->
<svg height="288pt" version="1.1" viewBox="0 0 432 288" width="432pt" xmlns="http://www.w3.org/2000/svg" xmlns:xlink="http://www.w3.org/1999/xlink">
 <defs>
  <style type="text/css">
*{stroke-linecap:butt;stroke-linejoin:round;}
  </style>
 </defs>
 <g id="figure_1">
  <g id="patch_1">
   <path d="M 0 288 
L 432 288 
L 432 0 
L 0 0 
z
" style="fill:#ffffff;"/>
  </g>
  <g id="axes_1">
   <g id="patch_2">
    <path d="M 54 252 
L 388.8 252 
L 388.8 34.56 
L 54 34.56 
z
" style="fill:#ffffff;"/>
   </g>
   <g id="PathCollection_1">
    <defs>
     <path d="M 0 3 
C 0.795609 3 1.55874 2.683901 2.12132 2.12132 
C 2.683901 1.55874 3 0.795609 3 0 
C 3 -0.795609 2.683901 -1.55874 2.12132 -2.12132 
C 1.55874 -2.683901 0.795609 -3 0 -3 
C -0.795609 -3 -1.55874 -2.683901 -2.12132 -2.12132 
C -2.683901 -1.55874 -3 -0.795609 -3 0 
C -3 0.795609 -2.683901 1.55874 -2.12132 2.12132 
C -1.55874 2.683901 -0.795609 3 0 3 
z
" id="m8204eb60c1" style="stroke:#ffffff;stroke-width:0.75;"/>
    </defs>
    <g clip-path="url(#p117a9a10f8)">
     <use style="fill:#1f77b4;stroke:#ffffff;stroke-width:0.75;" x="69.218182" xlink:href="#m8204eb60c1" y="242.116364"/>
     <use style="fill:#1f77b4;stroke:#ffffff;stroke-width:0.75;" x="70.980695" xlink:href="#m8204eb60c1" y="240.32747"/>
     <use style="fill:#1f77b4;stroke:#ffffff;stroke-width:0.75;" x="73.320971" xlink:href="#m8204eb60c1" y="238.538577"/>
     <use style="fill:#1f77b4;stroke:#ffffff;stroke-width:0.75;" x="75.094533" xlink:href="#m8204eb60c1" y="236.749683"/>
     <use style="fill:#1f77b4;stroke:#ffffff;stroke-width:0.75;" x="76.321693" xlink:href="#m8204eb60c1" y="234.96079"/>
     <use style="fill:#1f77b4;stroke:#ffffff;stroke-width:0.75;" x="78.006799" xlink:href="#m8204eb60c1" y="233.171896"/>
     <use style="fill:#1f77b4;stroke:#ffffff;stroke-width:0.75;" x="81.336436" xlink:href="#m8204eb60c1" y="231.383003"/>
     <use style="fill:#1f77b4;stroke:#ffffff;stroke-width:0.75;" x="81.311631" xlink:href="#m8204eb60c1" y="229.594109"/>
     <use style="fill:#1f77b4;stroke:#ffffff;stroke-width:0.75;" x="84.189621" xlink:href="#m8204eb60c1" y="227.805216"/>
     <use style="fill:#1f77b4;stroke:#ffffff;stroke-width:0.75;" x="85.259997" xlink:href="#m8204eb60c1" y="226.016323"/>
     <use style="fill:#1f77b4;stroke:#ffffff;stroke-width:0.75;" x="88.305008" xlink:href="#m8204eb60c1" y="224.227429"/>
     <use style="fill:#1f77b4;stroke:#ffffff;stroke-width:0.75;" x="90.876016" xlink:href="#m8204eb60c1" y="222.438536"/>
     <use style="fill:#1f77b4;stroke:#ffffff;stroke-width:0.75;" x="90.266262" xlink:href="#m8204eb60c1" y="220.649642"/>
     <use style="fill:#1f77b4;stroke:#ffffff;stroke-width:0.75;" x="91.151878" xlink:href="#m8204eb60c1" y="218.860749"/>
     <use style="fill:#1f77b4;stroke:#ffffff;stroke-width:0.75;" x="70.95147" xlink:href="#m8204eb60c1" y="240.32747"/>
     <use style="fill:#1f77b4;stroke:#ffffff;stroke-width:0.75;" x="73.821402" xlink:href="#m8204eb60c1" y="237.64413"/>
     <use style="fill:#1f77b4;stroke:#ffffff;stroke-width:0.75;" x="78.021381" xlink:href="#m8204eb60c1" y="234.96079"/>
     <use style="fill:#1f77b4;stroke:#ffffff;stroke-width:0.75;" x="79.34292" xlink:href="#m8204eb60c1" y="232.27745"/>
     <use style="fill:#1f77b4;stroke:#ffffff;stroke-width:0.75;" x="83.54078" xlink:href="#m8204eb60c1" y="229.594109"/>
     <use style="fill:#1f77b4;stroke:#ffffff;stroke-width:0.75;" x="84.661819" xlink:href="#m8204eb60c1" y="226.910769"/>
     <use style="fill:#1f77b4;stroke:#ffffff;stroke-width:0.75;" x="94.816264" xlink:href="#m8204eb60c1" y="224.227429"/>
     <use style="fill:#1f77b4;stroke:#ffffff;stroke-width:0.75;" x="91.73367" xlink:href="#m8204eb60c1" y="221.544089"/>
     <use style="fill:#1f77b4;stroke:#ffffff;stroke-width:0.75;" x="97.329844" xlink:href="#m8204eb60c1" y="218.860749"/>
     <use style="fill:#1f77b4;stroke:#ffffff;stroke-width:0.75;" x="104.134702" xlink:href="#m8204eb60c1" y="216.177408"/>
     <use style="fill:#1f77b4;stroke:#ffffff;stroke-width:0.75;" x="101.283622" xlink:href="#m8204eb60c1" y="213.494068"/>
     <use style="fill:#1f77b4;stroke:#ffffff;stroke-width:0.75;" x="105.445763" xlink:href="#m8204eb60c1" y="210.810728"/>
     <use style="fill:#1f77b4;stroke:#ffffff;stroke-width:0.75;" x="107.58832" xlink:href="#m8204eb60c1" y="208.127388"/>
     <use style="fill:#1f77b4;stroke:#ffffff;stroke-width:0.75;" x="110.582818" xlink:href="#m8204eb60c1" y="205.444048"/>
     <use style="fill:#1f77b4;stroke:#ffffff;stroke-width:0.75;" x="72.402025" xlink:href="#m8204eb60c1" y="238.538577"/>
     <use style="fill:#1f77b4;stroke:#ffffff;stroke-width:0.75;" x="76.934949" xlink:href="#m8204eb60c1" y="234.96079"/>
     <use style="fill:#1f77b4;stroke:#ffffff;stroke-width:0.75;" x="81.708212" xlink:href="#m8204eb60c1" y="231.383003"/>
     <use style="fill:#1f77b4;stroke:#ffffff;stroke-width:0.75;" x="85.561867" xlink:href="#m8204eb60c1" y="227.805216"/>
     <use style="fill:#1f77b4;stroke:#ffffff;stroke-width:0.75;" x="90.363378" xlink:href="#m8204eb60c1" y="224.227429"/>
     <use style="fill:#1f77b4;stroke:#ffffff;stroke-width:0.75;" x="93.095994" xlink:href="#m8204eb60c1" y="220.649642"/>
     <use style="fill:#1f77b4;stroke:#ffffff;stroke-width:0.75;" x="98.872569" xlink:href="#m8204eb60c1" y="217.071855"/>
     <use style="fill:#1f77b4;stroke:#ffffff;stroke-width:0.75;" x="101.673588" xlink:href="#m8204eb60c1" y="213.494068"/>
     <use style="fill:#1f77b4;stroke:#ffffff;stroke-width:0.75;" x="109.222598" xlink:href="#m8204eb60c1" y="209.916281"/>
     <use style="fill:#1f77b4;stroke:#ffffff;stroke-width:0.75;" x="112.865336" xlink:href="#m8204eb60c1" y="206.338494"/>
     <use style="fill:#1f77b4;stroke:#ffffff;stroke-width:0.75;" x="123.386895" xlink:href="#m8204eb60c1" y="202.760708"/>
     <use style="fill:#1f77b4;stroke:#ffffff;stroke-width:0.75;" x="125.895214" xlink:href="#m8204eb60c1" y="199.182921"/>
     <use style="fill:#1f77b4;stroke:#ffffff;stroke-width:0.75;" x="128.292887" xlink:href="#m8204eb60c1" y="195.605134"/>
     <use style="fill:#1f77b4;stroke:#ffffff;stroke-width:0.75;" x="132.191643" xlink:href="#m8204eb60c1" y="192.027347"/>
     <use style="fill:#1f77b4;stroke:#ffffff;stroke-width:0.75;" x="74.155473" xlink:href="#m8204eb60c1" y="236.749683"/>
     <use style="fill:#1f77b4;stroke:#ffffff;stroke-width:0.75;" x="79.599149" xlink:href="#m8204eb60c1" y="232.27745"/>
     <use style="fill:#1f77b4;stroke:#ffffff;stroke-width:0.75;" x="85.995881" xlink:href="#m8204eb60c1" y="227.805216"/>
     <use style="fill:#1f77b4;stroke:#ffffff;stroke-width:0.75;" x="93.137036" xlink:href="#m8204eb60c1" y="223.332982"/>
     <use style="fill:#1f77b4;stroke:#ffffff;stroke-width:0.75;" x="97.971018" xlink:href="#m8204eb60c1" y="218.860749"/>
     <use style="fill:#1f77b4;stroke:#ffffff;stroke-width:0.75;" x="101.664117" xlink:href="#m8204eb60c1" y="214.388515"/>
     <use style="fill:#1f77b4;stroke:#ffffff;stroke-width:0.75;" x="107.79563" xlink:href="#m8204eb60c1" y="209.916281"/>
     <use style="fill:#1f77b4;stroke:#ffffff;stroke-width:0.75;" x="116.561742" xlink:href="#m8204eb60c1" y="205.444048"/>
     <use style="fill:#1f77b4;stroke:#ffffff;stroke-width:0.75;" x="121.773513" xlink:href="#m8204eb60c1" y="200.971814"/>
     <use style="fill:#1f77b4;stroke:#ffffff;stroke-width:0.75;" x="127.488902" xlink:href="#m8204eb60c1" y="196.49958"/>
     <use style="fill:#1f77b4;stroke:#ffffff;stroke-width:0.75;" x="132.204722" xlink:href="#m8204eb60c1" y="192.027347"/>
     <use style="fill:#1f77b4;stroke:#ffffff;stroke-width:0.75;" x="141.178896" xlink:href="#m8204eb60c1" y="187.555113"/>
     <use style="fill:#1f77b4;stroke:#ffffff;stroke-width:0.75;" x="152.273227" xlink:href="#m8204eb60c1" y="183.082879"/>
     <use style="fill:#1f77b4;stroke:#ffffff;stroke-width:0.75;" x="162.802153" xlink:href="#m8204eb60c1" y="178.610646"/>
     <use style="fill:#1f77b4;stroke:#ffffff;stroke-width:0.75;" x="75.900307" xlink:href="#m8204eb60c1" y="234.96079"/>
     <use style="fill:#1f77b4;stroke:#ffffff;stroke-width:0.75;" x="83.365942" xlink:href="#m8204eb60c1" y="229.594109"/>
     <use style="fill:#1f77b4;stroke:#ffffff;stroke-width:0.75;" x="90.8464" xlink:href="#m8204eb60c1" y="224.227429"/>
     <use style="fill:#1f77b4;stroke:#ffffff;stroke-width:0.75;" x="96.714378" xlink:href="#m8204eb60c1" y="218.860749"/>
     <use style="fill:#1f77b4;stroke:#ffffff;stroke-width:0.75;" x="104.059235" xlink:href="#m8204eb60c1" y="213.494068"/>
     <use style="fill:#1f77b4;stroke:#ffffff;stroke-width:0.75;" x="109.62429" xlink:href="#m8204eb60c1" y="208.127388"/>
     <use style="fill:#1f77b4;stroke:#ffffff;stroke-width:0.75;" x="121.130686" xlink:href="#m8204eb60c1" y="202.760708"/>
     <use style="fill:#1f77b4;stroke:#ffffff;stroke-width:0.75;" x="127.616987" xlink:href="#m8204eb60c1" y="197.394027"/>
     <use style="fill:#1f77b4;stroke:#ffffff;stroke-width:0.75;" x="135.435244" xlink:href="#m8204eb60c1" y="192.027347"/>
     <use style="fill:#1f77b4;stroke:#ffffff;stroke-width:0.75;" x="141.84277" xlink:href="#m8204eb60c1" y="186.660666"/>
     <use style="fill:#1f77b4;stroke:#ffffff;stroke-width:0.75;" x="150.567841" xlink:href="#m8204eb60c1" y="181.293986"/>
     <use style="fill:#1f77b4;stroke:#ffffff;stroke-width:0.75;" x="161.432913" xlink:href="#m8204eb60c1" y="175.927306"/>
     <use style="fill:#1f77b4;stroke:#ffffff;stroke-width:0.75;" x="166.018544" xlink:href="#m8204eb60c1" y="170.560625"/>
     <use style="fill:#1f77b4;stroke:#ffffff;stroke-width:0.75;" x="177.136027" xlink:href="#m8204eb60c1" y="165.193945"/>
     <use style="fill:#1f77b4;stroke:#ffffff;stroke-width:0.75;" x="78.12233" xlink:href="#m8204eb60c1" y="233.171896"/>
     <use style="fill:#1f77b4;stroke:#ffffff;stroke-width:0.75;" x="86.147417" xlink:href="#m8204eb60c1" y="226.910769"/>
     <use style="fill:#1f77b4;stroke:#ffffff;stroke-width:0.75;" x="93.852624" xlink:href="#m8204eb60c1" y="220.649642"/>
     <use style="fill:#1f77b4;stroke:#ffffff;stroke-width:0.75;" x="103.60688" xlink:href="#m8204eb60c1" y="214.388515"/>
     <use style="fill:#1f77b4;stroke:#ffffff;stroke-width:0.75;" x="111.870427" xlink:href="#m8204eb60c1" y="208.127388"/>
     <use style="fill:#1f77b4;stroke:#ffffff;stroke-width:0.75;" x="120.32174" xlink:href="#m8204eb60c1" y="201.866261"/>
     <use style="fill:#1f77b4;stroke:#ffffff;stroke-width:0.75;" x="134.234829" xlink:href="#m8204eb60c1" y="195.605134"/>
     <use style="fill:#1f77b4;stroke:#ffffff;stroke-width:0.75;" x="140.395657" xlink:href="#m8204eb60c1" y="189.344007"/>
     <use style="fill:#1f77b4;stroke:#ffffff;stroke-width:0.75;" x="146.194933" xlink:href="#m8204eb60c1" y="183.082879"/>
     <use style="fill:#1f77b4;stroke:#ffffff;stroke-width:0.75;" x="153.45906" xlink:href="#m8204eb60c1" y="176.821752"/>
     <use style="fill:#1f77b4;stroke:#ffffff;stroke-width:0.75;" x="168.128779" xlink:href="#m8204eb60c1" y="170.560625"/>
     <use style="fill:#1f77b4;stroke:#ffffff;stroke-width:0.75;" x="179.399903" xlink:href="#m8204eb60c1" y="164.299498"/>
     <use style="fill:#1f77b4;stroke:#ffffff;stroke-width:0.75;" x="183.696743" xlink:href="#m8204eb60c1" y="158.038371"/>
     <use style="fill:#1f77b4;stroke:#ffffff;stroke-width:0.75;" x="193.560893" xlink:href="#m8204eb60c1" y="151.777244"/>
     <use style="fill:#1f77b4;stroke:#ffffff;stroke-width:0.75;" x="78.473976" xlink:href="#m8204eb60c1" y="231.383003"/>
     <use style="fill:#1f77b4;stroke:#ffffff;stroke-width:0.75;" x="88.336878" xlink:href="#m8204eb60c1" y="224.227429"/>
     <use style="fill:#1f77b4;stroke:#ffffff;stroke-width:0.75;" x="99.568615" xlink:href="#m8204eb60c1" y="217.071855"/>
     <use style="fill:#1f77b4;stroke:#ffffff;stroke-width:0.75;" x="107.55224" xlink:href="#m8204eb60c1" y="209.916281"/>
     <use style="fill:#1f77b4;stroke:#ffffff;stroke-width:0.75;" x="117.128801" xlink:href="#m8204eb60c1" y="202.760708"/>
     <use style="fill:#1f77b4;stroke:#ffffff;stroke-width:0.75;" x="128.613399" xlink:href="#m8204eb60c1" y="195.605134"/>
     <use style="fill:#1f77b4;stroke:#ffffff;stroke-width:0.75;" x="140.554861" xlink:href="#m8204eb60c1" y="188.44956"/>
     <use style="fill:#1f77b4;stroke:#ffffff;stroke-width:0.75;" x="147.794785" xlink:href="#m8204eb60c1" y="181.293986"/>
     <use style="fill:#1f77b4;stroke:#ffffff;stroke-width:0.75;" x="157.644803" xlink:href="#m8204eb60c1" y="174.138412"/>
     <use style="fill:#1f77b4;stroke:#ffffff;stroke-width:0.75;" x="170.733612" xlink:href="#m8204eb60c1" y="166.982838"/>
     <use style="fill:#1f77b4;stroke:#ffffff;stroke-width:0.75;" x="190.258361" xlink:href="#m8204eb60c1" y="159.827265"/>
     <use style="fill:#1f77b4;stroke:#ffffff;stroke-width:0.75;" x="194.457183" xlink:href="#m8204eb60c1" y="152.671691"/>
     <use style="fill:#1f77b4;stroke:#ffffff;stroke-width:0.75;" x="207.410842" xlink:href="#m8204eb60c1" y="145.516117"/>
     <use style="fill:#1f77b4;stroke:#ffffff;stroke-width:0.75;" x="218.159255" xlink:href="#m8204eb60c1" y="138.360543"/>
     <use style="fill:#1f77b4;stroke:#ffffff;stroke-width:0.75;" x="80.675088" xlink:href="#m8204eb60c1" y="229.594109"/>
     <use style="fill:#1f77b4;stroke:#ffffff;stroke-width:0.75;" x="92.811112" xlink:href="#m8204eb60c1" y="221.544089"/>
     <use style="fill:#1f77b4;stroke:#ffffff;stroke-width:0.75;" x="108.397115" xlink:href="#m8204eb60c1" y="213.494068"/>
     <use style="fill:#1f77b4;stroke:#ffffff;stroke-width:0.75;" x="112.893899" xlink:href="#m8204eb60c1" y="205.444048"/>
     <use style="fill:#1f77b4;stroke:#ffffff;stroke-width:0.75;" x="136.58169" xlink:href="#m8204eb60c1" y="197.394027"/>
     <use style="fill:#1f77b4;stroke:#ffffff;stroke-width:0.75;" x="147.15331" xlink:href="#m8204eb60c1" y="189.344007"/>
     <use style="fill:#1f77b4;stroke:#ffffff;stroke-width:0.75;" x="150.660447" xlink:href="#m8204eb60c1" y="181.293986"/>
     <use style="fill:#1f77b4;stroke:#ffffff;stroke-width:0.75;" x="160.289926" xlink:href="#m8204eb60c1" y="173.243965"/>
     <use style="fill:#1f77b4;stroke:#ffffff;stroke-width:0.75;" x="178.602683" xlink:href="#m8204eb60c1" y="165.193945"/>
     <use style="fill:#1f77b4;stroke:#ffffff;stroke-width:0.75;" x="226.014194" xlink:href="#m8204eb60c1" y="157.143924"/>
     <use style="fill:#1f77b4;stroke:#ffffff;stroke-width:0.75;" x="201.345476" xlink:href="#m8204eb60c1" y="149.093904"/>
     <use style="fill:#1f77b4;stroke:#ffffff;stroke-width:0.75;" x="222.527954" xlink:href="#m8204eb60c1" y="141.043883"/>
     <use style="fill:#1f77b4;stroke:#ffffff;stroke-width:0.75;" x="234.308108" xlink:href="#m8204eb60c1" y="132.993863"/>
     <use style="fill:#1f77b4;stroke:#ffffff;stroke-width:0.75;" x="240.262829" xlink:href="#m8204eb60c1" y="124.943842"/>
     <use style="fill:#1f77b4;stroke:#ffffff;stroke-width:0.75;" x="82.976878" xlink:href="#m8204eb60c1" y="227.805216"/>
     <use style="fill:#1f77b4;stroke:#ffffff;stroke-width:0.75;" x="93.586984" xlink:href="#m8204eb60c1" y="218.860749"/>
     <use style="fill:#1f77b4;stroke:#ffffff;stroke-width:0.75;" x="111.163407" xlink:href="#m8204eb60c1" y="209.916281"/>
     <use style="fill:#1f77b4;stroke:#ffffff;stroke-width:0.75;" x="132.722622" xlink:href="#m8204eb60c1" y="200.971814"/>
     <use style="fill:#1f77b4;stroke:#ffffff;stroke-width:0.75;" x="142.808665" xlink:href="#m8204eb60c1" y="192.027347"/>
     <use style="fill:#1f77b4;stroke:#ffffff;stroke-width:0.75;" x="147.327096" xlink:href="#m8204eb60c1" y="183.082879"/>
     <use style="fill:#1f77b4;stroke:#ffffff;stroke-width:0.75;" x="159.425206" xlink:href="#m8204eb60c1" y="174.138412"/>
     <use style="fill:#1f77b4;stroke:#ffffff;stroke-width:0.75;" x="173.34491" xlink:href="#m8204eb60c1" y="165.193945"/>
     <use style="fill:#1f77b4;stroke:#ffffff;stroke-width:0.75;" x="194.609922" xlink:href="#m8204eb60c1" y="156.249478"/>
     <use style="fill:#1f77b4;stroke:#ffffff;stroke-width:0.75;" x="201.459128" xlink:href="#m8204eb60c1" y="147.30501"/>
     <use style="fill:#1f77b4;stroke:#ffffff;stroke-width:0.75;" x="230.146869" xlink:href="#m8204eb60c1" y="138.360543"/>
     <use style="fill:#1f77b4;stroke:#ffffff;stroke-width:0.75;" x="236.869795" xlink:href="#m8204eb60c1" y="129.416076"/>
     <use style="fill:#1f77b4;stroke:#ffffff;stroke-width:0.75;" x="247.593103" xlink:href="#m8204eb60c1" y="120.471608"/>
     <use style="fill:#1f77b4;stroke:#ffffff;stroke-width:0.75;" x="276.225672" xlink:href="#m8204eb60c1" y="111.527141"/>
     <use style="fill:#1f77b4;stroke:#ffffff;stroke-width:0.75;" x="84.006965" xlink:href="#m8204eb60c1" y="226.016323"/>
     <use style="fill:#1f77b4;stroke:#ffffff;stroke-width:0.75;" x="98.539881" xlink:href="#m8204eb60c1" y="216.177408"/>
     <use style="fill:#1f77b4;stroke:#ffffff;stroke-width:0.75;" x="112.77709" xlink:href="#m8204eb60c1" y="206.338494"/>
     <use style="fill:#1f77b4;stroke:#ffffff;stroke-width:0.75;" x="126.924399" xlink:href="#m8204eb60c1" y="196.49958"/>
     <use style="fill:#1f77b4;stroke:#ffffff;stroke-width:0.75;" x="142.753342" xlink:href="#m8204eb60c1" y="186.660666"/>
     <use style="fill:#1f77b4;stroke:#ffffff;stroke-width:0.75;" x="160.637347" xlink:href="#m8204eb60c1" y="176.821752"/>
     <use style="fill:#1f77b4;stroke:#ffffff;stroke-width:0.75;" x="169.230876" xlink:href="#m8204eb60c1" y="166.982838"/>
     <use style="fill:#1f77b4;stroke:#ffffff;stroke-width:0.75;" x="184.869196" xlink:href="#m8204eb60c1" y="157.143924"/>
     <use style="fill:#1f77b4;stroke:#ffffff;stroke-width:0.75;" x="205.821814" xlink:href="#m8204eb60c1" y="147.30501"/>
     <use style="fill:#1f77b4;stroke:#ffffff;stroke-width:0.75;" x="214.144441" xlink:href="#m8204eb60c1" y="137.466096"/>
     <use style="fill:#1f77b4;stroke:#ffffff;stroke-width:0.75;" x="230.216023" xlink:href="#m8204eb60c1" y="127.627182"/>
     <use style="fill:#1f77b4;stroke:#ffffff;stroke-width:0.75;" x="247.015821" xlink:href="#m8204eb60c1" y="117.788268"/>
     <use style="fill:#1f77b4;stroke:#ffffff;stroke-width:0.75;" x="274.430687" xlink:href="#m8204eb60c1" y="107.949354"/>
     <use style="fill:#1f77b4;stroke:#ffffff;stroke-width:0.75;" x="289.975198" xlink:href="#m8204eb60c1" y="98.11044"/>
     <use style="fill:#1f77b4;stroke:#ffffff;stroke-width:0.75;" x="85.225871" xlink:href="#m8204eb60c1" y="224.227429"/>
     <use style="fill:#1f77b4;stroke:#ffffff;stroke-width:0.75;" x="101.636756" xlink:href="#m8204eb60c1" y="213.494068"/>
     <use style="fill:#1f77b4;stroke:#ffffff;stroke-width:0.75;" x="122.394692" xlink:href="#m8204eb60c1" y="202.760708"/>
     <use style="fill:#1f77b4;stroke:#ffffff;stroke-width:0.75;" x="131.61812" xlink:href="#m8204eb60c1" y="192.027347"/>
     <use style="fill:#1f77b4;stroke:#ffffff;stroke-width:0.75;" x="161.271605" xlink:href="#m8204eb60c1" y="181.293986"/>
     <use style="fill:#1f77b4;stroke:#ffffff;stroke-width:0.75;" x="163.240827" xlink:href="#m8204eb60c1" y="170.560625"/>
     <use style="fill:#1f77b4;stroke:#ffffff;stroke-width:0.75;" x="177.097241" xlink:href="#m8204eb60c1" y="159.827265"/>
     <use style="fill:#1f77b4;stroke:#ffffff;stroke-width:0.75;" x="197.697326" xlink:href="#m8204eb60c1" y="149.093904"/>
     <use style="fill:#1f77b4;stroke:#ffffff;stroke-width:0.75;" x="214.935197" xlink:href="#m8204eb60c1" y="138.360543"/>
     <use style="fill:#1f77b4;stroke:#ffffff;stroke-width:0.75;" x="227.84977" xlink:href="#m8204eb60c1" y="127.627182"/>
     <use style="fill:#1f77b4;stroke:#ffffff;stroke-width:0.75;" x="244.300793" xlink:href="#m8204eb60c1" y="116.893821"/>
     <use style="fill:#1f77b4;stroke:#ffffff;stroke-width:0.75;" x="259.876875" xlink:href="#m8204eb60c1" y="106.160461"/>
     <use style="fill:#1f77b4;stroke:#ffffff;stroke-width:0.75;" x="287.003099" xlink:href="#m8204eb60c1" y="95.4271"/>
     <use style="fill:#1f77b4;stroke:#ffffff;stroke-width:0.75;" x="301.149507" xlink:href="#m8204eb60c1" y="84.693739"/>
     <use style="fill:#1f77b4;stroke:#ffffff;stroke-width:0.75;" x="91.064835" xlink:href="#m8204eb60c1" y="222.438536"/>
     <use style="fill:#1f77b4;stroke:#ffffff;stroke-width:0.75;" x="101.381189" xlink:href="#m8204eb60c1" y="210.810728"/>
     <use style="fill:#1f77b4;stroke:#ffffff;stroke-width:0.75;" x="117.895804" xlink:href="#m8204eb60c1" y="199.182921"/>
     <use style="fill:#1f77b4;stroke:#ffffff;stroke-width:0.75;" x="137.975434" xlink:href="#m8204eb60c1" y="187.555113"/>
     <use style="fill:#1f77b4;stroke:#ffffff;stroke-width:0.75;" x="153.642918" xlink:href="#m8204eb60c1" y="175.927306"/>
     <use style="fill:#1f77b4;stroke:#ffffff;stroke-width:0.75;" x="169.33611" xlink:href="#m8204eb60c1" y="164.299498"/>
     <use style="fill:#1f77b4;stroke:#ffffff;stroke-width:0.75;" x="191.907672" xlink:href="#m8204eb60c1" y="152.671691"/>
     <use style="fill:#1f77b4;stroke:#ffffff;stroke-width:0.75;" x="205.577822" xlink:href="#m8204eb60c1" y="141.043883"/>
     <use style="fill:#1f77b4;stroke:#ffffff;stroke-width:0.75;" x="228.452608" xlink:href="#m8204eb60c1" y="129.416076"/>
     <use style="fill:#1f77b4;stroke:#ffffff;stroke-width:0.75;" x="246.002572" xlink:href="#m8204eb60c1" y="117.788268"/>
     <use style="fill:#1f77b4;stroke:#ffffff;stroke-width:0.75;" x="265.636161" xlink:href="#m8204eb60c1" y="106.160461"/>
     <use style="fill:#1f77b4;stroke:#ffffff;stroke-width:0.75;" x="283.510846" xlink:href="#m8204eb60c1" y="94.532653"/>
     <use style="fill:#1f77b4;stroke:#ffffff;stroke-width:0.75;" x="298.405916" xlink:href="#m8204eb60c1" y="82.904846"/>
     <use style="fill:#1f77b4;stroke:#ffffff;stroke-width:0.75;" x="319.236162" xlink:href="#m8204eb60c1" y="71.277038"/>
     <use style="fill:#1f77b4;stroke:#ffffff;stroke-width:0.75;" x="87.372036" xlink:href="#m8204eb60c1" y="220.649642"/>
     <use style="fill:#1f77b4;stroke:#ffffff;stroke-width:0.75;" x="103.977603" xlink:href="#m8204eb60c1" y="208.127388"/>
     <use style="fill:#1f77b4;stroke:#ffffff;stroke-width:0.75;" x="123.917874" xlink:href="#m8204eb60c1" y="195.605134"/>
     <use style="fill:#1f77b4;stroke:#ffffff;stroke-width:0.75;" x="142.301138" xlink:href="#m8204eb60c1" y="183.082879"/>
     <use style="fill:#1f77b4;stroke:#ffffff;stroke-width:0.75;" x="163.965135" xlink:href="#m8204eb60c1" y="170.560625"/>
     <use style="fill:#1f77b4;stroke:#ffffff;stroke-width:0.75;" x="175.956508" xlink:href="#m8204eb60c1" y="158.038371"/>
     <use style="fill:#1f77b4;stroke:#ffffff;stroke-width:0.75;" x="194.091571" xlink:href="#m8204eb60c1" y="145.516117"/>
     <use style="fill:#1f77b4;stroke:#ffffff;stroke-width:0.75;" x="210.497344" xlink:href="#m8204eb60c1" y="132.993863"/>
     <use style="fill:#1f77b4;stroke:#ffffff;stroke-width:0.75;" x="236.512001" xlink:href="#m8204eb60c1" y="120.471608"/>
     <use style="fill:#1f77b4;stroke:#ffffff;stroke-width:0.75;" x="254.607676" xlink:href="#m8204eb60c1" y="107.949354"/>
     <use style="fill:#1f77b4;stroke:#ffffff;stroke-width:0.75;" x="281.183679" xlink:href="#m8204eb60c1" y="95.4271"/>
     <use style="fill:#1f77b4;stroke:#ffffff;stroke-width:0.75;" x="296.720674" xlink:href="#m8204eb60c1" y="82.904846"/>
     <use style="fill:#1f77b4;stroke:#ffffff;stroke-width:0.75;" x="320.972517" xlink:href="#m8204eb60c1" y="70.382592"/>
     <use style="fill:#1f77b4;stroke:#ffffff;stroke-width:0.75;" x="360.762858" xlink:href="#m8204eb60c1" y="57.860337"/>
     <use style="fill:#1f77b4;stroke:#ffffff;stroke-width:0.75;" x="91.572211" xlink:href="#m8204eb60c1" y="218.860749"/>
     <use style="fill:#1f77b4;stroke:#ffffff;stroke-width:0.75;" x="107.013594" xlink:href="#m8204eb60c1" y="205.444048"/>
     <use style="fill:#1f77b4;stroke:#ffffff;stroke-width:0.75;" x="126.047502" xlink:href="#m8204eb60c1" y="192.027347"/>
     <use style="fill:#1f77b4;stroke:#ffffff;stroke-width:0.75;" x="147.257943" xlink:href="#m8204eb60c1" y="178.610646"/>
     <use style="fill:#1f77b4;stroke:#ffffff;stroke-width:0.75;" x="169.959544" xlink:href="#m8204eb60c1" y="165.193945"/>
     <use style="fill:#1f77b4;stroke:#ffffff;stroke-width:0.75;" x="184.791774" xlink:href="#m8204eb60c1" y="151.777244"/>
     <use style="fill:#1f77b4;stroke:#ffffff;stroke-width:0.75;" x="204.812924" xlink:href="#m8204eb60c1" y="138.360543"/>
     <use style="fill:#1f77b4;stroke:#ffffff;stroke-width:0.75;" x="225.68346" xlink:href="#m8204eb60c1" y="124.943842"/>
     <use style="fill:#1f77b4;stroke:#ffffff;stroke-width:0.75;" x="247.698337" xlink:href="#m8204eb60c1" y="111.527141"/>
     <use style="fill:#1f77b4;stroke:#ffffff;stroke-width:0.75;" x="272.417718" xlink:href="#m8204eb60c1" y="98.11044"/>
     <use style="fill:#1f77b4;stroke:#ffffff;stroke-width:0.75;" x="297.279916" xlink:href="#m8204eb60c1" y="84.693739"/>
     <use style="fill:#1f77b4;stroke:#ffffff;stroke-width:0.75;" x="313.249872" xlink:href="#m8204eb60c1" y="71.277038"/>
     <use style="fill:#1f77b4;stroke:#ffffff;stroke-width:0.75;" x="342.358998" xlink:href="#m8204eb60c1" y="57.860337"/>
     <use style="fill:#1f77b4;stroke:#ffffff;stroke-width:0.75;" x="373.581818" xlink:href="#m8204eb60c1" y="44.443636"/>
    </g>
   </g>
   <g id="matplotlib.axis_1">
    <g id="xtick_1">
     <g id="line2d_1">
      <defs>
       <path d="M 0 0 
L 0 3.5 
" id="m9a8ba46f2e" style="stroke:#000000;stroke-width:0.8;"/>
      </defs>
      <g>
       <use style="stroke:#000000;stroke-width:0.8;" x="66.275549" xlink:href="#m9a8ba46f2e" y="252"/>
      </g>
     </g>
     <g id="text_1">
      <!-- 0 -->
      <defs>
       <path d="M 31.78125 66.40625 
Q 24.171875 66.40625 20.328125 58.90625 
Q 16.5 51.421875 16.5 36.375 
Q 16.5 21.390625 20.328125 13.890625 
Q 24.171875 6.390625 31.78125 6.390625 
Q 39.453125 6.390625 43.28125 13.890625 
Q 47.125 21.390625 47.125 36.375 
Q 47.125 51.421875 43.28125 58.90625 
Q 39.453125 66.40625 31.78125 66.40625 
z
M 31.78125 74.21875 
Q 44.046875 74.21875 50.515625 64.515625 
Q 56.984375 54.828125 56.984375 36.375 
Q 56.984375 17.96875 50.515625 8.265625 
Q 44.046875 -1.421875 31.78125 -1.421875 
Q 19.53125 -1.421875 13.0625 8.265625 
Q 6.59375 17.96875 6.59375 36.375 
Q 6.59375 54.828125 13.0625 64.515625 
Q 19.53125 74.21875 31.78125 74.21875 
z
" id="DejaVuSans-48"/>
      </defs>
      <g transform="translate(63.094299 266.598437)scale(0.1 -0.1)">
       <use xlink:href="#DejaVuSans-48"/>
      </g>
     </g>
    </g>
    <g id="xtick_2">
     <g id="line2d_2">
      <g>
       <use style="stroke:#000000;stroke-width:0.8;" x="103.85899" xlink:href="#m9a8ba46f2e" y="252"/>
      </g>
     </g>
     <g id="text_2">
      <!-- 250 -->
      <defs>
       <path d="M 19.1875 8.296875 
L 53.609375 8.296875 
L 53.609375 0 
L 7.328125 0 
L 7.328125 8.296875 
Q 12.9375 14.109375 22.625 23.890625 
Q 32.328125 33.6875 34.8125 36.53125 
Q 39.546875 41.84375 41.421875 45.53125 
Q 43.3125 49.21875 43.3125 52.78125 
Q 43.3125 58.59375 39.234375 62.25 
Q 35.15625 65.921875 28.609375 65.921875 
Q 23.96875 65.921875 18.8125 64.3125 
Q 13.671875 62.703125 7.8125 59.421875 
L 7.8125 69.390625 
Q 13.765625 71.78125 18.9375 73 
Q 24.125 74.21875 28.421875 74.21875 
Q 39.75 74.21875 46.484375 68.546875 
Q 53.21875 62.890625 53.21875 53.421875 
Q 53.21875 48.921875 51.53125 44.890625 
Q 49.859375 40.875 45.40625 35.40625 
Q 44.1875 33.984375 37.640625 27.21875 
Q 31.109375 20.453125 19.1875 8.296875 
z
" id="DejaVuSans-50"/>
       <path d="M 10.796875 72.90625 
L 49.515625 72.90625 
L 49.515625 64.59375 
L 19.828125 64.59375 
L 19.828125 46.734375 
Q 21.96875 47.46875 24.109375 47.828125 
Q 26.265625 48.1875 28.421875 48.1875 
Q 40.625 48.1875 47.75 41.5 
Q 54.890625 34.8125 54.890625 23.390625 
Q 54.890625 11.625 47.5625 5.09375 
Q 40.234375 -1.421875 26.90625 -1.421875 
Q 22.3125 -1.421875 17.546875 -0.640625 
Q 12.796875 0.140625 7.71875 1.703125 
L 7.71875 11.625 
Q 12.109375 9.234375 16.796875 8.0625 
Q 21.484375 6.890625 26.703125 6.890625 
Q 35.15625 6.890625 40.078125 11.328125 
Q 45.015625 15.765625 45.015625 23.390625 
Q 45.015625 31 40.078125 35.4375 
Q 35.15625 39.890625 26.703125 39.890625 
Q 22.75 39.890625 18.8125 39.015625 
Q 14.890625 38.140625 10.796875 36.28125 
z
" id="DejaVuSans-53"/>
      </defs>
      <g transform="translate(94.31524 266.598437)scale(0.1 -0.1)">
       <use xlink:href="#DejaVuSans-50"/>
       <use x="63.623047" xlink:href="#DejaVuSans-53"/>
       <use x="127.246094" xlink:href="#DejaVuSans-48"/>
      </g>
     </g>
    </g>
    <g id="xtick_3">
     <g id="line2d_3">
      <g>
       <use style="stroke:#000000;stroke-width:0.8;" x="141.442431" xlink:href="#m9a8ba46f2e" y="252"/>
      </g>
     </g>
     <g id="text_3">
      <!-- 500 -->
      <g transform="translate(131.898681 266.598437)scale(0.1 -0.1)">
       <use xlink:href="#DejaVuSans-53"/>
       <use x="63.623047" xlink:href="#DejaVuSans-48"/>
       <use x="127.246094" xlink:href="#DejaVuSans-48"/>
      </g>
     </g>
    </g>
    <g id="xtick_4">
     <g id="line2d_4">
      <g>
       <use style="stroke:#000000;stroke-width:0.8;" x="179.025873" xlink:href="#m9a8ba46f2e" y="252"/>
      </g>
     </g>
     <g id="text_4">
      <!-- 750 -->
      <defs>
       <path d="M 8.203125 72.90625 
L 55.078125 72.90625 
L 55.078125 68.703125 
L 28.609375 0 
L 18.3125 0 
L 43.21875 64.59375 
L 8.203125 64.59375 
z
" id="DejaVuSans-55"/>
      </defs>
      <g transform="translate(169.482123 266.598437)scale(0.1 -0.1)">
       <use xlink:href="#DejaVuSans-55"/>
       <use x="63.623047" xlink:href="#DejaVuSans-53"/>
       <use x="127.246094" xlink:href="#DejaVuSans-48"/>
      </g>
     </g>
    </g>
    <g id="xtick_5">
     <g id="line2d_5">
      <g>
       <use style="stroke:#000000;stroke-width:0.8;" x="216.609314" xlink:href="#m9a8ba46f2e" y="252"/>
      </g>
     </g>
     <g id="text_5">
      <!-- 1000 -->
      <defs>
       <path d="M 12.40625 8.296875 
L 28.515625 8.296875 
L 28.515625 63.921875 
L 10.984375 60.40625 
L 10.984375 69.390625 
L 28.421875 72.90625 
L 38.28125 72.90625 
L 38.28125 8.296875 
L 54.390625 8.296875 
L 54.390625 0 
L 12.40625 0 
z
" id="DejaVuSans-49"/>
      </defs>
      <g transform="translate(203.884314 266.598437)scale(0.1 -0.1)">
       <use xlink:href="#DejaVuSans-49"/>
       <use x="63.623047" xlink:href="#DejaVuSans-48"/>
       <use x="127.246094" xlink:href="#DejaVuSans-48"/>
       <use x="190.869141" xlink:href="#DejaVuSans-48"/>
      </g>
     </g>
    </g>
    <g id="xtick_6">
     <g id="line2d_6">
      <g>
       <use style="stroke:#000000;stroke-width:0.8;" x="254.192755" xlink:href="#m9a8ba46f2e" y="252"/>
      </g>
     </g>
     <g id="text_6">
      <!-- 1250 -->
      <g transform="translate(241.467755 266.598437)scale(0.1 -0.1)">
       <use xlink:href="#DejaVuSans-49"/>
       <use x="63.623047" xlink:href="#DejaVuSans-50"/>
       <use x="127.246094" xlink:href="#DejaVuSans-53"/>
       <use x="190.869141" xlink:href="#DejaVuSans-48"/>
      </g>
     </g>
    </g>
    <g id="xtick_7">
     <g id="line2d_7">
      <g>
       <use style="stroke:#000000;stroke-width:0.8;" x="291.776197" xlink:href="#m9a8ba46f2e" y="252"/>
      </g>
     </g>
     <g id="text_7">
      <!-- 1500 -->
      <g transform="translate(279.051197 266.598437)scale(0.1 -0.1)">
       <use xlink:href="#DejaVuSans-49"/>
       <use x="63.623047" xlink:href="#DejaVuSans-53"/>
       <use x="127.246094" xlink:href="#DejaVuSans-48"/>
       <use x="190.869141" xlink:href="#DejaVuSans-48"/>
      </g>
     </g>
    </g>
    <g id="xtick_8">
     <g id="line2d_8">
      <g>
       <use style="stroke:#000000;stroke-width:0.8;" x="329.359638" xlink:href="#m9a8ba46f2e" y="252"/>
      </g>
     </g>
     <g id="text_8">
      <!-- 1750 -->
      <g transform="translate(316.634638 266.598437)scale(0.1 -0.1)">
       <use xlink:href="#DejaVuSans-49"/>
       <use x="63.623047" xlink:href="#DejaVuSans-55"/>
       <use x="127.246094" xlink:href="#DejaVuSans-53"/>
       <use x="190.869141" xlink:href="#DejaVuSans-48"/>
      </g>
     </g>
    </g>
    <g id="xtick_9">
     <g id="line2d_9">
      <g>
       <use style="stroke:#000000;stroke-width:0.8;" x="366.943079" xlink:href="#m9a8ba46f2e" y="252"/>
      </g>
     </g>
     <g id="text_9">
      <!-- 2000 -->
      <g transform="translate(354.218079 266.598437)scale(0.1 -0.1)">
       <use xlink:href="#DejaVuSans-50"/>
       <use x="63.623047" xlink:href="#DejaVuSans-48"/>
       <use x="127.246094" xlink:href="#DejaVuSans-48"/>
       <use x="190.869141" xlink:href="#DejaVuSans-48"/>
      </g>
     </g>
    </g>
    <g id="text_10">
     <!-- tiempo -->
     <defs>
      <path d="M 18.3125 70.21875 
L 18.3125 54.6875 
L 36.8125 54.6875 
L 36.8125 47.703125 
L 18.3125 47.703125 
L 18.3125 18.015625 
Q 18.3125 11.328125 20.140625 9.421875 
Q 21.96875 7.515625 27.59375 7.515625 
L 36.8125 7.515625 
L 36.8125 0 
L 27.59375 0 
Q 17.1875 0 13.234375 3.875 
Q 9.28125 7.765625 9.28125 18.015625 
L 9.28125 47.703125 
L 2.6875 47.703125 
L 2.6875 54.6875 
L 9.28125 54.6875 
L 9.28125 70.21875 
z
" id="DejaVuSans-116"/>
      <path d="M 9.421875 54.6875 
L 18.40625 54.6875 
L 18.40625 0 
L 9.421875 0 
z
M 9.421875 75.984375 
L 18.40625 75.984375 
L 18.40625 64.59375 
L 9.421875 64.59375 
z
" id="DejaVuSans-105"/>
      <path d="M 56.203125 29.59375 
L 56.203125 25.203125 
L 14.890625 25.203125 
Q 15.484375 15.921875 20.484375 11.0625 
Q 25.484375 6.203125 34.421875 6.203125 
Q 39.59375 6.203125 44.453125 7.46875 
Q 49.3125 8.734375 54.109375 11.28125 
L 54.109375 2.78125 
Q 49.265625 0.734375 44.1875 -0.34375 
Q 39.109375 -1.421875 33.890625 -1.421875 
Q 20.796875 -1.421875 13.15625 6.1875 
Q 5.515625 13.8125 5.515625 26.8125 
Q 5.515625 40.234375 12.765625 48.109375 
Q 20.015625 56 32.328125 56 
Q 43.359375 56 49.78125 48.890625 
Q 56.203125 41.796875 56.203125 29.59375 
z
M 47.21875 32.234375 
Q 47.125 39.59375 43.09375 43.984375 
Q 39.0625 48.390625 32.421875 48.390625 
Q 24.90625 48.390625 20.390625 44.140625 
Q 15.875 39.890625 15.1875 32.171875 
z
" id="DejaVuSans-101"/>
      <path d="M 52 44.1875 
Q 55.375 50.25 60.0625 53.125 
Q 64.75 56 71.09375 56 
Q 79.640625 56 84.28125 50.015625 
Q 88.921875 44.046875 88.921875 33.015625 
L 88.921875 0 
L 79.890625 0 
L 79.890625 32.71875 
Q 79.890625 40.578125 77.09375 44.375 
Q 74.3125 48.1875 68.609375 48.1875 
Q 61.625 48.1875 57.5625 43.546875 
Q 53.515625 38.921875 53.515625 30.90625 
L 53.515625 0 
L 44.484375 0 
L 44.484375 32.71875 
Q 44.484375 40.625 41.703125 44.40625 
Q 38.921875 48.1875 33.109375 48.1875 
Q 26.21875 48.1875 22.15625 43.53125 
Q 18.109375 38.875 18.109375 30.90625 
L 18.109375 0 
L 9.078125 0 
L 9.078125 54.6875 
L 18.109375 54.6875 
L 18.109375 46.1875 
Q 21.1875 51.21875 25.484375 53.609375 
Q 29.78125 56 35.6875 56 
Q 41.65625 56 45.828125 52.96875 
Q 50 49.953125 52 44.1875 
z
" id="DejaVuSans-109"/>
      <path d="M 18.109375 8.203125 
L 18.109375 -20.796875 
L 9.078125 -20.796875 
L 9.078125 54.6875 
L 18.109375 54.6875 
L 18.109375 46.390625 
Q 20.953125 51.265625 25.265625 53.625 
Q 29.59375 56 35.59375 56 
Q 45.5625 56 51.78125 48.09375 
Q 58.015625 40.1875 58.015625 27.296875 
Q 58.015625 14.40625 51.78125 6.484375 
Q 45.5625 -1.421875 35.59375 -1.421875 
Q 29.59375 -1.421875 25.265625 0.953125 
Q 20.953125 3.328125 18.109375 8.203125 
z
M 48.6875 27.296875 
Q 48.6875 37.203125 44.609375 42.84375 
Q 40.53125 48.484375 33.40625 48.484375 
Q 26.265625 48.484375 22.1875 42.84375 
Q 18.109375 37.203125 18.109375 27.296875 
Q 18.109375 17.390625 22.1875 11.75 
Q 26.265625 6.109375 33.40625 6.109375 
Q 40.53125 6.109375 44.609375 11.75 
Q 48.6875 17.390625 48.6875 27.296875 
z
" id="DejaVuSans-112"/>
      <path d="M 30.609375 48.390625 
Q 23.390625 48.390625 19.1875 42.75 
Q 14.984375 37.109375 14.984375 27.296875 
Q 14.984375 17.484375 19.15625 11.84375 
Q 23.34375 6.203125 30.609375 6.203125 
Q 37.796875 6.203125 41.984375 11.859375 
Q 46.1875 17.53125 46.1875 27.296875 
Q 46.1875 37.015625 41.984375 42.703125 
Q 37.796875 48.390625 30.609375 48.390625 
z
M 30.609375 56 
Q 42.328125 56 49.015625 48.375 
Q 55.71875 40.765625 55.71875 27.296875 
Q 55.71875 13.875 49.015625 6.21875 
Q 42.328125 -1.421875 30.609375 -1.421875 
Q 18.84375 -1.421875 12.171875 6.21875 
Q 5.515625 13.875 5.515625 27.296875 
Q 5.515625 40.765625 12.171875 48.375 
Q 18.84375 56 30.609375 56 
z
" id="DejaVuSans-111"/>
     </defs>
     <g transform="translate(203.870313 280.276563)scale(0.1 -0.1)">
      <use xlink:href="#DejaVuSans-116"/>
      <use x="39.208984" xlink:href="#DejaVuSans-105"/>
      <use x="66.992188" xlink:href="#DejaVuSans-101"/>
      <use x="128.515625" xlink:href="#DejaVuSans-109"/>
      <use x="225.927734" xlink:href="#DejaVuSans-112"/>
      <use x="289.404297" xlink:href="#DejaVuSans-111"/>
     </g>
    </g>
   </g>
   <g id="matplotlib.axis_2">
    <g id="ytick_1">
     <g id="line2d_10">
      <defs>
       <path d="M 0 0 
L -3.5 0 
" id="mff48bafef7" style="stroke:#000000;stroke-width:0.8;"/>
      </defs>
      <g>
       <use style="stroke:#000000;stroke-width:0.8;" x="54" xlink:href="#mff48bafef7" y="245.694151"/>
      </g>
     </g>
     <g id="text_11">
      <!-- 0 -->
      <g transform="translate(40.6375 249.493369)scale(0.1 -0.1)">
       <use xlink:href="#DejaVuSans-48"/>
      </g>
     </g>
    </g>
    <g id="ytick_2">
     <g id="line2d_11">
      <g>
       <use style="stroke:#000000;stroke-width:0.8;" x="54" xlink:href="#mff48bafef7" y="209.916281"/>
      </g>
     </g>
     <g id="text_12">
      <!-- 1 -->
      <g transform="translate(40.6375 213.7155)scale(0.1 -0.1)">
       <use xlink:href="#DejaVuSans-49"/>
      </g>
     </g>
    </g>
    <g id="ytick_3">
     <g id="line2d_12">
      <g>
       <use style="stroke:#000000;stroke-width:0.8;" x="54" xlink:href="#mff48bafef7" y="174.138412"/>
      </g>
     </g>
     <g id="text_13">
      <!-- 2 -->
      <g transform="translate(40.6375 177.937631)scale(0.1 -0.1)">
       <use xlink:href="#DejaVuSans-50"/>
      </g>
     </g>
    </g>
    <g id="ytick_4">
     <g id="line2d_13">
      <g>
       <use style="stroke:#000000;stroke-width:0.8;" x="54" xlink:href="#mff48bafef7" y="138.360543"/>
      </g>
     </g>
     <g id="text_14">
      <!-- 3 -->
      <defs>
       <path d="M 40.578125 39.3125 
Q 47.65625 37.796875 51.625 33 
Q 55.609375 28.21875 55.609375 21.1875 
Q 55.609375 10.40625 48.1875 4.484375 
Q 40.765625 -1.421875 27.09375 -1.421875 
Q 22.515625 -1.421875 17.65625 -0.515625 
Q 12.796875 0.390625 7.625 2.203125 
L 7.625 11.71875 
Q 11.71875 9.328125 16.59375 8.109375 
Q 21.484375 6.890625 26.8125 6.890625 
Q 36.078125 6.890625 40.9375 10.546875 
Q 45.796875 14.203125 45.796875 21.1875 
Q 45.796875 27.640625 41.28125 31.265625 
Q 36.765625 34.90625 28.71875 34.90625 
L 20.21875 34.90625 
L 20.21875 43.015625 
L 29.109375 43.015625 
Q 36.375 43.015625 40.234375 45.921875 
Q 44.09375 48.828125 44.09375 54.296875 
Q 44.09375 59.90625 40.109375 62.90625 
Q 36.140625 65.921875 28.71875 65.921875 
Q 24.65625 65.921875 20.015625 65.03125 
Q 15.375 64.15625 9.8125 62.3125 
L 9.8125 71.09375 
Q 15.4375 72.65625 20.34375 73.4375 
Q 25.25 74.21875 29.59375 74.21875 
Q 40.828125 74.21875 47.359375 69.109375 
Q 53.90625 64.015625 53.90625 55.328125 
Q 53.90625 49.265625 50.4375 45.09375 
Q 46.96875 40.921875 40.578125 39.3125 
z
" id="DejaVuSans-51"/>
      </defs>
      <g transform="translate(40.6375 142.159762)scale(0.1 -0.1)">
       <use xlink:href="#DejaVuSans-51"/>
      </g>
     </g>
    </g>
    <g id="ytick_5">
     <g id="line2d_14">
      <g>
       <use style="stroke:#000000;stroke-width:0.8;" x="54" xlink:href="#mff48bafef7" y="102.582674"/>
      </g>
     </g>
     <g id="text_15">
      <!-- 4 -->
      <defs>
       <path d="M 37.796875 64.3125 
L 12.890625 25.390625 
L 37.796875 25.390625 
z
M 35.203125 72.90625 
L 47.609375 72.90625 
L 47.609375 25.390625 
L 58.015625 25.390625 
L 58.015625 17.1875 
L 47.609375 17.1875 
L 47.609375 0 
L 37.796875 0 
L 37.796875 17.1875 
L 4.890625 17.1875 
L 4.890625 26.703125 
z
" id="DejaVuSans-52"/>
      </defs>
      <g transform="translate(40.6375 106.381893)scale(0.1 -0.1)">
       <use xlink:href="#DejaVuSans-52"/>
      </g>
     </g>
    </g>
    <g id="ytick_6">
     <g id="line2d_15">
      <g>
       <use style="stroke:#000000;stroke-width:0.8;" x="54" xlink:href="#mff48bafef7" y="66.804805"/>
      </g>
     </g>
     <g id="text_16">
      <!-- 5 -->
      <g transform="translate(40.6375 70.604023)scale(0.1 -0.1)">
       <use xlink:href="#DejaVuSans-53"/>
      </g>
     </g>
    </g>
    <g id="text_17">
     <!-- complejidad -->
     <defs>
      <path d="M 48.78125 52.59375 
L 48.78125 44.1875 
Q 44.96875 46.296875 41.140625 47.34375 
Q 37.3125 48.390625 33.40625 48.390625 
Q 24.65625 48.390625 19.8125 42.84375 
Q 14.984375 37.3125 14.984375 27.296875 
Q 14.984375 17.28125 19.8125 11.734375 
Q 24.65625 6.203125 33.40625 6.203125 
Q 37.3125 6.203125 41.140625 7.25 
Q 44.96875 8.296875 48.78125 10.40625 
L 48.78125 2.09375 
Q 45.015625 0.34375 40.984375 -0.53125 
Q 36.96875 -1.421875 32.421875 -1.421875 
Q 20.0625 -1.421875 12.78125 6.34375 
Q 5.515625 14.109375 5.515625 27.296875 
Q 5.515625 40.671875 12.859375 48.328125 
Q 20.21875 56 33.015625 56 
Q 37.15625 56 41.109375 55.140625 
Q 45.0625 54.296875 48.78125 52.59375 
z
" id="DejaVuSans-99"/>
      <path d="M 9.421875 75.984375 
L 18.40625 75.984375 
L 18.40625 0 
L 9.421875 0 
z
" id="DejaVuSans-108"/>
      <path d="M 9.421875 54.6875 
L 18.40625 54.6875 
L 18.40625 -0.984375 
Q 18.40625 -11.421875 14.421875 -16.109375 
Q 10.453125 -20.796875 1.609375 -20.796875 
L -1.8125 -20.796875 
L -1.8125 -13.1875 
L 0.59375 -13.1875 
Q 5.71875 -13.1875 7.5625 -10.8125 
Q 9.421875 -8.453125 9.421875 -0.984375 
z
M 9.421875 75.984375 
L 18.40625 75.984375 
L 18.40625 64.59375 
L 9.421875 64.59375 
z
" id="DejaVuSans-106"/>
      <path d="M 45.40625 46.390625 
L 45.40625 75.984375 
L 54.390625 75.984375 
L 54.390625 0 
L 45.40625 0 
L 45.40625 8.203125 
Q 42.578125 3.328125 38.25 0.953125 
Q 33.9375 -1.421875 27.875 -1.421875 
Q 17.96875 -1.421875 11.734375 6.484375 
Q 5.515625 14.40625 5.515625 27.296875 
Q 5.515625 40.1875 11.734375 48.09375 
Q 17.96875 56 27.875 56 
Q 33.9375 56 38.25 53.625 
Q 42.578125 51.265625 45.40625 46.390625 
z
M 14.796875 27.296875 
Q 14.796875 17.390625 18.875 11.75 
Q 22.953125 6.109375 30.078125 6.109375 
Q 37.203125 6.109375 41.296875 11.75 
Q 45.40625 17.390625 45.40625 27.296875 
Q 45.40625 37.203125 41.296875 42.84375 
Q 37.203125 48.484375 30.078125 48.484375 
Q 22.953125 48.484375 18.875 42.84375 
Q 14.796875 37.203125 14.796875 27.296875 
z
" id="DejaVuSans-100"/>
      <path d="M 34.28125 27.484375 
Q 23.390625 27.484375 19.1875 25 
Q 14.984375 22.515625 14.984375 16.5 
Q 14.984375 11.71875 18.140625 8.90625 
Q 21.296875 6.109375 26.703125 6.109375 
Q 34.1875 6.109375 38.703125 11.40625 
Q 43.21875 16.703125 43.21875 25.484375 
L 43.21875 27.484375 
z
M 52.203125 31.203125 
L 52.203125 0 
L 43.21875 0 
L 43.21875 8.296875 
Q 40.140625 3.328125 35.546875 0.953125 
Q 30.953125 -1.421875 24.3125 -1.421875 
Q 15.921875 -1.421875 10.953125 3.296875 
Q 6 8.015625 6 15.921875 
Q 6 25.140625 12.171875 29.828125 
Q 18.359375 34.515625 30.609375 34.515625 
L 43.21875 34.515625 
L 43.21875 35.40625 
Q 43.21875 41.609375 39.140625 45 
Q 35.0625 48.390625 27.6875 48.390625 
Q 23 48.390625 18.546875 47.265625 
Q 14.109375 46.140625 10.015625 43.890625 
L 10.015625 52.203125 
Q 14.9375 54.109375 19.578125 55.046875 
Q 24.21875 56 28.609375 56 
Q 40.484375 56 46.34375 49.84375 
Q 52.203125 43.703125 52.203125 31.203125 
z
" id="DejaVuSans-97"/>
     </defs>
     <g transform="translate(34.557812 173.789375)rotate(-90)scale(0.1 -0.1)">
      <use xlink:href="#DejaVuSans-99"/>
      <use x="54.980469" xlink:href="#DejaVuSans-111"/>
      <use x="116.162109" xlink:href="#DejaVuSans-109"/>
      <use x="213.574219" xlink:href="#DejaVuSans-112"/>
      <use x="277.050781" xlink:href="#DejaVuSans-108"/>
      <use x="304.833984" xlink:href="#DejaVuSans-101"/>
      <use x="366.357422" xlink:href="#DejaVuSans-106"/>
      <use x="394.140625" xlink:href="#DejaVuSans-105"/>
      <use x="421.923828" xlink:href="#DejaVuSans-100"/>
      <use x="485.400391" xlink:href="#DejaVuSans-97"/>
      <use x="546.679688" xlink:href="#DejaVuSans-100"/>
     </g>
    </g>
    <g id="text_18">
     <!-- 1e7 -->
     <g transform="translate(54 31.56)scale(0.1 -0.1)">
      <use xlink:href="#DejaVuSans-49"/>
      <use x="63.623047" xlink:href="#DejaVuSans-101"/>
      <use x="125.146484" xlink:href="#DejaVuSans-55"/>
     </g>
    </g>
   </g>
   <g id="patch_3">
    <path d="M 54 252 
L 54 34.56 
" style="fill:none;stroke:#000000;stroke-linecap:square;stroke-linejoin:miter;stroke-width:0.8;"/>
   </g>
   <g id="patch_4">
    <path d="M 388.8 252 
L 388.8 34.56 
" style="fill:none;stroke:#000000;stroke-linecap:square;stroke-linejoin:miter;stroke-width:0.8;"/>
   </g>
   <g id="patch_5">
    <path d="M 54 252 
L 388.8 252 
" style="fill:none;stroke:#000000;stroke-linecap:square;stroke-linejoin:miter;stroke-width:0.8;"/>
   </g>
   <g id="patch_6">
    <path d="M 54 34.56 
L 388.8 34.56 
" style="fill:none;stroke:#000000;stroke-linecap:square;stroke-linejoin:miter;stroke-width:0.8;"/>
   </g>
  </g>
 </g>
 <defs>
  <clipPath id="p117a9a10f8">
   <rect height="217.44" width="334.8" x="54" y="34.56"/>
  </clipPath>
 </defs>
</svg>
