<?xml version="1.0" encoding="utf-8" standalone="no"?>
<!DOCTYPE svg PUBLIC "-//W3C//DTD SVG 1.1//EN"
  "http://www.w3.org/Graphics/SVG/1.1/DTD/svg11.dtd">
<!-- Created with matplotlib (https://matplotlib.org/) -->
<svg height="288pt" version="1.1" viewBox="0 0 432 288" width="432pt" xmlns="http://www.w3.org/2000/svg" xmlns:xlink="http://www.w3.org/1999/xlink">
 <defs>
  <style type="text/css">
*{stroke-linecap:butt;stroke-linejoin:round;}
  </style>
 </defs>
 <g id="figure_1">
  <g id="patch_1">
   <path d="M 0 288 
L 432 288 
L 432 0 
L 0 0 
z
" style="fill:#ffffff;"/>
  </g>
  <g id="axes_1">
   <g id="patch_2">
    <path d="M 54 252 
L 388.8 252 
L 388.8 34.56 
L 54 34.56 
z
" style="fill:#ffffff;"/>
   </g>
   <g id="PathCollection_1">
    <defs>
     <path d="M 0 3 
C 0.795609 3 1.55874 2.683901 2.12132 2.12132 
C 2.683901 1.55874 3 0.795609 3 0 
C 3 -0.795609 2.683901 -1.55874 2.12132 -2.12132 
C 1.55874 -2.683901 0.795609 -3 0 -3 
C -0.795609 -3 -1.55874 -2.683901 -2.12132 -2.12132 
C -2.683901 -1.55874 -3 -0.795609 -3 0 
C -3 0.795609 -2.683901 1.55874 -2.12132 2.12132 
C -1.55874 2.683901 -0.795609 3 0 3 
z
" id="m09a8dbfae7" style="stroke:#ffffff;stroke-width:0.75;"/>
    </defs>
    <g clip-path="url(#pd432da2c85)">
     <use style="fill:#1f77b4;stroke:#ffffff;stroke-width:0.75;" x="69.218182" xlink:href="#m09a8dbfae7" y="242.116359"/>
     <use style="fill:#1f77b4;stroke:#ffffff;stroke-width:0.75;" x="76.296406" xlink:href="#m09a8dbfae7" y="242.116358"/>
     <use style="fill:#1f77b4;stroke:#ffffff;stroke-width:0.75;" x="83.37463" xlink:href="#m09a8dbfae7" y="242.116359"/>
     <use style="fill:#1f77b4;stroke:#ffffff;stroke-width:0.75;" x="90.452854" xlink:href="#m09a8dbfae7" y="242.116357"/>
     <use style="fill:#1f77b4;stroke:#ffffff;stroke-width:0.75;" x="97.531078" xlink:href="#m09a8dbfae7" y="242.116358"/>
     <use style="fill:#1f77b4;stroke:#ffffff;stroke-width:0.75;" x="104.609302" xlink:href="#m09a8dbfae7" y="242.116356"/>
     <use style="fill:#1f77b4;stroke:#ffffff;stroke-width:0.75;" x="111.687526" xlink:href="#m09a8dbfae7" y="242.116351"/>
     <use style="fill:#1f77b4;stroke:#ffffff;stroke-width:0.75;" x="118.765751" xlink:href="#m09a8dbfae7" y="242.116346"/>
     <use style="fill:#1f77b4;stroke:#ffffff;stroke-width:0.75;" x="125.843975" xlink:href="#m09a8dbfae7" y="242.116347"/>
     <use style="fill:#1f77b4;stroke:#ffffff;stroke-width:0.75;" x="132.922199" xlink:href="#m09a8dbfae7" y="242.11634"/>
     <use style="fill:#1f77b4;stroke:#ffffff;stroke-width:0.75;" x="140.000423" xlink:href="#m09a8dbfae7" y="242.116332"/>
     <use style="fill:#1f77b4;stroke:#ffffff;stroke-width:0.75;" x="147.078647" xlink:href="#m09a8dbfae7" y="242.116319"/>
     <use style="fill:#1f77b4;stroke:#ffffff;stroke-width:0.75;" x="154.156871" xlink:href="#m09a8dbfae7" y="242.116296"/>
     <use style="fill:#1f77b4;stroke:#ffffff;stroke-width:0.75;" x="161.235095" xlink:href="#m09a8dbfae7" y="242.11626"/>
     <use style="fill:#1f77b4;stroke:#ffffff;stroke-width:0.75;" x="168.313319" xlink:href="#m09a8dbfae7" y="242.116202"/>
     <use style="fill:#1f77b4;stroke:#ffffff;stroke-width:0.75;" x="175.391543" xlink:href="#m09a8dbfae7" y="242.11611"/>
     <use style="fill:#1f77b4;stroke:#ffffff;stroke-width:0.75;" x="182.469767" xlink:href="#m09a8dbfae7" y="242.115951"/>
     <use style="fill:#1f77b4;stroke:#ffffff;stroke-width:0.75;" x="189.547992" xlink:href="#m09a8dbfae7" y="242.11571"/>
     <use style="fill:#1f77b4;stroke:#ffffff;stroke-width:0.75;" x="196.626216" xlink:href="#m09a8dbfae7" y="242.115158"/>
     <use style="fill:#1f77b4;stroke:#ffffff;stroke-width:0.75;" x="203.70444" xlink:href="#m09a8dbfae7" y="242.11486"/>
     <use style="fill:#1f77b4;stroke:#ffffff;stroke-width:0.75;" x="210.782664" xlink:href="#m09a8dbfae7" y="242.113746"/>
     <use style="fill:#1f77b4;stroke:#ffffff;stroke-width:0.75;" x="217.860888" xlink:href="#m09a8dbfae7" y="242.112145"/>
     <use style="fill:#1f77b4;stroke:#ffffff;stroke-width:0.75;" x="224.939112" xlink:href="#m09a8dbfae7" y="242.108553"/>
     <use style="fill:#1f77b4;stroke:#ffffff;stroke-width:0.75;" x="232.017336" xlink:href="#m09a8dbfae7" y="242.104435"/>
     <use style="fill:#1f77b4;stroke:#ffffff;stroke-width:0.75;" x="239.09556" xlink:href="#m09a8dbfae7" y="242.097127"/>
     <use style="fill:#1f77b4;stroke:#ffffff;stroke-width:0.75;" x="246.173784" xlink:href="#m09a8dbfae7" y="242.084196"/>
     <use style="fill:#1f77b4;stroke:#ffffff;stroke-width:0.75;" x="253.252008" xlink:href="#m09a8dbfae7" y="242.06748"/>
     <use style="fill:#1f77b4;stroke:#ffffff;stroke-width:0.75;" x="260.330233" xlink:href="#m09a8dbfae7" y="242.029802"/>
     <use style="fill:#1f77b4;stroke:#ffffff;stroke-width:0.75;" x="267.408457" xlink:href="#m09a8dbfae7" y="241.983286"/>
     <use style="fill:#1f77b4;stroke:#ffffff;stroke-width:0.75;" x="274.486681" xlink:href="#m09a8dbfae7" y="241.889853"/>
     <use style="fill:#1f77b4;stroke:#ffffff;stroke-width:0.75;" x="281.564905" xlink:href="#m09a8dbfae7" y="241.784136"/>
     <use style="fill:#1f77b4;stroke:#ffffff;stroke-width:0.75;" x="288.643129" xlink:href="#m09a8dbfae7" y="241.548327"/>
     <use style="fill:#1f77b4;stroke:#ffffff;stroke-width:0.75;" x="295.721353" xlink:href="#m09a8dbfae7" y="241.236599"/>
     <use style="fill:#1f77b4;stroke:#ffffff;stroke-width:0.75;" x="302.799577" xlink:href="#m09a8dbfae7" y="240.660596"/>
     <use style="fill:#1f77b4;stroke:#ffffff;stroke-width:0.75;" x="309.877801" xlink:href="#m09a8dbfae7" y="239.798116"/>
     <use style="fill:#1f77b4;stroke:#ffffff;stroke-width:0.75;" x="316.956025" xlink:href="#m09a8dbfae7" y="238.232597"/>
     <use style="fill:#1f77b4;stroke:#ffffff;stroke-width:0.75;" x="324.034249" xlink:href="#m09a8dbfae7" y="235.743274"/>
     <use style="fill:#1f77b4;stroke:#ffffff;stroke-width:0.75;" x="331.112474" xlink:href="#m09a8dbfae7" y="231.929706"/>
     <use style="fill:#1f77b4;stroke:#ffffff;stroke-width:0.75;" x="338.190698" xlink:href="#m09a8dbfae7" y="225.862888"/>
     <use style="fill:#1f77b4;stroke:#ffffff;stroke-width:0.75;" x="345.268922" xlink:href="#m09a8dbfae7" y="215.140929"/>
     <use style="fill:#1f77b4;stroke:#ffffff;stroke-width:0.75;" x="352.347146" xlink:href="#m09a8dbfae7" y="200.121209"/>
     <use style="fill:#1f77b4;stroke:#ffffff;stroke-width:0.75;" x="359.42537" xlink:href="#m09a8dbfae7" y="173.889624"/>
     <use style="fill:#1f77b4;stroke:#ffffff;stroke-width:0.75;" x="366.503594" xlink:href="#m09a8dbfae7" y="126.330785"/>
     <use style="fill:#1f77b4;stroke:#ffffff;stroke-width:0.75;" x="373.581818" xlink:href="#m09a8dbfae7" y="58.7076"/>
     <use style="fill:#1f77b4;stroke:#ffffff;stroke-width:0.75;" x="69.218182" xlink:href="#m09a8dbfae7" y="242.11636"/>
     <use style="fill:#1f77b4;stroke:#ffffff;stroke-width:0.75;" x="76.296406" xlink:href="#m09a8dbfae7" y="242.116359"/>
     <use style="fill:#1f77b4;stroke:#ffffff;stroke-width:0.75;" x="83.37463" xlink:href="#m09a8dbfae7" y="242.116359"/>
     <use style="fill:#1f77b4;stroke:#ffffff;stroke-width:0.75;" x="90.452854" xlink:href="#m09a8dbfae7" y="242.116357"/>
     <use style="fill:#1f77b4;stroke:#ffffff;stroke-width:0.75;" x="97.531078" xlink:href="#m09a8dbfae7" y="242.116356"/>
     <use style="fill:#1f77b4;stroke:#ffffff;stroke-width:0.75;" x="104.609302" xlink:href="#m09a8dbfae7" y="242.116357"/>
     <use style="fill:#1f77b4;stroke:#ffffff;stroke-width:0.75;" x="111.687526" xlink:href="#m09a8dbfae7" y="242.116354"/>
     <use style="fill:#1f77b4;stroke:#ffffff;stroke-width:0.75;" x="118.765751" xlink:href="#m09a8dbfae7" y="242.11635"/>
     <use style="fill:#1f77b4;stroke:#ffffff;stroke-width:0.75;" x="125.843975" xlink:href="#m09a8dbfae7" y="242.116346"/>
     <use style="fill:#1f77b4;stroke:#ffffff;stroke-width:0.75;" x="132.922199" xlink:href="#m09a8dbfae7" y="242.116346"/>
     <use style="fill:#1f77b4;stroke:#ffffff;stroke-width:0.75;" x="140.000423" xlink:href="#m09a8dbfae7" y="242.116334"/>
     <use style="fill:#1f77b4;stroke:#ffffff;stroke-width:0.75;" x="147.078647" xlink:href="#m09a8dbfae7" y="242.116329"/>
     <use style="fill:#1f77b4;stroke:#ffffff;stroke-width:0.75;" x="154.156871" xlink:href="#m09a8dbfae7" y="242.116307"/>
     <use style="fill:#1f77b4;stroke:#ffffff;stroke-width:0.75;" x="161.235095" xlink:href="#m09a8dbfae7" y="242.116285"/>
     <use style="fill:#1f77b4;stroke:#ffffff;stroke-width:0.75;" x="168.313319" xlink:href="#m09a8dbfae7" y="242.11624"/>
     <use style="fill:#1f77b4;stroke:#ffffff;stroke-width:0.75;" x="175.391543" xlink:href="#m09a8dbfae7" y="242.116211"/>
     <use style="fill:#1f77b4;stroke:#ffffff;stroke-width:0.75;" x="182.469767" xlink:href="#m09a8dbfae7" y="242.116063"/>
     <use style="fill:#1f77b4;stroke:#ffffff;stroke-width:0.75;" x="189.547992" xlink:href="#m09a8dbfae7" y="242.115879"/>
     <use style="fill:#1f77b4;stroke:#ffffff;stroke-width:0.75;" x="196.626216" xlink:href="#m09a8dbfae7" y="242.115657"/>
     <use style="fill:#1f77b4;stroke:#ffffff;stroke-width:0.75;" x="203.70444" xlink:href="#m09a8dbfae7" y="242.115198"/>
     <use style="fill:#1f77b4;stroke:#ffffff;stroke-width:0.75;" x="210.782664" xlink:href="#m09a8dbfae7" y="242.114922"/>
     <use style="fill:#1f77b4;stroke:#ffffff;stroke-width:0.75;" x="217.860888" xlink:href="#m09a8dbfae7" y="242.114172"/>
     <use style="fill:#1f77b4;stroke:#ffffff;stroke-width:0.75;" x="224.939112" xlink:href="#m09a8dbfae7" y="242.111473"/>
     <use style="fill:#1f77b4;stroke:#ffffff;stroke-width:0.75;" x="232.017336" xlink:href="#m09a8dbfae7" y="242.110287"/>
     <use style="fill:#1f77b4;stroke:#ffffff;stroke-width:0.75;" x="239.09556" xlink:href="#m09a8dbfae7" y="242.105183"/>
     <use style="fill:#1f77b4;stroke:#ffffff;stroke-width:0.75;" x="246.173784" xlink:href="#m09a8dbfae7" y="242.099715"/>
     <use style="fill:#1f77b4;stroke:#ffffff;stroke-width:0.75;" x="253.252008" xlink:href="#m09a8dbfae7" y="242.080804"/>
     <use style="fill:#1f77b4;stroke:#ffffff;stroke-width:0.75;" x="260.330233" xlink:href="#m09a8dbfae7" y="242.075151"/>
     <use style="fill:#1f77b4;stroke:#ffffff;stroke-width:0.75;" x="267.408457" xlink:href="#m09a8dbfae7" y="242.030154"/>
     <use style="fill:#1f77b4;stroke:#ffffff;stroke-width:0.75;" x="274.486681" xlink:href="#m09a8dbfae7" y="241.990237"/>
     <use style="fill:#1f77b4;stroke:#ffffff;stroke-width:0.75;" x="281.564905" xlink:href="#m09a8dbfae7" y="241.913951"/>
     <use style="fill:#1f77b4;stroke:#ffffff;stroke-width:0.75;" x="288.643129" xlink:href="#m09a8dbfae7" y="241.911708"/>
     <use style="fill:#1f77b4;stroke:#ffffff;stroke-width:0.75;" x="295.721353" xlink:href="#m09a8dbfae7" y="241.585467"/>
     <use style="fill:#1f77b4;stroke:#ffffff;stroke-width:0.75;" x="302.799577" xlink:href="#m09a8dbfae7" y="241.408715"/>
     <use style="fill:#1f77b4;stroke:#ffffff;stroke-width:0.75;" x="309.877801" xlink:href="#m09a8dbfae7" y="241.155864"/>
     <use style="fill:#1f77b4;stroke:#ffffff;stroke-width:0.75;" x="316.956025" xlink:href="#m09a8dbfae7" y="239.700141"/>
     <use style="fill:#1f77b4;stroke:#ffffff;stroke-width:0.75;" x="324.034249" xlink:href="#m09a8dbfae7" y="239.266994"/>
     <use style="fill:#1f77b4;stroke:#ffffff;stroke-width:0.75;" x="331.112474" xlink:href="#m09a8dbfae7" y="238.527094"/>
     <use style="fill:#1f77b4;stroke:#ffffff;stroke-width:0.75;" x="338.190698" xlink:href="#m09a8dbfae7" y="232.18718"/>
     <use style="fill:#1f77b4;stroke:#ffffff;stroke-width:0.75;" x="345.268922" xlink:href="#m09a8dbfae7" y="227.07019"/>
     <use style="fill:#1f77b4;stroke:#ffffff;stroke-width:0.75;" x="352.347146" xlink:href="#m09a8dbfae7" y="214.605113"/>
     <use style="fill:#1f77b4;stroke:#ffffff;stroke-width:0.75;" x="359.42537" xlink:href="#m09a8dbfae7" y="216.232271"/>
     <use style="fill:#1f77b4;stroke:#ffffff;stroke-width:0.75;" x="366.503594" xlink:href="#m09a8dbfae7" y="195.574451"/>
     <use style="fill:#1f77b4;stroke:#ffffff;stroke-width:0.75;" x="373.581818" xlink:href="#m09a8dbfae7" y="171.94348"/>
     <use style="fill:#1f77b4;stroke:#ffffff;stroke-width:0.75;" x="69.218182" xlink:href="#m09a8dbfae7" y="242.11636"/>
     <use style="fill:#1f77b4;stroke:#ffffff;stroke-width:0.75;" x="76.296406" xlink:href="#m09a8dbfae7" y="242.116359"/>
     <use style="fill:#1f77b4;stroke:#ffffff;stroke-width:0.75;" x="83.37463" xlink:href="#m09a8dbfae7" y="242.116359"/>
     <use style="fill:#1f77b4;stroke:#ffffff;stroke-width:0.75;" x="90.452854" xlink:href="#m09a8dbfae7" y="242.11636"/>
     <use style="fill:#1f77b4;stroke:#ffffff;stroke-width:0.75;" x="97.531078" xlink:href="#m09a8dbfae7" y="242.116359"/>
     <use style="fill:#1f77b4;stroke:#ffffff;stroke-width:0.75;" x="104.609302" xlink:href="#m09a8dbfae7" y="242.116358"/>
     <use style="fill:#1f77b4;stroke:#ffffff;stroke-width:0.75;" x="111.687526" xlink:href="#m09a8dbfae7" y="242.116355"/>
     <use style="fill:#1f77b4;stroke:#ffffff;stroke-width:0.75;" x="118.765751" xlink:href="#m09a8dbfae7" y="242.116356"/>
     <use style="fill:#1f77b4;stroke:#ffffff;stroke-width:0.75;" x="125.843975" xlink:href="#m09a8dbfae7" y="242.116356"/>
     <use style="fill:#1f77b4;stroke:#ffffff;stroke-width:0.75;" x="132.922199" xlink:href="#m09a8dbfae7" y="242.116354"/>
     <use style="fill:#1f77b4;stroke:#ffffff;stroke-width:0.75;" x="140.000423" xlink:href="#m09a8dbfae7" y="242.116354"/>
     <use style="fill:#1f77b4;stroke:#ffffff;stroke-width:0.75;" x="147.078647" xlink:href="#m09a8dbfae7" y="242.116352"/>
     <use style="fill:#1f77b4;stroke:#ffffff;stroke-width:0.75;" x="154.156871" xlink:href="#m09a8dbfae7" y="242.116343"/>
     <use style="fill:#1f77b4;stroke:#ffffff;stroke-width:0.75;" x="161.235095" xlink:href="#m09a8dbfae7" y="242.116335"/>
     <use style="fill:#1f77b4;stroke:#ffffff;stroke-width:0.75;" x="168.313319" xlink:href="#m09a8dbfae7" y="242.116331"/>
     <use style="fill:#1f77b4;stroke:#ffffff;stroke-width:0.75;" x="175.391543" xlink:href="#m09a8dbfae7" y="242.116318"/>
     <use style="fill:#1f77b4;stroke:#ffffff;stroke-width:0.75;" x="182.469767" xlink:href="#m09a8dbfae7" y="242.116302"/>
     <use style="fill:#1f77b4;stroke:#ffffff;stroke-width:0.75;" x="189.547992" xlink:href="#m09a8dbfae7" y="242.116293"/>
     <use style="fill:#1f77b4;stroke:#ffffff;stroke-width:0.75;" x="196.626216" xlink:href="#m09a8dbfae7" y="242.116284"/>
     <use style="fill:#1f77b4;stroke:#ffffff;stroke-width:0.75;" x="203.70444" xlink:href="#m09a8dbfae7" y="242.116227"/>
     <use style="fill:#1f77b4;stroke:#ffffff;stroke-width:0.75;" x="210.782664" xlink:href="#m09a8dbfae7" y="242.1161"/>
     <use style="fill:#1f77b4;stroke:#ffffff;stroke-width:0.75;" x="217.860888" xlink:href="#m09a8dbfae7" y="242.116083"/>
     <use style="fill:#1f77b4;stroke:#ffffff;stroke-width:0.75;" x="224.939112" xlink:href="#m09a8dbfae7" y="242.116113"/>
     <use style="fill:#1f77b4;stroke:#ffffff;stroke-width:0.75;" x="232.017336" xlink:href="#m09a8dbfae7" y="242.115835"/>
     <use style="fill:#1f77b4;stroke:#ffffff;stroke-width:0.75;" x="239.09556" xlink:href="#m09a8dbfae7" y="242.115444"/>
     <use style="fill:#1f77b4;stroke:#ffffff;stroke-width:0.75;" x="246.173784" xlink:href="#m09a8dbfae7" y="242.11528"/>
     <use style="fill:#1f77b4;stroke:#ffffff;stroke-width:0.75;" x="253.252008" xlink:href="#m09a8dbfae7" y="242.114551"/>
     <use style="fill:#1f77b4;stroke:#ffffff;stroke-width:0.75;" x="260.330233" xlink:href="#m09a8dbfae7" y="242.113896"/>
     <use style="fill:#1f77b4;stroke:#ffffff;stroke-width:0.75;" x="267.408457" xlink:href="#m09a8dbfae7" y="242.11377"/>
     <use style="fill:#1f77b4;stroke:#ffffff;stroke-width:0.75;" x="274.486681" xlink:href="#m09a8dbfae7" y="242.111592"/>
     <use style="fill:#1f77b4;stroke:#ffffff;stroke-width:0.75;" x="281.564905" xlink:href="#m09a8dbfae7" y="242.108689"/>
     <use style="fill:#1f77b4;stroke:#ffffff;stroke-width:0.75;" x="288.643129" xlink:href="#m09a8dbfae7" y="242.105256"/>
     <use style="fill:#1f77b4;stroke:#ffffff;stroke-width:0.75;" x="295.721353" xlink:href="#m09a8dbfae7" y="242.105369"/>
     <use style="fill:#1f77b4;stroke:#ffffff;stroke-width:0.75;" x="302.799577" xlink:href="#m09a8dbfae7" y="242.096438"/>
     <use style="fill:#1f77b4;stroke:#ffffff;stroke-width:0.75;" x="309.877801" xlink:href="#m09a8dbfae7" y="242.089315"/>
     <use style="fill:#1f77b4;stroke:#ffffff;stroke-width:0.75;" x="316.956025" xlink:href="#m09a8dbfae7" y="242.080649"/>
     <use style="fill:#1f77b4;stroke:#ffffff;stroke-width:0.75;" x="324.034249" xlink:href="#m09a8dbfae7" y="242.07222"/>
     <use style="fill:#1f77b4;stroke:#ffffff;stroke-width:0.75;" x="331.112474" xlink:href="#m09a8dbfae7" y="242.025721"/>
     <use style="fill:#1f77b4;stroke:#ffffff;stroke-width:0.75;" x="338.190698" xlink:href="#m09a8dbfae7" y="242.024749"/>
     <use style="fill:#1f77b4;stroke:#ffffff;stroke-width:0.75;" x="345.268922" xlink:href="#m09a8dbfae7" y="242.004948"/>
     <use style="fill:#1f77b4;stroke:#ffffff;stroke-width:0.75;" x="352.347146" xlink:href="#m09a8dbfae7" y="241.862089"/>
     <use style="fill:#1f77b4;stroke:#ffffff;stroke-width:0.75;" x="359.42537" xlink:href="#m09a8dbfae7" y="241.547053"/>
     <use style="fill:#1f77b4;stroke:#ffffff;stroke-width:0.75;" x="366.503594" xlink:href="#m09a8dbfae7" y="241.575193"/>
     <use style="fill:#1f77b4;stroke:#ffffff;stroke-width:0.75;" x="373.581818" xlink:href="#m09a8dbfae7" y="241.605531"/>
    </g>
   </g>
   <g id="PolyCollection_1">
    <defs>
     <path d="M 69.218182 -45.883636 
L 69.218182 -45.883636 
L 76.296406 -45.883636 
L 83.37463 -45.883636 
L 90.452854 -45.883636 
L 97.531078 -45.883636 
L 104.609302 -45.883636 
L 111.687526 -45.883636 
L 118.765751 -45.883636 
L 125.843975 -45.883636 
L 132.922199 -45.883636 
L 140.000423 -45.883636 
L 147.078647 -45.883636 
L 154.156871 -45.883636 
L 161.235095 -45.883637 
L 168.313319 -45.883637 
L 175.391543 -45.883637 
L 182.469767 -45.883638 
L 189.547992 -45.883639 
L 196.626216 -45.883642 
L 203.70444 -45.883648 
L 210.782664 -45.88366 
L 217.860888 -45.883683 
L 224.939112 -45.883731 
L 232.017336 -45.883825 
L 239.09556 -45.884013 
L 246.173784 -45.88439 
L 253.252008 -45.885144 
L 260.330233 -45.886653 
L 267.408457 -45.889669 
L 274.486681 -45.895701 
L 281.564905 -45.907766 
L 288.643129 -45.931896 
L 295.721353 -45.980156 
L 302.799577 -46.076676 
L 309.877801 -46.269716 
L 316.956025 -46.655795 
L 324.034249 -47.427955 
L 331.112474 -48.972273 
L 338.190698 -52.060909 
L 345.268922 -58.238182 
L 352.347146 -70.592727 
L 359.42537 -95.301818 
L 366.503594 -144.72 
L 373.581818 -243.556364 
L 373.581818 -243.556364 
L 373.581818 -243.556364 
L 366.503594 -144.72 
L 359.42537 -95.301818 
L 352.347146 -70.592727 
L 345.268922 -58.238182 
L 338.190698 -52.060909 
L 331.112474 -48.972273 
L 324.034249 -47.427955 
L 316.956025 -46.655795 
L 309.877801 -46.269716 
L 302.799577 -46.076676 
L 295.721353 -45.980156 
L 288.643129 -45.931896 
L 281.564905 -45.907766 
L 274.486681 -45.895701 
L 267.408457 -45.889669 
L 260.330233 -45.886653 
L 253.252008 -45.885144 
L 246.173784 -45.88439 
L 239.09556 -45.884013 
L 232.017336 -45.883825 
L 224.939112 -45.883731 
L 217.860888 -45.883683 
L 210.782664 -45.88366 
L 203.70444 -45.883648 
L 196.626216 -45.883642 
L 189.547992 -45.883639 
L 182.469767 -45.883638 
L 175.391543 -45.883637 
L 168.313319 -45.883637 
L 161.235095 -45.883637 
L 154.156871 -45.883636 
L 147.078647 -45.883636 
L 140.000423 -45.883636 
L 132.922199 -45.883636 
L 125.843975 -45.883636 
L 118.765751 -45.883636 
L 111.687526 -45.883636 
L 104.609302 -45.883636 
L 97.531078 -45.883636 
L 90.452854 -45.883636 
L 83.37463 -45.883636 
L 76.296406 -45.883636 
L 69.218182 -45.883636 
z
" id="m319512ed80" style="stroke:#ffa500;stroke-opacity:0.2;"/>
    </defs>
    <g clip-path="url(#pd432da2c85)">
     <use style="fill:#ffa500;fill-opacity:0.2;stroke:#ffa500;stroke-opacity:0.2;" x="0" xlink:href="#m319512ed80" y="288"/>
    </g>
   </g>
   <g id="matplotlib.axis_1">
    <g id="xtick_1">
     <g id="line2d_1">
      <defs>
       <path d="M 0 0 
L 0 3.5 
" id="m186752e53f" style="stroke:#000000;stroke-width:0.8;"/>
      </defs>
      <g>
       <use style="stroke:#000000;stroke-width:0.8;" x="62.139958" xlink:href="#m186752e53f" y="252"/>
      </g>
     </g>
     <g id="text_1">
      <!-- 0 -->
      <defs>
       <path d="M 31.78125 66.40625 
Q 24.171875 66.40625 20.328125 58.90625 
Q 16.5 51.421875 16.5 36.375 
Q 16.5 21.390625 20.328125 13.890625 
Q 24.171875 6.390625 31.78125 6.390625 
Q 39.453125 6.390625 43.28125 13.890625 
Q 47.125 21.390625 47.125 36.375 
Q 47.125 51.421875 43.28125 58.90625 
Q 39.453125 66.40625 31.78125 66.40625 
z
M 31.78125 74.21875 
Q 44.046875 74.21875 50.515625 64.515625 
Q 56.984375 54.828125 56.984375 36.375 
Q 56.984375 17.96875 50.515625 8.265625 
Q 44.046875 -1.421875 31.78125 -1.421875 
Q 19.53125 -1.421875 13.0625 8.265625 
Q 6.59375 17.96875 6.59375 36.375 
Q 6.59375 54.828125 13.0625 64.515625 
Q 19.53125 74.21875 31.78125 74.21875 
z
" id="DejaVuSans-48"/>
      </defs>
      <g transform="translate(58.958708 266.598437)scale(0.1 -0.1)">
       <use xlink:href="#DejaVuSans-48"/>
      </g>
     </g>
    </g>
    <g id="xtick_2">
     <g id="line2d_2">
      <g>
       <use style="stroke:#000000;stroke-width:0.8;" x="132.922199" xlink:href="#m186752e53f" y="252"/>
      </g>
     </g>
     <g id="text_2">
      <!-- 10 -->
      <defs>
       <path d="M 12.40625 8.296875 
L 28.515625 8.296875 
L 28.515625 63.921875 
L 10.984375 60.40625 
L 10.984375 69.390625 
L 28.421875 72.90625 
L 38.28125 72.90625 
L 38.28125 8.296875 
L 54.390625 8.296875 
L 54.390625 0 
L 12.40625 0 
z
" id="DejaVuSans-49"/>
      </defs>
      <g transform="translate(126.559699 266.598437)scale(0.1 -0.1)">
       <use xlink:href="#DejaVuSans-49"/>
       <use x="63.623047" xlink:href="#DejaVuSans-48"/>
      </g>
     </g>
    </g>
    <g id="xtick_3">
     <g id="line2d_3">
      <g>
       <use style="stroke:#000000;stroke-width:0.8;" x="203.70444" xlink:href="#m186752e53f" y="252"/>
      </g>
     </g>
     <g id="text_3">
      <!-- 20 -->
      <defs>
       <path d="M 19.1875 8.296875 
L 53.609375 8.296875 
L 53.609375 0 
L 7.328125 0 
L 7.328125 8.296875 
Q 12.9375 14.109375 22.625 23.890625 
Q 32.328125 33.6875 34.8125 36.53125 
Q 39.546875 41.84375 41.421875 45.53125 
Q 43.3125 49.21875 43.3125 52.78125 
Q 43.3125 58.59375 39.234375 62.25 
Q 35.15625 65.921875 28.609375 65.921875 
Q 23.96875 65.921875 18.8125 64.3125 
Q 13.671875 62.703125 7.8125 59.421875 
L 7.8125 69.390625 
Q 13.765625 71.78125 18.9375 73 
Q 24.125 74.21875 28.421875 74.21875 
Q 39.75 74.21875 46.484375 68.546875 
Q 53.21875 62.890625 53.21875 53.421875 
Q 53.21875 48.921875 51.53125 44.890625 
Q 49.859375 40.875 45.40625 35.40625 
Q 44.1875 33.984375 37.640625 27.21875 
Q 31.109375 20.453125 19.1875 8.296875 
z
" id="DejaVuSans-50"/>
      </defs>
      <g transform="translate(197.34194 266.598437)scale(0.1 -0.1)">
       <use xlink:href="#DejaVuSans-50"/>
       <use x="63.623047" xlink:href="#DejaVuSans-48"/>
      </g>
     </g>
    </g>
    <g id="xtick_4">
     <g id="line2d_4">
      <g>
       <use style="stroke:#000000;stroke-width:0.8;" x="274.486681" xlink:href="#m186752e53f" y="252"/>
      </g>
     </g>
     <g id="text_4">
      <!-- 30 -->
      <defs>
       <path d="M 40.578125 39.3125 
Q 47.65625 37.796875 51.625 33 
Q 55.609375 28.21875 55.609375 21.1875 
Q 55.609375 10.40625 48.1875 4.484375 
Q 40.765625 -1.421875 27.09375 -1.421875 
Q 22.515625 -1.421875 17.65625 -0.515625 
Q 12.796875 0.390625 7.625 2.203125 
L 7.625 11.71875 
Q 11.71875 9.328125 16.59375 8.109375 
Q 21.484375 6.890625 26.8125 6.890625 
Q 36.078125 6.890625 40.9375 10.546875 
Q 45.796875 14.203125 45.796875 21.1875 
Q 45.796875 27.640625 41.28125 31.265625 
Q 36.765625 34.90625 28.71875 34.90625 
L 20.21875 34.90625 
L 20.21875 43.015625 
L 29.109375 43.015625 
Q 36.375 43.015625 40.234375 45.921875 
Q 44.09375 48.828125 44.09375 54.296875 
Q 44.09375 59.90625 40.109375 62.90625 
Q 36.140625 65.921875 28.71875 65.921875 
Q 24.65625 65.921875 20.015625 65.03125 
Q 15.375 64.15625 9.8125 62.3125 
L 9.8125 71.09375 
Q 15.4375 72.65625 20.34375 73.4375 
Q 25.25 74.21875 29.59375 74.21875 
Q 40.828125 74.21875 47.359375 69.109375 
Q 53.90625 64.015625 53.90625 55.328125 
Q 53.90625 49.265625 50.4375 45.09375 
Q 46.96875 40.921875 40.578125 39.3125 
z
" id="DejaVuSans-51"/>
      </defs>
      <g transform="translate(268.124181 266.598437)scale(0.1 -0.1)">
       <use xlink:href="#DejaVuSans-51"/>
       <use x="63.623047" xlink:href="#DejaVuSans-48"/>
      </g>
     </g>
    </g>
    <g id="xtick_5">
     <g id="line2d_5">
      <g>
       <use style="stroke:#000000;stroke-width:0.8;" x="345.268922" xlink:href="#m186752e53f" y="252"/>
      </g>
     </g>
     <g id="text_5">
      <!-- 40 -->
      <defs>
       <path d="M 37.796875 64.3125 
L 12.890625 25.390625 
L 37.796875 25.390625 
z
M 35.203125 72.90625 
L 47.609375 72.90625 
L 47.609375 25.390625 
L 58.015625 25.390625 
L 58.015625 17.1875 
L 47.609375 17.1875 
L 47.609375 0 
L 37.796875 0 
L 37.796875 17.1875 
L 4.890625 17.1875 
L 4.890625 26.703125 
z
" id="DejaVuSans-52"/>
      </defs>
      <g transform="translate(338.906422 266.598437)scale(0.1 -0.1)">
       <use xlink:href="#DejaVuSans-52"/>
       <use x="63.623047" xlink:href="#DejaVuSans-48"/>
      </g>
     </g>
    </g>
    <g id="text_6">
     <!-- #locales -->
     <defs>
      <path d="M 51.125 44 
L 36.921875 44 
L 32.8125 27.6875 
L 47.125 27.6875 
z
M 43.796875 71.78125 
L 38.71875 51.515625 
L 52.984375 51.515625 
L 58.109375 71.78125 
L 65.921875 71.78125 
L 60.890625 51.515625 
L 76.125 51.515625 
L 76.125 44 
L 58.984375 44 
L 54.984375 27.6875 
L 70.515625 27.6875 
L 70.515625 20.21875 
L 53.078125 20.21875 
L 48 0 
L 40.1875 0 
L 45.21875 20.21875 
L 30.90625 20.21875 
L 25.875 0 
L 18.015625 0 
L 23.09375 20.21875 
L 7.71875 20.21875 
L 7.71875 27.6875 
L 24.90625 27.6875 
L 29 44 
L 13.28125 44 
L 13.28125 51.515625 
L 30.90625 51.515625 
L 35.890625 71.78125 
z
" id="DejaVuSans-35"/>
      <path d="M 9.421875 75.984375 
L 18.40625 75.984375 
L 18.40625 0 
L 9.421875 0 
z
" id="DejaVuSans-108"/>
      <path d="M 30.609375 48.390625 
Q 23.390625 48.390625 19.1875 42.75 
Q 14.984375 37.109375 14.984375 27.296875 
Q 14.984375 17.484375 19.15625 11.84375 
Q 23.34375 6.203125 30.609375 6.203125 
Q 37.796875 6.203125 41.984375 11.859375 
Q 46.1875 17.53125 46.1875 27.296875 
Q 46.1875 37.015625 41.984375 42.703125 
Q 37.796875 48.390625 30.609375 48.390625 
z
M 30.609375 56 
Q 42.328125 56 49.015625 48.375 
Q 55.71875 40.765625 55.71875 27.296875 
Q 55.71875 13.875 49.015625 6.21875 
Q 42.328125 -1.421875 30.609375 -1.421875 
Q 18.84375 -1.421875 12.171875 6.21875 
Q 5.515625 13.875 5.515625 27.296875 
Q 5.515625 40.765625 12.171875 48.375 
Q 18.84375 56 30.609375 56 
z
" id="DejaVuSans-111"/>
      <path d="M 48.78125 52.59375 
L 48.78125 44.1875 
Q 44.96875 46.296875 41.140625 47.34375 
Q 37.3125 48.390625 33.40625 48.390625 
Q 24.65625 48.390625 19.8125 42.84375 
Q 14.984375 37.3125 14.984375 27.296875 
Q 14.984375 17.28125 19.8125 11.734375 
Q 24.65625 6.203125 33.40625 6.203125 
Q 37.3125 6.203125 41.140625 7.25 
Q 44.96875 8.296875 48.78125 10.40625 
L 48.78125 2.09375 
Q 45.015625 0.34375 40.984375 -0.53125 
Q 36.96875 -1.421875 32.421875 -1.421875 
Q 20.0625 -1.421875 12.78125 6.34375 
Q 5.515625 14.109375 5.515625 27.296875 
Q 5.515625 40.671875 12.859375 48.328125 
Q 20.21875 56 33.015625 56 
Q 37.15625 56 41.109375 55.140625 
Q 45.0625 54.296875 48.78125 52.59375 
z
" id="DejaVuSans-99"/>
      <path d="M 34.28125 27.484375 
Q 23.390625 27.484375 19.1875 25 
Q 14.984375 22.515625 14.984375 16.5 
Q 14.984375 11.71875 18.140625 8.90625 
Q 21.296875 6.109375 26.703125 6.109375 
Q 34.1875 6.109375 38.703125 11.40625 
Q 43.21875 16.703125 43.21875 25.484375 
L 43.21875 27.484375 
z
M 52.203125 31.203125 
L 52.203125 0 
L 43.21875 0 
L 43.21875 8.296875 
Q 40.140625 3.328125 35.546875 0.953125 
Q 30.953125 -1.421875 24.3125 -1.421875 
Q 15.921875 -1.421875 10.953125 3.296875 
Q 6 8.015625 6 15.921875 
Q 6 25.140625 12.171875 29.828125 
Q 18.359375 34.515625 30.609375 34.515625 
L 43.21875 34.515625 
L 43.21875 35.40625 
Q 43.21875 41.609375 39.140625 45 
Q 35.0625 48.390625 27.6875 48.390625 
Q 23 48.390625 18.546875 47.265625 
Q 14.109375 46.140625 10.015625 43.890625 
L 10.015625 52.203125 
Q 14.9375 54.109375 19.578125 55.046875 
Q 24.21875 56 28.609375 56 
Q 40.484375 56 46.34375 49.84375 
Q 52.203125 43.703125 52.203125 31.203125 
z
" id="DejaVuSans-97"/>
      <path d="M 56.203125 29.59375 
L 56.203125 25.203125 
L 14.890625 25.203125 
Q 15.484375 15.921875 20.484375 11.0625 
Q 25.484375 6.203125 34.421875 6.203125 
Q 39.59375 6.203125 44.453125 7.46875 
Q 49.3125 8.734375 54.109375 11.28125 
L 54.109375 2.78125 
Q 49.265625 0.734375 44.1875 -0.34375 
Q 39.109375 -1.421875 33.890625 -1.421875 
Q 20.796875 -1.421875 13.15625 6.1875 
Q 5.515625 13.8125 5.515625 26.8125 
Q 5.515625 40.234375 12.765625 48.109375 
Q 20.015625 56 32.328125 56 
Q 43.359375 56 49.78125 48.890625 
Q 56.203125 41.796875 56.203125 29.59375 
z
M 47.21875 32.234375 
Q 47.125 39.59375 43.09375 43.984375 
Q 39.0625 48.390625 32.421875 48.390625 
Q 24.90625 48.390625 20.390625 44.140625 
Q 15.875 39.890625 15.1875 32.171875 
z
" id="DejaVuSans-101"/>
      <path d="M 44.28125 53.078125 
L 44.28125 44.578125 
Q 40.484375 46.53125 36.375 47.5 
Q 32.28125 48.484375 27.875 48.484375 
Q 21.1875 48.484375 17.84375 46.4375 
Q 14.5 44.390625 14.5 40.28125 
Q 14.5 37.15625 16.890625 35.375 
Q 19.28125 33.59375 26.515625 31.984375 
L 29.59375 31.296875 
Q 39.15625 29.25 43.1875 25.515625 
Q 47.21875 21.78125 47.21875 15.09375 
Q 47.21875 7.46875 41.1875 3.015625 
Q 35.15625 -1.421875 24.609375 -1.421875 
Q 20.21875 -1.421875 15.453125 -0.5625 
Q 10.6875 0.296875 5.421875 2 
L 5.421875 11.28125 
Q 10.40625 8.6875 15.234375 7.390625 
Q 20.0625 6.109375 24.8125 6.109375 
Q 31.15625 6.109375 34.5625 8.28125 
Q 37.984375 10.453125 37.984375 14.40625 
Q 37.984375 18.0625 35.515625 20.015625 
Q 33.0625 21.96875 24.703125 23.78125 
L 21.578125 24.515625 
Q 13.234375 26.265625 9.515625 29.90625 
Q 5.8125 33.546875 5.8125 39.890625 
Q 5.8125 47.609375 11.28125 51.796875 
Q 16.75 56 26.8125 56 
Q 31.78125 56 36.171875 55.265625 
Q 40.578125 54.546875 44.28125 53.078125 
z
" id="DejaVuSans-115"/>
     </defs>
     <g transform="translate(199.878125 280.276563)scale(0.1 -0.1)">
      <use xlink:href="#DejaVuSans-35"/>
      <use x="83.789062" xlink:href="#DejaVuSans-108"/>
      <use x="111.572266" xlink:href="#DejaVuSans-111"/>
      <use x="172.753906" xlink:href="#DejaVuSans-99"/>
      <use x="227.734375" xlink:href="#DejaVuSans-97"/>
      <use x="289.013672" xlink:href="#DejaVuSans-108"/>
      <use x="316.796875" xlink:href="#DejaVuSans-101"/>
      <use x="378.320312" xlink:href="#DejaVuSans-115"/>
     </g>
    </g>
   </g>
   <g id="matplotlib.axis_2">
    <g id="ytick_1">
     <g id="line2d_6">
      <defs>
       <path d="M 0 0 
L -3.5 0 
" id="m60dc8d1008" style="stroke:#000000;stroke-width:0.8;"/>
      </defs>
      <g>
       <use style="stroke:#000000;stroke-width:0.8;" x="54" xlink:href="#m60dc8d1008" y="242.116364"/>
      </g>
     </g>
     <g id="text_7">
      <!-- 0 -->
      <g transform="translate(40.6375 245.915582)scale(0.1 -0.1)">
       <use xlink:href="#DejaVuSans-48"/>
      </g>
     </g>
    </g>
    <g id="ytick_2">
     <g id="line2d_7">
      <g>
       <use style="stroke:#000000;stroke-width:0.8;" x="54" xlink:href="#m60dc8d1008" y="210.012382"/>
      </g>
     </g>
     <g id="text_8">
      <!-- 5000 -->
      <defs>
       <path d="M 10.796875 72.90625 
L 49.515625 72.90625 
L 49.515625 64.59375 
L 19.828125 64.59375 
L 19.828125 46.734375 
Q 21.96875 47.46875 24.109375 47.828125 
Q 26.265625 48.1875 28.421875 48.1875 
Q 40.625 48.1875 47.75 41.5 
Q 54.890625 34.8125 54.890625 23.390625 
Q 54.890625 11.625 47.5625 5.09375 
Q 40.234375 -1.421875 26.90625 -1.421875 
Q 22.3125 -1.421875 17.546875 -0.640625 
Q 12.796875 0.140625 7.71875 1.703125 
L 7.71875 11.625 
Q 12.109375 9.234375 16.796875 8.0625 
Q 21.484375 6.890625 26.703125 6.890625 
Q 35.15625 6.890625 40.078125 11.328125 
Q 45.015625 15.765625 45.015625 23.390625 
Q 45.015625 31 40.078125 35.4375 
Q 35.15625 39.890625 26.703125 39.890625 
Q 22.75 39.890625 18.8125 39.015625 
Q 14.890625 38.140625 10.796875 36.28125 
z
" id="DejaVuSans-53"/>
      </defs>
      <g transform="translate(21.55 213.811601)scale(0.1 -0.1)">
       <use xlink:href="#DejaVuSans-53"/>
       <use x="63.623047" xlink:href="#DejaVuSans-48"/>
       <use x="127.246094" xlink:href="#DejaVuSans-48"/>
       <use x="190.869141" xlink:href="#DejaVuSans-48"/>
      </g>
     </g>
    </g>
    <g id="ytick_3">
     <g id="line2d_8">
      <g>
       <use style="stroke:#000000;stroke-width:0.8;" x="54" xlink:href="#m60dc8d1008" y="177.9084"/>
      </g>
     </g>
     <g id="text_9">
      <!-- 10000 -->
      <g transform="translate(15.1875 181.707619)scale(0.1 -0.1)">
       <use xlink:href="#DejaVuSans-49"/>
       <use x="63.623047" xlink:href="#DejaVuSans-48"/>
       <use x="127.246094" xlink:href="#DejaVuSans-48"/>
       <use x="190.869141" xlink:href="#DejaVuSans-48"/>
       <use x="254.492188" xlink:href="#DejaVuSans-48"/>
      </g>
     </g>
    </g>
    <g id="ytick_4">
     <g id="line2d_9">
      <g>
       <use style="stroke:#000000;stroke-width:0.8;" x="54" xlink:href="#m60dc8d1008" y="145.804418"/>
      </g>
     </g>
     <g id="text_10">
      <!-- 15000 -->
      <g transform="translate(15.1875 149.603637)scale(0.1 -0.1)">
       <use xlink:href="#DejaVuSans-49"/>
       <use x="63.623047" xlink:href="#DejaVuSans-53"/>
       <use x="127.246094" xlink:href="#DejaVuSans-48"/>
       <use x="190.869141" xlink:href="#DejaVuSans-48"/>
       <use x="254.492188" xlink:href="#DejaVuSans-48"/>
      </g>
     </g>
    </g>
    <g id="ytick_5">
     <g id="line2d_10">
      <g>
       <use style="stroke:#000000;stroke-width:0.8;" x="54" xlink:href="#m60dc8d1008" y="113.700436"/>
      </g>
     </g>
     <g id="text_11">
      <!-- 20000 -->
      <g transform="translate(15.1875 117.499655)scale(0.1 -0.1)">
       <use xlink:href="#DejaVuSans-50"/>
       <use x="63.623047" xlink:href="#DejaVuSans-48"/>
       <use x="127.246094" xlink:href="#DejaVuSans-48"/>
       <use x="190.869141" xlink:href="#DejaVuSans-48"/>
       <use x="254.492188" xlink:href="#DejaVuSans-48"/>
      </g>
     </g>
    </g>
    <g id="ytick_6">
     <g id="line2d_11">
      <g>
       <use style="stroke:#000000;stroke-width:0.8;" x="54" xlink:href="#m60dc8d1008" y="81.596455"/>
      </g>
     </g>
     <g id="text_12">
      <!-- 25000 -->
      <g transform="translate(15.1875 85.395673)scale(0.1 -0.1)">
       <use xlink:href="#DejaVuSans-50"/>
       <use x="63.623047" xlink:href="#DejaVuSans-53"/>
       <use x="127.246094" xlink:href="#DejaVuSans-48"/>
       <use x="190.869141" xlink:href="#DejaVuSans-48"/>
       <use x="254.492188" xlink:href="#DejaVuSans-48"/>
      </g>
     </g>
    </g>
    <g id="ytick_7">
     <g id="line2d_12">
      <g>
       <use style="stroke:#000000;stroke-width:0.8;" x="54" xlink:href="#m60dc8d1008" y="49.492473"/>
      </g>
     </g>
     <g id="text_13">
      <!-- 30000 -->
      <g transform="translate(15.1875 53.291692)scale(0.1 -0.1)">
       <use xlink:href="#DejaVuSans-51"/>
       <use x="63.623047" xlink:href="#DejaVuSans-48"/>
       <use x="127.246094" xlink:href="#DejaVuSans-48"/>
       <use x="190.869141" xlink:href="#DejaVuSans-48"/>
       <use x="254.492188" xlink:href="#DejaVuSans-48"/>
      </g>
     </g>
    </g>
    <g id="text_14">
     <!-- tiempo (ms) -->
     <defs>
      <path d="M 18.3125 70.21875 
L 18.3125 54.6875 
L 36.8125 54.6875 
L 36.8125 47.703125 
L 18.3125 47.703125 
L 18.3125 18.015625 
Q 18.3125 11.328125 20.140625 9.421875 
Q 21.96875 7.515625 27.59375 7.515625 
L 36.8125 7.515625 
L 36.8125 0 
L 27.59375 0 
Q 17.1875 0 13.234375 3.875 
Q 9.28125 7.765625 9.28125 18.015625 
L 9.28125 47.703125 
L 2.6875 47.703125 
L 2.6875 54.6875 
L 9.28125 54.6875 
L 9.28125 70.21875 
z
" id="DejaVuSans-116"/>
      <path d="M 9.421875 54.6875 
L 18.40625 54.6875 
L 18.40625 0 
L 9.421875 0 
z
M 9.421875 75.984375 
L 18.40625 75.984375 
L 18.40625 64.59375 
L 9.421875 64.59375 
z
" id="DejaVuSans-105"/>
      <path d="M 52 44.1875 
Q 55.375 50.25 60.0625 53.125 
Q 64.75 56 71.09375 56 
Q 79.640625 56 84.28125 50.015625 
Q 88.921875 44.046875 88.921875 33.015625 
L 88.921875 0 
L 79.890625 0 
L 79.890625 32.71875 
Q 79.890625 40.578125 77.09375 44.375 
Q 74.3125 48.1875 68.609375 48.1875 
Q 61.625 48.1875 57.5625 43.546875 
Q 53.515625 38.921875 53.515625 30.90625 
L 53.515625 0 
L 44.484375 0 
L 44.484375 32.71875 
Q 44.484375 40.625 41.703125 44.40625 
Q 38.921875 48.1875 33.109375 48.1875 
Q 26.21875 48.1875 22.15625 43.53125 
Q 18.109375 38.875 18.109375 30.90625 
L 18.109375 0 
L 9.078125 0 
L 9.078125 54.6875 
L 18.109375 54.6875 
L 18.109375 46.1875 
Q 21.1875 51.21875 25.484375 53.609375 
Q 29.78125 56 35.6875 56 
Q 41.65625 56 45.828125 52.96875 
Q 50 49.953125 52 44.1875 
z
" id="DejaVuSans-109"/>
      <path d="M 18.109375 8.203125 
L 18.109375 -20.796875 
L 9.078125 -20.796875 
L 9.078125 54.6875 
L 18.109375 54.6875 
L 18.109375 46.390625 
Q 20.953125 51.265625 25.265625 53.625 
Q 29.59375 56 35.59375 56 
Q 45.5625 56 51.78125 48.09375 
Q 58.015625 40.1875 58.015625 27.296875 
Q 58.015625 14.40625 51.78125 6.484375 
Q 45.5625 -1.421875 35.59375 -1.421875 
Q 29.59375 -1.421875 25.265625 0.953125 
Q 20.953125 3.328125 18.109375 8.203125 
z
M 48.6875 27.296875 
Q 48.6875 37.203125 44.609375 42.84375 
Q 40.53125 48.484375 33.40625 48.484375 
Q 26.265625 48.484375 22.1875 42.84375 
Q 18.109375 37.203125 18.109375 27.296875 
Q 18.109375 17.390625 22.1875 11.75 
Q 26.265625 6.109375 33.40625 6.109375 
Q 40.53125 6.109375 44.609375 11.75 
Q 48.6875 17.390625 48.6875 27.296875 
z
" id="DejaVuSans-112"/>
      <path id="DejaVuSans-32"/>
      <path d="M 31 75.875 
Q 24.46875 64.65625 21.28125 53.65625 
Q 18.109375 42.671875 18.109375 31.390625 
Q 18.109375 20.125 21.3125 9.0625 
Q 24.515625 -2 31 -13.1875 
L 23.1875 -13.1875 
Q 15.875 -1.703125 12.234375 9.375 
Q 8.59375 20.453125 8.59375 31.390625 
Q 8.59375 42.28125 12.203125 53.3125 
Q 15.828125 64.359375 23.1875 75.875 
z
" id="DejaVuSans-40"/>
      <path d="M 8.015625 75.875 
L 15.828125 75.875 
Q 23.140625 64.359375 26.78125 53.3125 
Q 30.421875 42.28125 30.421875 31.390625 
Q 30.421875 20.453125 26.78125 9.375 
Q 23.140625 -1.703125 15.828125 -13.1875 
L 8.015625 -13.1875 
Q 14.5 -2 17.703125 9.0625 
Q 20.90625 20.125 20.90625 31.390625 
Q 20.90625 42.671875 17.703125 53.65625 
Q 14.5 64.65625 8.015625 75.875 
z
" id="DejaVuSans-41"/>
     </defs>
     <g transform="translate(9.107812 173.775312)rotate(-90)scale(0.1 -0.1)">
      <use xlink:href="#DejaVuSans-116"/>
      <use x="39.208984" xlink:href="#DejaVuSans-105"/>
      <use x="66.992188" xlink:href="#DejaVuSans-101"/>
      <use x="128.515625" xlink:href="#DejaVuSans-109"/>
      <use x="225.927734" xlink:href="#DejaVuSans-112"/>
      <use x="289.404297" xlink:href="#DejaVuSans-111"/>
      <use x="350.585938" xlink:href="#DejaVuSans-32"/>
      <use x="382.373047" xlink:href="#DejaVuSans-40"/>
      <use x="421.386719" xlink:href="#DejaVuSans-109"/>
      <use x="518.798828" xlink:href="#DejaVuSans-115"/>
      <use x="570.898438" xlink:href="#DejaVuSans-41"/>
     </g>
    </g>
   </g>
   <g id="line2d_13">
    <path clip-path="url(#pd432da2c85)" d="M 69.218182 242.116364 
L 76.296406 242.116364 
L 83.37463 242.116364 
L 90.452854 242.116364 
L 97.531078 242.116364 
L 104.609302 242.116364 
L 111.687526 242.116364 
L 118.765751 242.116364 
L 125.843975 242.116364 
L 132.922199 242.116364 
L 140.000423 242.116364 
L 147.078647 242.116364 
L 154.156871 242.116364 
L 161.235095 242.116363 
L 168.313319 242.116363 
L 175.391543 242.116363 
L 182.469767 242.116362 
L 189.547992 242.116361 
L 196.626216 242.116358 
L 203.70444 242.116352 
L 210.782664 242.11634 
L 217.860888 242.116317 
L 224.939112 242.116269 
L 232.017336 242.116175 
L 239.09556 242.115987 
L 246.173784 242.11561 
L 253.252008 242.114856 
L 260.330233 242.113347 
L 267.408457 242.110331 
L 274.486681 242.104299 
L 281.564905 242.092234 
L 288.643129 242.068104 
L 295.721353 242.019844 
L 302.799577 241.923324 
L 309.877801 241.730284 
L 316.956025 241.344205 
L 324.034249 240.572045 
L 331.112474 239.027727 
L 338.190698 235.939091 
L 345.268922 229.761818 
L 352.347146 217.407273 
L 359.42537 192.698182 
L 366.503594 143.28 
L 373.581818 44.443636 
" style="fill:none;stroke:#ffa500;stroke-linecap:square;stroke-width:1.5;"/>
   </g>
   <g id="patch_3">
    <path d="M 54 252 
L 54 34.56 
" style="fill:none;stroke:#000000;stroke-linecap:square;stroke-linejoin:miter;stroke-width:0.8;"/>
   </g>
   <g id="patch_4">
    <path d="M 388.8 252 
L 388.8 34.56 
" style="fill:none;stroke:#000000;stroke-linecap:square;stroke-linejoin:miter;stroke-width:0.8;"/>
   </g>
   <g id="patch_5">
    <path d="M 54 252 
L 388.8 252 
" style="fill:none;stroke:#000000;stroke-linecap:square;stroke-linejoin:miter;stroke-width:0.8;"/>
   </g>
   <g id="patch_6">
    <path d="M 54 34.56 
L 388.8 34.56 
" style="fill:none;stroke:#000000;stroke-linecap:square;stroke-linejoin:miter;stroke-width:0.8;"/>
   </g>
   <g id="legend_1">
    <g id="patch_7">
     <path d="M 61 71.91625 
L 129.754687 71.91625 
Q 131.754687 71.91625 131.754687 69.91625 
L 131.754687 41.56 
Q 131.754687 39.56 129.754687 39.56 
L 61 39.56 
Q 59 39.56 59 41.56 
L 59 69.91625 
Q 59 71.91625 61 71.91625 
z
" style="fill:#ffffff;opacity:0.8;stroke:#cccccc;stroke-linejoin:miter;"/>
    </g>
    <g id="line2d_14">
     <path d="M 63 47.658437 
L 83 47.658437 
" style="fill:none;stroke:#ffa500;stroke-linecap:square;stroke-width:1.5;"/>
    </g>
    <g id="line2d_15"/>
    <g id="text_15">
     <!-- O(2^n) -->
     <defs>
      <path d="M 39.40625 66.21875 
Q 28.65625 66.21875 22.328125 58.203125 
Q 16.015625 50.203125 16.015625 36.375 
Q 16.015625 22.609375 22.328125 14.59375 
Q 28.65625 6.59375 39.40625 6.59375 
Q 50.140625 6.59375 56.421875 14.59375 
Q 62.703125 22.609375 62.703125 36.375 
Q 62.703125 50.203125 56.421875 58.203125 
Q 50.140625 66.21875 39.40625 66.21875 
z
M 39.40625 74.21875 
Q 54.734375 74.21875 63.90625 63.9375 
Q 73.09375 53.65625 73.09375 36.375 
Q 73.09375 19.140625 63.90625 8.859375 
Q 54.734375 -1.421875 39.40625 -1.421875 
Q 24.03125 -1.421875 14.8125 8.828125 
Q 5.609375 19.09375 5.609375 36.375 
Q 5.609375 53.65625 14.8125 63.9375 
Q 24.03125 74.21875 39.40625 74.21875 
z
" id="DejaVuSans-79"/>
      <path d="M 46.6875 72.90625 
L 73.1875 45.703125 
L 63.375 45.703125 
L 41.890625 64.984375 
L 20.40625 45.703125 
L 10.59375 45.703125 
L 37.109375 72.90625 
z
" id="DejaVuSans-94"/>
      <path d="M 54.890625 33.015625 
L 54.890625 0 
L 45.90625 0 
L 45.90625 32.71875 
Q 45.90625 40.484375 42.875 44.328125 
Q 39.84375 48.1875 33.796875 48.1875 
Q 26.515625 48.1875 22.3125 43.546875 
Q 18.109375 38.921875 18.109375 30.90625 
L 18.109375 0 
L 9.078125 0 
L 9.078125 54.6875 
L 18.109375 54.6875 
L 18.109375 46.1875 
Q 21.34375 51.125 25.703125 53.5625 
Q 30.078125 56 35.796875 56 
Q 45.21875 56 50.046875 50.171875 
Q 54.890625 44.34375 54.890625 33.015625 
z
" id="DejaVuSans-110"/>
     </defs>
     <g transform="translate(91 51.158437)scale(0.1 -0.1)">
      <use xlink:href="#DejaVuSans-79"/>
      <use x="78.710938" xlink:href="#DejaVuSans-40"/>
      <use x="117.724609" xlink:href="#DejaVuSans-50"/>
      <use x="181.347656" xlink:href="#DejaVuSans-94"/>
      <use x="265.136719" xlink:href="#DejaVuSans-110"/>
      <use x="328.515625" xlink:href="#DejaVuSans-41"/>
     </g>
    </g>
    <g id="PathCollection_2">
     <g>
      <use style="fill:#1f77b4;stroke:#ffffff;stroke-width:0.75;" x="73" xlink:href="#m09a8dbfae7" y="63.211562"/>
     </g>
    </g>
    <g id="text_16">
     <!-- FB -->
     <defs>
      <path d="M 9.8125 72.90625 
L 51.703125 72.90625 
L 51.703125 64.59375 
L 19.671875 64.59375 
L 19.671875 43.109375 
L 48.578125 43.109375 
L 48.578125 34.8125 
L 19.671875 34.8125 
L 19.671875 0 
L 9.8125 0 
z
" id="DejaVuSans-70"/>
      <path d="M 19.671875 34.8125 
L 19.671875 8.109375 
L 35.5 8.109375 
Q 43.453125 8.109375 47.28125 11.40625 
Q 51.125 14.703125 51.125 21.484375 
Q 51.125 28.328125 47.28125 31.5625 
Q 43.453125 34.8125 35.5 34.8125 
z
M 19.671875 64.796875 
L 19.671875 42.828125 
L 34.28125 42.828125 
Q 41.5 42.828125 45.03125 45.53125 
Q 48.578125 48.25 48.578125 53.8125 
Q 48.578125 59.328125 45.03125 62.0625 
Q 41.5 64.796875 34.28125 64.796875 
z
M 9.8125 72.90625 
L 35.015625 72.90625 
Q 46.296875 72.90625 52.390625 68.21875 
Q 58.5 63.53125 58.5 54.890625 
Q 58.5 48.1875 55.375 44.234375 
Q 52.25 40.28125 46.1875 39.3125 
Q 53.46875 37.75 57.5 32.78125 
Q 61.53125 27.828125 61.53125 20.40625 
Q 61.53125 10.640625 54.890625 5.3125 
Q 48.25 0 35.984375 0 
L 9.8125 0 
z
" id="DejaVuSans-66"/>
     </defs>
     <g transform="translate(91 65.836562)scale(0.1 -0.1)">
      <use xlink:href="#DejaVuSans-70"/>
      <use x="57.519531" xlink:href="#DejaVuSans-66"/>
     </g>
    </g>
   </g>
  </g>
 </g>
 <defs>
  <clipPath id="pd432da2c85">
   <rect height="217.44" width="334.8" x="54" y="34.56"/>
  </clipPath>
 </defs>
</svg>
