<?xml version="1.0" encoding="utf-8" standalone="no"?>
<!DOCTYPE svg PUBLIC "-//W3C//DTD SVG 1.1//EN"
  "http://www.w3.org/Graphics/SVG/1.1/DTD/svg11.dtd">
<!-- Created with matplotlib (https://matplotlib.org/) -->
<svg height="288pt" version="1.1" viewBox="0 0 432 288" width="432pt" xmlns="http://www.w3.org/2000/svg" xmlns:xlink="http://www.w3.org/1999/xlink">
 <defs>
  <style type="text/css">
*{stroke-linecap:butt;stroke-linejoin:round;}
  </style>
 </defs>
 <g id="figure_1">
  <g id="patch_1">
   <path d="M 0 288 
L 432 288 
L 432 0 
L 0 0 
z
" style="fill:#ffffff;"/>
  </g>
  <g id="axes_1">
   <g id="patch_2">
    <path d="M 54 252 
L 388.8 252 
L 388.8 34.56 
L 54 34.56 
z
" style="fill:#ffffff;"/>
   </g>
   <g id="PathCollection_1">
    <defs>
     <path d="M 0 3 
C 0.795609 3 1.55874 2.683901 2.12132 2.12132 
C 2.683901 1.55874 3 0.795609 3 0 
C 3 -0.795609 2.683901 -1.55874 2.12132 -2.12132 
C 1.55874 -2.683901 0.795609 -3 0 -3 
C -0.795609 -3 -1.55874 -2.683901 -2.12132 -2.12132 
C -2.683901 -1.55874 -3 -0.795609 -3 0 
C -3 0.795609 -2.683901 1.55874 -2.12132 2.12132 
C -1.55874 2.683901 -0.795609 3 0 3 
z
" id="ma506ea2039" style="stroke:#ffffff;stroke-width:0.75;"/>
    </defs>
    <g clip-path="url(#pd69ff6ed7e)">
     <use style="fill:#0000ff;stroke:#ffffff;stroke-width:0.75;" x="69.218182" xlink:href="#ma506ea2039" y="242.116362"/>
     <use style="fill:#0000ff;stroke:#ffffff;stroke-width:0.75;" x="83.052893" xlink:href="#ma506ea2039" y="242.116301"/>
     <use style="fill:#0000ff;stroke:#ffffff;stroke-width:0.75;" x="96.887603" xlink:href="#ma506ea2039" y="242.116202"/>
     <use style="fill:#0000ff;stroke:#ffffff;stroke-width:0.75;" x="110.722314" xlink:href="#ma506ea2039" y="242.116007"/>
     <use style="fill:#0000ff;stroke:#ffffff;stroke-width:0.75;" x="124.557025" xlink:href="#ma506ea2039" y="242.11562"/>
     <use style="fill:#0000ff;stroke:#ffffff;stroke-width:0.75;" x="138.391736" xlink:href="#ma506ea2039" y="242.114819"/>
     <use style="fill:#0000ff;stroke:#ffffff;stroke-width:0.75;" x="152.226446" xlink:href="#ma506ea2039" y="242.11337"/>
     <use style="fill:#0000ff;stroke:#ffffff;stroke-width:0.75;" x="166.061157" xlink:href="#ma506ea2039" y="242.110416"/>
     <use style="fill:#0000ff;stroke:#ffffff;stroke-width:0.75;" x="179.895868" xlink:href="#ma506ea2039" y="242.104532"/>
     <use style="fill:#0000ff;stroke:#ffffff;stroke-width:0.75;" x="193.730579" xlink:href="#ma506ea2039" y="242.092108"/>
     <use style="fill:#0000ff;stroke:#ffffff;stroke-width:0.75;" x="207.565289" xlink:href="#ma506ea2039" y="242.069335"/>
     <use style="fill:#0000ff;stroke:#ffffff;stroke-width:0.75;" x="221.4" xlink:href="#ma506ea2039" y="242.021346"/>
     <use style="fill:#0000ff;stroke:#ffffff;stroke-width:0.75;" x="235.234711" xlink:href="#ma506ea2039" y="241.921267"/>
     <use style="fill:#0000ff;stroke:#ffffff;stroke-width:0.75;" x="249.069421" xlink:href="#ma506ea2039" y="241.729607"/>
     <use style="fill:#0000ff;stroke:#ffffff;stroke-width:0.75;" x="262.904132" xlink:href="#ma506ea2039" y="241.329351"/>
     <use style="fill:#0000ff;stroke:#ffffff;stroke-width:0.75;" x="276.738843" xlink:href="#ma506ea2039" y="240.550811"/>
     <use style="fill:#0000ff;stroke:#ffffff;stroke-width:0.75;" x="290.573554" xlink:href="#ma506ea2039" y="238.944185"/>
     <use style="fill:#0000ff;stroke:#ffffff;stroke-width:0.75;" x="304.408264" xlink:href="#ma506ea2039" y="235.890294"/>
     <use style="fill:#0000ff;stroke:#ffffff;stroke-width:0.75;" x="318.242975" xlink:href="#ma506ea2039" y="229.579843"/>
     <use style="fill:#0000ff;stroke:#ffffff;stroke-width:0.75;" x="332.077686" xlink:href="#ma506ea2039" y="217.53802"/>
     <use style="fill:#0000ff;stroke:#ffffff;stroke-width:0.75;" x="345.912397" xlink:href="#ma506ea2039" y="193.524249"/>
     <use style="fill:#0000ff;stroke:#ffffff;stroke-width:0.75;" x="359.747107" xlink:href="#ma506ea2039" y="144.465137"/>
     <use style="fill:#0000ff;stroke:#ffffff;stroke-width:0.75;" x="373.581818" xlink:href="#ma506ea2039" y="44.443636"/>
    </g>
   </g>
   <g id="PathCollection_2">
    <defs>
     <path d="M 0 3 
C 0.795609 3 1.55874 2.683901 2.12132 2.12132 
C 2.683901 1.55874 3 0.795609 3 0 
C 3 -0.795609 2.683901 -1.55874 2.12132 -2.12132 
C 1.55874 -2.683901 0.795609 -3 0 -3 
C -0.795609 -3 -1.55874 -2.683901 -2.12132 -2.12132 
C -2.683901 -1.55874 -3 -0.795609 -3 0 
C -3 0.795609 -2.683901 1.55874 -2.12132 2.12132 
C -1.55874 2.683901 -0.795609 3 0 3 
z
" id="ma88944b3d2" style="stroke:#ffffff;stroke-width:0.75;"/>
    </defs>
    <g clip-path="url(#pd69ff6ed7e)">
     <use style="fill:#008000;stroke:#ffffff;stroke-width:0.75;" x="69.218182" xlink:href="#ma88944b3d2" y="242.11636"/>
     <use style="fill:#008000;stroke:#ffffff;stroke-width:0.75;" x="83.052893" xlink:href="#ma88944b3d2" y="242.116308"/>
     <use style="fill:#008000;stroke:#ffffff;stroke-width:0.75;" x="96.887603" xlink:href="#ma88944b3d2" y="242.1162"/>
     <use style="fill:#008000;stroke:#ffffff;stroke-width:0.75;" x="110.722314" xlink:href="#ma88944b3d2" y="242.115992"/>
     <use style="fill:#008000;stroke:#ffffff;stroke-width:0.75;" x="124.557025" xlink:href="#ma88944b3d2" y="242.115592"/>
     <use style="fill:#008000;stroke:#ffffff;stroke-width:0.75;" x="138.391736" xlink:href="#ma88944b3d2" y="242.114848"/>
     <use style="fill:#008000;stroke:#ffffff;stroke-width:0.75;" x="152.226446" xlink:href="#ma88944b3d2" y="242.113334"/>
     <use style="fill:#008000;stroke:#ffffff;stroke-width:0.75;" x="166.061157" xlink:href="#ma88944b3d2" y="242.11035"/>
     <use style="fill:#008000;stroke:#ffffff;stroke-width:0.75;" x="179.895868" xlink:href="#ma88944b3d2" y="242.103471"/>
     <use style="fill:#008000;stroke:#ffffff;stroke-width:0.75;" x="193.730579" xlink:href="#ma88944b3d2" y="242.087818"/>
     <use style="fill:#008000;stroke:#ffffff;stroke-width:0.75;" x="207.565289" xlink:href="#ma88944b3d2" y="242.037114"/>
     <use style="fill:#008000;stroke:#ffffff;stroke-width:0.75;" x="221.4" xlink:href="#ma88944b3d2" y="242.001187"/>
     <use style="fill:#008000;stroke:#ffffff;stroke-width:0.75;" x="235.234711" xlink:href="#ma88944b3d2" y="241.913757"/>
     <use style="fill:#008000;stroke:#ffffff;stroke-width:0.75;" x="249.069421" xlink:href="#ma88944b3d2" y="241.724316"/>
     <use style="fill:#008000;stroke:#ffffff;stroke-width:0.75;" x="262.904132" xlink:href="#ma88944b3d2" y="241.325671"/>
     <use style="fill:#008000;stroke:#ffffff;stroke-width:0.75;" x="276.738843" xlink:href="#ma88944b3d2" y="240.415779"/>
     <use style="fill:#008000;stroke:#ffffff;stroke-width:0.75;" x="290.573554" xlink:href="#ma88944b3d2" y="238.852918"/>
     <use style="fill:#008000;stroke:#ffffff;stroke-width:0.75;" x="304.408264" xlink:href="#ma88944b3d2" y="235.766652"/>
     <use style="fill:#008000;stroke:#ffffff;stroke-width:0.75;" x="318.242975" xlink:href="#ma88944b3d2" y="229.321194"/>
     <use style="fill:#008000;stroke:#ffffff;stroke-width:0.75;" x="332.077686" xlink:href="#ma88944b3d2" y="214.368116"/>
     <use style="fill:#008000;stroke:#ffffff;stroke-width:0.75;" x="345.912397" xlink:href="#ma88944b3d2" y="188.654645"/>
     <use style="fill:#008000;stroke:#ffffff;stroke-width:0.75;" x="359.747107" xlink:href="#ma88944b3d2" y="139.880104"/>
     <use style="fill:#008000;stroke:#ffffff;stroke-width:0.75;" x="373.581818" xlink:href="#ma88944b3d2" y="45.286311"/>
    </g>
   </g>
   <g id="PathCollection_3">
    <defs>
     <path d="M 0 3 
C 0.795609 3 1.55874 2.683901 2.12132 2.12132 
C 2.683901 1.55874 3 0.795609 3 0 
C 3 -0.795609 2.683901 -1.55874 2.12132 -2.12132 
C 1.55874 -2.683901 0.795609 -3 0 -3 
C -0.795609 -3 -1.55874 -2.683901 -2.12132 -2.12132 
C -2.683901 -1.55874 -3 -0.795609 -3 0 
C -3 0.795609 -2.683901 1.55874 -2.12132 2.12132 
C -1.55874 2.683901 -0.795609 3 0 3 
z
" id="ma6b303a558" style="stroke:#ffffff;stroke-width:0.75;"/>
    </defs>
    <g clip-path="url(#pd69ff6ed7e)">
     <use style="fill:#ff0000;stroke:#ffffff;stroke-width:0.75;" x="69.218182" xlink:href="#ma6b303a558" y="242.116364"/>
     <use style="fill:#ff0000;stroke:#ffffff;stroke-width:0.75;" x="83.052893" xlink:href="#ma6b303a558" y="242.116315"/>
     <use style="fill:#ff0000;stroke:#ffffff;stroke-width:0.75;" x="96.887603" xlink:href="#ma6b303a558" y="242.116213"/>
     <use style="fill:#ff0000;stroke:#ffffff;stroke-width:0.75;" x="110.722314" xlink:href="#ma6b303a558" y="242.116004"/>
     <use style="fill:#ff0000;stroke:#ffffff;stroke-width:0.75;" x="124.557025" xlink:href="#ma6b303a558" y="242.115617"/>
     <use style="fill:#ff0000;stroke:#ffffff;stroke-width:0.75;" x="138.391736" xlink:href="#ma6b303a558" y="242.114864"/>
     <use style="fill:#ff0000;stroke:#ffffff;stroke-width:0.75;" x="152.226446" xlink:href="#ma6b303a558" y="242.113345"/>
     <use style="fill:#ff0000;stroke:#ffffff;stroke-width:0.75;" x="166.061157" xlink:href="#ma6b303a558" y="242.110573"/>
     <use style="fill:#ff0000;stroke:#ffffff;stroke-width:0.75;" x="179.895868" xlink:href="#ma6b303a558" y="242.104273"/>
     <use style="fill:#ff0000;stroke:#ffffff;stroke-width:0.75;" x="193.730579" xlink:href="#ma6b303a558" y="242.092776"/>
     <use style="fill:#ff0000;stroke:#ffffff;stroke-width:0.75;" x="207.565289" xlink:href="#ma6b303a558" y="242.069359"/>
     <use style="fill:#ff0000;stroke:#ffffff;stroke-width:0.75;" x="221.4" xlink:href="#ma6b303a558" y="242.021577"/>
     <use style="fill:#ff0000;stroke:#ffffff;stroke-width:0.75;" x="235.234711" xlink:href="#ma6b303a558" y="241.924763"/>
     <use style="fill:#ff0000;stroke:#ffffff;stroke-width:0.75;" x="249.069421" xlink:href="#ma6b303a558" y="241.738236"/>
     <use style="fill:#ff0000;stroke:#ffffff;stroke-width:0.75;" x="262.904132" xlink:href="#ma6b303a558" y="241.352746"/>
     <use style="fill:#ff0000;stroke:#ffffff;stroke-width:0.75;" x="276.738843" xlink:href="#ma6b303a558" y="240.589228"/>
     <use style="fill:#ff0000;stroke:#ffffff;stroke-width:0.75;" x="290.573554" xlink:href="#ma6b303a558" y="238.989835"/>
     <use style="fill:#ff0000;stroke:#ffffff;stroke-width:0.75;" x="304.408264" xlink:href="#ma6b303a558" y="235.983066"/>
     <use style="fill:#ff0000;stroke:#ffffff;stroke-width:0.75;" x="318.242975" xlink:href="#ma6b303a558" y="229.796624"/>
     <use style="fill:#ff0000;stroke:#ffffff;stroke-width:0.75;" x="332.077686" xlink:href="#ma6b303a558" y="217.661416"/>
     <use style="fill:#ff0000;stroke:#ffffff;stroke-width:0.75;" x="345.912397" xlink:href="#ma6b303a558" y="192.397003"/>
     <use style="fill:#ff0000;stroke:#ffffff;stroke-width:0.75;" x="359.747107" xlink:href="#ma6b303a558" y="144.094703"/>
     <use style="fill:#ff0000;stroke:#ffffff;stroke-width:0.75;" x="373.581818" xlink:href="#ma6b303a558" y="45.880803"/>
    </g>
   </g>
   <g id="matplotlib.axis_1">
    <g id="xtick_1">
     <g id="line2d_1">
      <defs>
       <path d="M 0 0 
L 0 3.5 
" id="m8dc5d149f7" style="stroke:#000000;stroke-width:0.8;"/>
      </defs>
      <g>
       <use style="stroke:#000000;stroke-width:0.8;" x="55.383471" xlink:href="#m8dc5d149f7" y="252"/>
      </g>
     </g>
     <g id="text_1">
      <!-- 0 -->
      <defs>
       <path d="M 31.78125 66.40625 
Q 24.171875 66.40625 20.328125 58.90625 
Q 16.5 51.421875 16.5 36.375 
Q 16.5 21.390625 20.328125 13.890625 
Q 24.171875 6.390625 31.78125 6.390625 
Q 39.453125 6.390625 43.28125 13.890625 
Q 47.125 21.390625 47.125 36.375 
Q 47.125 51.421875 43.28125 58.90625 
Q 39.453125 66.40625 31.78125 66.40625 
z
M 31.78125 74.21875 
Q 44.046875 74.21875 50.515625 64.515625 
Q 56.984375 54.828125 56.984375 36.375 
Q 56.984375 17.96875 50.515625 8.265625 
Q 44.046875 -1.421875 31.78125 -1.421875 
Q 19.53125 -1.421875 13.0625 8.265625 
Q 6.59375 17.96875 6.59375 36.375 
Q 6.59375 54.828125 13.0625 64.515625 
Q 19.53125 74.21875 31.78125 74.21875 
z
" id="DejaVuSans-48"/>
      </defs>
      <g transform="translate(52.202221 266.598437)scale(0.1 -0.1)">
       <use xlink:href="#DejaVuSans-48"/>
      </g>
     </g>
    </g>
    <g id="xtick_2">
     <g id="line2d_2">
      <g>
       <use style="stroke:#000000;stroke-width:0.8;" x="124.557025" xlink:href="#m8dc5d149f7" y="252"/>
      </g>
     </g>
     <g id="text_2">
      <!-- 5 -->
      <defs>
       <path d="M 10.796875 72.90625 
L 49.515625 72.90625 
L 49.515625 64.59375 
L 19.828125 64.59375 
L 19.828125 46.734375 
Q 21.96875 47.46875 24.109375 47.828125 
Q 26.265625 48.1875 28.421875 48.1875 
Q 40.625 48.1875 47.75 41.5 
Q 54.890625 34.8125 54.890625 23.390625 
Q 54.890625 11.625 47.5625 5.09375 
Q 40.234375 -1.421875 26.90625 -1.421875 
Q 22.3125 -1.421875 17.546875 -0.640625 
Q 12.796875 0.140625 7.71875 1.703125 
L 7.71875 11.625 
Q 12.109375 9.234375 16.796875 8.0625 
Q 21.484375 6.890625 26.703125 6.890625 
Q 35.15625 6.890625 40.078125 11.328125 
Q 45.015625 15.765625 45.015625 23.390625 
Q 45.015625 31 40.078125 35.4375 
Q 35.15625 39.890625 26.703125 39.890625 
Q 22.75 39.890625 18.8125 39.015625 
Q 14.890625 38.140625 10.796875 36.28125 
z
" id="DejaVuSans-53"/>
      </defs>
      <g transform="translate(121.375775 266.598437)scale(0.1 -0.1)">
       <use xlink:href="#DejaVuSans-53"/>
      </g>
     </g>
    </g>
    <g id="xtick_3">
     <g id="line2d_3">
      <g>
       <use style="stroke:#000000;stroke-width:0.8;" x="193.730579" xlink:href="#m8dc5d149f7" y="252"/>
      </g>
     </g>
     <g id="text_3">
      <!-- 10 -->
      <defs>
       <path d="M 12.40625 8.296875 
L 28.515625 8.296875 
L 28.515625 63.921875 
L 10.984375 60.40625 
L 10.984375 69.390625 
L 28.421875 72.90625 
L 38.28125 72.90625 
L 38.28125 8.296875 
L 54.390625 8.296875 
L 54.390625 0 
L 12.40625 0 
z
" id="DejaVuSans-49"/>
      </defs>
      <g transform="translate(187.368079 266.598437)scale(0.1 -0.1)">
       <use xlink:href="#DejaVuSans-49"/>
       <use x="63.623047" xlink:href="#DejaVuSans-48"/>
      </g>
     </g>
    </g>
    <g id="xtick_4">
     <g id="line2d_4">
      <g>
       <use style="stroke:#000000;stroke-width:0.8;" x="262.904132" xlink:href="#m8dc5d149f7" y="252"/>
      </g>
     </g>
     <g id="text_4">
      <!-- 15 -->
      <g transform="translate(256.541632 266.598437)scale(0.1 -0.1)">
       <use xlink:href="#DejaVuSans-49"/>
       <use x="63.623047" xlink:href="#DejaVuSans-53"/>
      </g>
     </g>
    </g>
    <g id="xtick_5">
     <g id="line2d_5">
      <g>
       <use style="stroke:#000000;stroke-width:0.8;" x="332.077686" xlink:href="#m8dc5d149f7" y="252"/>
      </g>
     </g>
     <g id="text_5">
      <!-- 20 -->
      <defs>
       <path d="M 19.1875 8.296875 
L 53.609375 8.296875 
L 53.609375 0 
L 7.328125 0 
L 7.328125 8.296875 
Q 12.9375 14.109375 22.625 23.890625 
Q 32.328125 33.6875 34.8125 36.53125 
Q 39.546875 41.84375 41.421875 45.53125 
Q 43.3125 49.21875 43.3125 52.78125 
Q 43.3125 58.59375 39.234375 62.25 
Q 35.15625 65.921875 28.609375 65.921875 
Q 23.96875 65.921875 18.8125 64.3125 
Q 13.671875 62.703125 7.8125 59.421875 
L 7.8125 69.390625 
Q 13.765625 71.78125 18.9375 73 
Q 24.125 74.21875 28.421875 74.21875 
Q 39.75 74.21875 46.484375 68.546875 
Q 53.21875 62.890625 53.21875 53.421875 
Q 53.21875 48.921875 51.53125 44.890625 
Q 49.859375 40.875 45.40625 35.40625 
Q 44.1875 33.984375 37.640625 27.21875 
Q 31.109375 20.453125 19.1875 8.296875 
z
" id="DejaVuSans-50"/>
      </defs>
      <g transform="translate(325.715186 266.598437)scale(0.1 -0.1)">
       <use xlink:href="#DejaVuSans-50"/>
       <use x="63.623047" xlink:href="#DejaVuSans-48"/>
      </g>
     </g>
    </g>
    <g id="text_6">
     <!-- #locales -->
     <defs>
      <path d="M 51.125 44 
L 36.921875 44 
L 32.8125 27.6875 
L 47.125 27.6875 
z
M 43.796875 71.78125 
L 38.71875 51.515625 
L 52.984375 51.515625 
L 58.109375 71.78125 
L 65.921875 71.78125 
L 60.890625 51.515625 
L 76.125 51.515625 
L 76.125 44 
L 58.984375 44 
L 54.984375 27.6875 
L 70.515625 27.6875 
L 70.515625 20.21875 
L 53.078125 20.21875 
L 48 0 
L 40.1875 0 
L 45.21875 20.21875 
L 30.90625 20.21875 
L 25.875 0 
L 18.015625 0 
L 23.09375 20.21875 
L 7.71875 20.21875 
L 7.71875 27.6875 
L 24.90625 27.6875 
L 29 44 
L 13.28125 44 
L 13.28125 51.515625 
L 30.90625 51.515625 
L 35.890625 71.78125 
z
" id="DejaVuSans-35"/>
      <path d="M 9.421875 75.984375 
L 18.40625 75.984375 
L 18.40625 0 
L 9.421875 0 
z
" id="DejaVuSans-108"/>
      <path d="M 30.609375 48.390625 
Q 23.390625 48.390625 19.1875 42.75 
Q 14.984375 37.109375 14.984375 27.296875 
Q 14.984375 17.484375 19.15625 11.84375 
Q 23.34375 6.203125 30.609375 6.203125 
Q 37.796875 6.203125 41.984375 11.859375 
Q 46.1875 17.53125 46.1875 27.296875 
Q 46.1875 37.015625 41.984375 42.703125 
Q 37.796875 48.390625 30.609375 48.390625 
z
M 30.609375 56 
Q 42.328125 56 49.015625 48.375 
Q 55.71875 40.765625 55.71875 27.296875 
Q 55.71875 13.875 49.015625 6.21875 
Q 42.328125 -1.421875 30.609375 -1.421875 
Q 18.84375 -1.421875 12.171875 6.21875 
Q 5.515625 13.875 5.515625 27.296875 
Q 5.515625 40.765625 12.171875 48.375 
Q 18.84375 56 30.609375 56 
z
" id="DejaVuSans-111"/>
      <path d="M 48.78125 52.59375 
L 48.78125 44.1875 
Q 44.96875 46.296875 41.140625 47.34375 
Q 37.3125 48.390625 33.40625 48.390625 
Q 24.65625 48.390625 19.8125 42.84375 
Q 14.984375 37.3125 14.984375 27.296875 
Q 14.984375 17.28125 19.8125 11.734375 
Q 24.65625 6.203125 33.40625 6.203125 
Q 37.3125 6.203125 41.140625 7.25 
Q 44.96875 8.296875 48.78125 10.40625 
L 48.78125 2.09375 
Q 45.015625 0.34375 40.984375 -0.53125 
Q 36.96875 -1.421875 32.421875 -1.421875 
Q 20.0625 -1.421875 12.78125 6.34375 
Q 5.515625 14.109375 5.515625 27.296875 
Q 5.515625 40.671875 12.859375 48.328125 
Q 20.21875 56 33.015625 56 
Q 37.15625 56 41.109375 55.140625 
Q 45.0625 54.296875 48.78125 52.59375 
z
" id="DejaVuSans-99"/>
      <path d="M 34.28125 27.484375 
Q 23.390625 27.484375 19.1875 25 
Q 14.984375 22.515625 14.984375 16.5 
Q 14.984375 11.71875 18.140625 8.90625 
Q 21.296875 6.109375 26.703125 6.109375 
Q 34.1875 6.109375 38.703125 11.40625 
Q 43.21875 16.703125 43.21875 25.484375 
L 43.21875 27.484375 
z
M 52.203125 31.203125 
L 52.203125 0 
L 43.21875 0 
L 43.21875 8.296875 
Q 40.140625 3.328125 35.546875 0.953125 
Q 30.953125 -1.421875 24.3125 -1.421875 
Q 15.921875 -1.421875 10.953125 3.296875 
Q 6 8.015625 6 15.921875 
Q 6 25.140625 12.171875 29.828125 
Q 18.359375 34.515625 30.609375 34.515625 
L 43.21875 34.515625 
L 43.21875 35.40625 
Q 43.21875 41.609375 39.140625 45 
Q 35.0625 48.390625 27.6875 48.390625 
Q 23 48.390625 18.546875 47.265625 
Q 14.109375 46.140625 10.015625 43.890625 
L 10.015625 52.203125 
Q 14.9375 54.109375 19.578125 55.046875 
Q 24.21875 56 28.609375 56 
Q 40.484375 56 46.34375 49.84375 
Q 52.203125 43.703125 52.203125 31.203125 
z
" id="DejaVuSans-97"/>
      <path d="M 56.203125 29.59375 
L 56.203125 25.203125 
L 14.890625 25.203125 
Q 15.484375 15.921875 20.484375 11.0625 
Q 25.484375 6.203125 34.421875 6.203125 
Q 39.59375 6.203125 44.453125 7.46875 
Q 49.3125 8.734375 54.109375 11.28125 
L 54.109375 2.78125 
Q 49.265625 0.734375 44.1875 -0.34375 
Q 39.109375 -1.421875 33.890625 -1.421875 
Q 20.796875 -1.421875 13.15625 6.1875 
Q 5.515625 13.8125 5.515625 26.8125 
Q 5.515625 40.234375 12.765625 48.109375 
Q 20.015625 56 32.328125 56 
Q 43.359375 56 49.78125 48.890625 
Q 56.203125 41.796875 56.203125 29.59375 
z
M 47.21875 32.234375 
Q 47.125 39.59375 43.09375 43.984375 
Q 39.0625 48.390625 32.421875 48.390625 
Q 24.90625 48.390625 20.390625 44.140625 
Q 15.875 39.890625 15.1875 32.171875 
z
" id="DejaVuSans-101"/>
      <path d="M 44.28125 53.078125 
L 44.28125 44.578125 
Q 40.484375 46.53125 36.375 47.5 
Q 32.28125 48.484375 27.875 48.484375 
Q 21.1875 48.484375 17.84375 46.4375 
Q 14.5 44.390625 14.5 40.28125 
Q 14.5 37.15625 16.890625 35.375 
Q 19.28125 33.59375 26.515625 31.984375 
L 29.59375 31.296875 
Q 39.15625 29.25 43.1875 25.515625 
Q 47.21875 21.78125 47.21875 15.09375 
Q 47.21875 7.46875 41.1875 3.015625 
Q 35.15625 -1.421875 24.609375 -1.421875 
Q 20.21875 -1.421875 15.453125 -0.5625 
Q 10.6875 0.296875 5.421875 2 
L 5.421875 11.28125 
Q 10.40625 8.6875 15.234375 7.390625 
Q 20.0625 6.109375 24.8125 6.109375 
Q 31.15625 6.109375 34.5625 8.28125 
Q 37.984375 10.453125 37.984375 14.40625 
Q 37.984375 18.0625 35.515625 20.015625 
Q 33.0625 21.96875 24.703125 23.78125 
L 21.578125 24.515625 
Q 13.234375 26.265625 9.515625 29.90625 
Q 5.8125 33.546875 5.8125 39.890625 
Q 5.8125 47.609375 11.28125 51.796875 
Q 16.75 56 26.8125 56 
Q 31.78125 56 36.171875 55.265625 
Q 40.578125 54.546875 44.28125 53.078125 
z
" id="DejaVuSans-115"/>
     </defs>
     <g transform="translate(199.878125 280.276563)scale(0.1 -0.1)">
      <use xlink:href="#DejaVuSans-35"/>
      <use x="83.789062" xlink:href="#DejaVuSans-108"/>
      <use x="111.572266" xlink:href="#DejaVuSans-111"/>
      <use x="172.753906" xlink:href="#DejaVuSans-99"/>
      <use x="227.734375" xlink:href="#DejaVuSans-97"/>
      <use x="289.013672" xlink:href="#DejaVuSans-108"/>
      <use x="316.796875" xlink:href="#DejaVuSans-101"/>
      <use x="378.320312" xlink:href="#DejaVuSans-115"/>
     </g>
    </g>
   </g>
   <g id="matplotlib.axis_2">
    <g id="ytick_1">
     <g id="line2d_6">
      <defs>
       <path d="M 0 0 
L -3.5 0 
" id="m815c8277c8" style="stroke:#000000;stroke-width:0.8;"/>
      </defs>
      <g>
       <use style="stroke:#000000;stroke-width:0.8;" x="54" xlink:href="#m815c8277c8" y="242.116436"/>
      </g>
     </g>
     <g id="text_7">
      <!-- 0 -->
      <g transform="translate(40.6375 245.915655)scale(0.1 -0.1)">
       <use xlink:href="#DejaVuSans-48"/>
      </g>
     </g>
    </g>
    <g id="ytick_2">
     <g id="line2d_7">
      <g>
       <use style="stroke:#000000;stroke-width:0.8;" x="54" xlink:href="#m815c8277c8" y="201.229753"/>
      </g>
     </g>
     <g id="text_8">
      <!-- 1000 -->
      <g transform="translate(21.55 205.028972)scale(0.1 -0.1)">
       <use xlink:href="#DejaVuSans-49"/>
       <use x="63.623047" xlink:href="#DejaVuSans-48"/>
       <use x="127.246094" xlink:href="#DejaVuSans-48"/>
       <use x="190.869141" xlink:href="#DejaVuSans-48"/>
      </g>
     </g>
    </g>
    <g id="ytick_3">
     <g id="line2d_8">
      <g>
       <use style="stroke:#000000;stroke-width:0.8;" x="54" xlink:href="#m815c8277c8" y="160.343071"/>
      </g>
     </g>
     <g id="text_9">
      <!-- 2000 -->
      <g transform="translate(21.55 164.14229)scale(0.1 -0.1)">
       <use xlink:href="#DejaVuSans-50"/>
       <use x="63.623047" xlink:href="#DejaVuSans-48"/>
       <use x="127.246094" xlink:href="#DejaVuSans-48"/>
       <use x="190.869141" xlink:href="#DejaVuSans-48"/>
      </g>
     </g>
    </g>
    <g id="ytick_4">
     <g id="line2d_9">
      <g>
       <use style="stroke:#000000;stroke-width:0.8;" x="54" xlink:href="#m815c8277c8" y="119.456388"/>
      </g>
     </g>
     <g id="text_10">
      <!-- 3000 -->
      <defs>
       <path d="M 40.578125 39.3125 
Q 47.65625 37.796875 51.625 33 
Q 55.609375 28.21875 55.609375 21.1875 
Q 55.609375 10.40625 48.1875 4.484375 
Q 40.765625 -1.421875 27.09375 -1.421875 
Q 22.515625 -1.421875 17.65625 -0.515625 
Q 12.796875 0.390625 7.625 2.203125 
L 7.625 11.71875 
Q 11.71875 9.328125 16.59375 8.109375 
Q 21.484375 6.890625 26.8125 6.890625 
Q 36.078125 6.890625 40.9375 10.546875 
Q 45.796875 14.203125 45.796875 21.1875 
Q 45.796875 27.640625 41.28125 31.265625 
Q 36.765625 34.90625 28.71875 34.90625 
L 20.21875 34.90625 
L 20.21875 43.015625 
L 29.109375 43.015625 
Q 36.375 43.015625 40.234375 45.921875 
Q 44.09375 48.828125 44.09375 54.296875 
Q 44.09375 59.90625 40.109375 62.90625 
Q 36.140625 65.921875 28.71875 65.921875 
Q 24.65625 65.921875 20.015625 65.03125 
Q 15.375 64.15625 9.8125 62.3125 
L 9.8125 71.09375 
Q 15.4375 72.65625 20.34375 73.4375 
Q 25.25 74.21875 29.59375 74.21875 
Q 40.828125 74.21875 47.359375 69.109375 
Q 53.90625 64.015625 53.90625 55.328125 
Q 53.90625 49.265625 50.4375 45.09375 
Q 46.96875 40.921875 40.578125 39.3125 
z
" id="DejaVuSans-51"/>
      </defs>
      <g transform="translate(21.55 123.255607)scale(0.1 -0.1)">
       <use xlink:href="#DejaVuSans-51"/>
       <use x="63.623047" xlink:href="#DejaVuSans-48"/>
       <use x="127.246094" xlink:href="#DejaVuSans-48"/>
       <use x="190.869141" xlink:href="#DejaVuSans-48"/>
      </g>
     </g>
    </g>
    <g id="ytick_5">
     <g id="line2d_10">
      <g>
       <use style="stroke:#000000;stroke-width:0.8;" x="54" xlink:href="#m815c8277c8" y="78.569706"/>
      </g>
     </g>
     <g id="text_11">
      <!-- 4000 -->
      <defs>
       <path d="M 37.796875 64.3125 
L 12.890625 25.390625 
L 37.796875 25.390625 
z
M 35.203125 72.90625 
L 47.609375 72.90625 
L 47.609375 25.390625 
L 58.015625 25.390625 
L 58.015625 17.1875 
L 47.609375 17.1875 
L 47.609375 0 
L 37.796875 0 
L 37.796875 17.1875 
L 4.890625 17.1875 
L 4.890625 26.703125 
z
" id="DejaVuSans-52"/>
      </defs>
      <g transform="translate(21.55 82.368925)scale(0.1 -0.1)">
       <use xlink:href="#DejaVuSans-52"/>
       <use x="63.623047" xlink:href="#DejaVuSans-48"/>
       <use x="127.246094" xlink:href="#DejaVuSans-48"/>
       <use x="190.869141" xlink:href="#DejaVuSans-48"/>
      </g>
     </g>
    </g>
    <g id="ytick_6">
     <g id="line2d_11">
      <g>
       <use style="stroke:#000000;stroke-width:0.8;" x="54" xlink:href="#m815c8277c8" y="37.683023"/>
      </g>
     </g>
     <g id="text_12">
      <!-- 5000 -->
      <g transform="translate(21.55 41.482242)scale(0.1 -0.1)">
       <use xlink:href="#DejaVuSans-53"/>
       <use x="63.623047" xlink:href="#DejaVuSans-48"/>
       <use x="127.246094" xlink:href="#DejaVuSans-48"/>
       <use x="190.869141" xlink:href="#DejaVuSans-48"/>
      </g>
     </g>
    </g>
    <g id="text_13">
     <!-- tiempo (ms) -->
     <defs>
      <path d="M 18.3125 70.21875 
L 18.3125 54.6875 
L 36.8125 54.6875 
L 36.8125 47.703125 
L 18.3125 47.703125 
L 18.3125 18.015625 
Q 18.3125 11.328125 20.140625 9.421875 
Q 21.96875 7.515625 27.59375 7.515625 
L 36.8125 7.515625 
L 36.8125 0 
L 27.59375 0 
Q 17.1875 0 13.234375 3.875 
Q 9.28125 7.765625 9.28125 18.015625 
L 9.28125 47.703125 
L 2.6875 47.703125 
L 2.6875 54.6875 
L 9.28125 54.6875 
L 9.28125 70.21875 
z
" id="DejaVuSans-116"/>
      <path d="M 9.421875 54.6875 
L 18.40625 54.6875 
L 18.40625 0 
L 9.421875 0 
z
M 9.421875 75.984375 
L 18.40625 75.984375 
L 18.40625 64.59375 
L 9.421875 64.59375 
z
" id="DejaVuSans-105"/>
      <path d="M 52 44.1875 
Q 55.375 50.25 60.0625 53.125 
Q 64.75 56 71.09375 56 
Q 79.640625 56 84.28125 50.015625 
Q 88.921875 44.046875 88.921875 33.015625 
L 88.921875 0 
L 79.890625 0 
L 79.890625 32.71875 
Q 79.890625 40.578125 77.09375 44.375 
Q 74.3125 48.1875 68.609375 48.1875 
Q 61.625 48.1875 57.5625 43.546875 
Q 53.515625 38.921875 53.515625 30.90625 
L 53.515625 0 
L 44.484375 0 
L 44.484375 32.71875 
Q 44.484375 40.625 41.703125 44.40625 
Q 38.921875 48.1875 33.109375 48.1875 
Q 26.21875 48.1875 22.15625 43.53125 
Q 18.109375 38.875 18.109375 30.90625 
L 18.109375 0 
L 9.078125 0 
L 9.078125 54.6875 
L 18.109375 54.6875 
L 18.109375 46.1875 
Q 21.1875 51.21875 25.484375 53.609375 
Q 29.78125 56 35.6875 56 
Q 41.65625 56 45.828125 52.96875 
Q 50 49.953125 52 44.1875 
z
" id="DejaVuSans-109"/>
      <path d="M 18.109375 8.203125 
L 18.109375 -20.796875 
L 9.078125 -20.796875 
L 9.078125 54.6875 
L 18.109375 54.6875 
L 18.109375 46.390625 
Q 20.953125 51.265625 25.265625 53.625 
Q 29.59375 56 35.59375 56 
Q 45.5625 56 51.78125 48.09375 
Q 58.015625 40.1875 58.015625 27.296875 
Q 58.015625 14.40625 51.78125 6.484375 
Q 45.5625 -1.421875 35.59375 -1.421875 
Q 29.59375 -1.421875 25.265625 0.953125 
Q 20.953125 3.328125 18.109375 8.203125 
z
M 48.6875 27.296875 
Q 48.6875 37.203125 44.609375 42.84375 
Q 40.53125 48.484375 33.40625 48.484375 
Q 26.265625 48.484375 22.1875 42.84375 
Q 18.109375 37.203125 18.109375 27.296875 
Q 18.109375 17.390625 22.1875 11.75 
Q 26.265625 6.109375 33.40625 6.109375 
Q 40.53125 6.109375 44.609375 11.75 
Q 48.6875 17.390625 48.6875 27.296875 
z
" id="DejaVuSans-112"/>
      <path id="DejaVuSans-32"/>
      <path d="M 31 75.875 
Q 24.46875 64.65625 21.28125 53.65625 
Q 18.109375 42.671875 18.109375 31.390625 
Q 18.109375 20.125 21.3125 9.0625 
Q 24.515625 -2 31 -13.1875 
L 23.1875 -13.1875 
Q 15.875 -1.703125 12.234375 9.375 
Q 8.59375 20.453125 8.59375 31.390625 
Q 8.59375 42.28125 12.203125 53.3125 
Q 15.828125 64.359375 23.1875 75.875 
z
" id="DejaVuSans-40"/>
      <path d="M 8.015625 75.875 
L 15.828125 75.875 
Q 23.140625 64.359375 26.78125 53.3125 
Q 30.421875 42.28125 30.421875 31.390625 
Q 30.421875 20.453125 26.78125 9.375 
Q 23.140625 -1.703125 15.828125 -13.1875 
L 8.015625 -13.1875 
Q 14.5 -2 17.703125 9.0625 
Q 20.90625 20.125 20.90625 31.390625 
Q 20.90625 42.671875 17.703125 53.65625 
Q 14.5 64.65625 8.015625 75.875 
z
" id="DejaVuSans-41"/>
     </defs>
     <g transform="translate(15.470312 173.775312)rotate(-90)scale(0.1 -0.1)">
      <use xlink:href="#DejaVuSans-116"/>
      <use x="39.208984" xlink:href="#DejaVuSans-105"/>
      <use x="66.992188" xlink:href="#DejaVuSans-101"/>
      <use x="128.515625" xlink:href="#DejaVuSans-109"/>
      <use x="225.927734" xlink:href="#DejaVuSans-112"/>
      <use x="289.404297" xlink:href="#DejaVuSans-111"/>
      <use x="350.585938" xlink:href="#DejaVuSans-32"/>
      <use x="382.373047" xlink:href="#DejaVuSans-40"/>
      <use x="421.386719" xlink:href="#DejaVuSans-109"/>
      <use x="518.798828" xlink:href="#DejaVuSans-115"/>
      <use x="570.898438" xlink:href="#DejaVuSans-41"/>
     </g>
    </g>
   </g>
   <g id="patch_3">
    <path d="M 54 252 
L 54 34.56 
" style="fill:none;stroke:#000000;stroke-linecap:square;stroke-linejoin:miter;stroke-width:0.8;"/>
   </g>
   <g id="patch_4">
    <path d="M 388.8 252 
L 388.8 34.56 
" style="fill:none;stroke:#000000;stroke-linecap:square;stroke-linejoin:miter;stroke-width:0.8;"/>
   </g>
   <g id="patch_5">
    <path d="M 54 252 
L 388.8 252 
" style="fill:none;stroke:#000000;stroke-linecap:square;stroke-linejoin:miter;stroke-width:0.8;"/>
   </g>
   <g id="patch_6">
    <path d="M 54 34.56 
L 388.8 34.56 
" style="fill:none;stroke:#000000;stroke-linecap:square;stroke-linejoin:miter;stroke-width:0.8;"/>
   </g>
   <g id="text_14">
    <!-- rendimento de FB con las instancias de densidades altas y bajas de optimalidad -->
    <defs>
     <path d="M 41.109375 46.296875 
Q 39.59375 47.171875 37.8125 47.578125 
Q 36.03125 48 33.890625 48 
Q 26.265625 48 22.1875 43.046875 
Q 18.109375 38.09375 18.109375 28.8125 
L 18.109375 0 
L 9.078125 0 
L 9.078125 54.6875 
L 18.109375 54.6875 
L 18.109375 46.1875 
Q 20.953125 51.171875 25.484375 53.578125 
Q 30.03125 56 36.53125 56 
Q 37.453125 56 38.578125 55.875 
Q 39.703125 55.765625 41.0625 55.515625 
z
" id="DejaVuSans-114"/>
     <path d="M 54.890625 33.015625 
L 54.890625 0 
L 45.90625 0 
L 45.90625 32.71875 
Q 45.90625 40.484375 42.875 44.328125 
Q 39.84375 48.1875 33.796875 48.1875 
Q 26.515625 48.1875 22.3125 43.546875 
Q 18.109375 38.921875 18.109375 30.90625 
L 18.109375 0 
L 9.078125 0 
L 9.078125 54.6875 
L 18.109375 54.6875 
L 18.109375 46.1875 
Q 21.34375 51.125 25.703125 53.5625 
Q 30.078125 56 35.796875 56 
Q 45.21875 56 50.046875 50.171875 
Q 54.890625 44.34375 54.890625 33.015625 
z
" id="DejaVuSans-110"/>
     <path d="M 45.40625 46.390625 
L 45.40625 75.984375 
L 54.390625 75.984375 
L 54.390625 0 
L 45.40625 0 
L 45.40625 8.203125 
Q 42.578125 3.328125 38.25 0.953125 
Q 33.9375 -1.421875 27.875 -1.421875 
Q 17.96875 -1.421875 11.734375 6.484375 
Q 5.515625 14.40625 5.515625 27.296875 
Q 5.515625 40.1875 11.734375 48.09375 
Q 17.96875 56 27.875 56 
Q 33.9375 56 38.25 53.625 
Q 42.578125 51.265625 45.40625 46.390625 
z
M 14.796875 27.296875 
Q 14.796875 17.390625 18.875 11.75 
Q 22.953125 6.109375 30.078125 6.109375 
Q 37.203125 6.109375 41.296875 11.75 
Q 45.40625 17.390625 45.40625 27.296875 
Q 45.40625 37.203125 41.296875 42.84375 
Q 37.203125 48.484375 30.078125 48.484375 
Q 22.953125 48.484375 18.875 42.84375 
Q 14.796875 37.203125 14.796875 27.296875 
z
" id="DejaVuSans-100"/>
     <path d="M 9.8125 72.90625 
L 51.703125 72.90625 
L 51.703125 64.59375 
L 19.671875 64.59375 
L 19.671875 43.109375 
L 48.578125 43.109375 
L 48.578125 34.8125 
L 19.671875 34.8125 
L 19.671875 0 
L 9.8125 0 
z
" id="DejaVuSans-70"/>
     <path d="M 19.671875 34.8125 
L 19.671875 8.109375 
L 35.5 8.109375 
Q 43.453125 8.109375 47.28125 11.40625 
Q 51.125 14.703125 51.125 21.484375 
Q 51.125 28.328125 47.28125 31.5625 
Q 43.453125 34.8125 35.5 34.8125 
z
M 19.671875 64.796875 
L 19.671875 42.828125 
L 34.28125 42.828125 
Q 41.5 42.828125 45.03125 45.53125 
Q 48.578125 48.25 48.578125 53.8125 
Q 48.578125 59.328125 45.03125 62.0625 
Q 41.5 64.796875 34.28125 64.796875 
z
M 9.8125 72.90625 
L 35.015625 72.90625 
Q 46.296875 72.90625 52.390625 68.21875 
Q 58.5 63.53125 58.5 54.890625 
Q 58.5 48.1875 55.375 44.234375 
Q 52.25 40.28125 46.1875 39.3125 
Q 53.46875 37.75 57.5 32.78125 
Q 61.53125 27.828125 61.53125 20.40625 
Q 61.53125 10.640625 54.890625 5.3125 
Q 48.25 0 35.984375 0 
L 9.8125 0 
z
" id="DejaVuSans-66"/>
     <path d="M 32.171875 -5.078125 
Q 28.375 -14.84375 24.75 -17.8125 
Q 21.140625 -20.796875 15.09375 -20.796875 
L 7.90625 -20.796875 
L 7.90625 -13.28125 
L 13.1875 -13.28125 
Q 16.890625 -13.28125 18.9375 -11.515625 
Q 21 -9.765625 23.484375 -3.21875 
L 25.09375 0.875 
L 2.984375 54.6875 
L 12.5 54.6875 
L 29.59375 11.921875 
L 46.6875 54.6875 
L 56.203125 54.6875 
z
" id="DejaVuSans-121"/>
     <path d="M 48.6875 27.296875 
Q 48.6875 37.203125 44.609375 42.84375 
Q 40.53125 48.484375 33.40625 48.484375 
Q 26.265625 48.484375 22.1875 42.84375 
Q 18.109375 37.203125 18.109375 27.296875 
Q 18.109375 17.390625 22.1875 11.75 
Q 26.265625 6.109375 33.40625 6.109375 
Q 40.53125 6.109375 44.609375 11.75 
Q 48.6875 17.390625 48.6875 27.296875 
z
M 18.109375 46.390625 
Q 20.953125 51.265625 25.265625 53.625 
Q 29.59375 56 35.59375 56 
Q 45.5625 56 51.78125 48.09375 
Q 58.015625 40.1875 58.015625 27.296875 
Q 58.015625 14.40625 51.78125 6.484375 
Q 45.5625 -1.421875 35.59375 -1.421875 
Q 29.59375 -1.421875 25.265625 0.953125 
Q 20.953125 3.328125 18.109375 8.203125 
L 18.109375 0 
L 9.078125 0 
L 9.078125 75.984375 
L 18.109375 75.984375 
z
" id="DejaVuSans-98"/>
     <path d="M 9.421875 54.6875 
L 18.40625 54.6875 
L 18.40625 -0.984375 
Q 18.40625 -11.421875 14.421875 -16.109375 
Q 10.453125 -20.796875 1.609375 -20.796875 
L -1.8125 -20.796875 
L -1.8125 -13.1875 
L 0.59375 -13.1875 
Q 5.71875 -13.1875 7.5625 -10.8125 
Q 9.421875 -8.453125 9.421875 -0.984375 
z
M 9.421875 75.984375 
L 18.40625 75.984375 
L 18.40625 64.59375 
L 9.421875 64.59375 
z
" id="DejaVuSans-106"/>
    </defs>
    <g transform="translate(-19.516875 28.56)scale(0.12 -0.12)">
     <use xlink:href="#DejaVuSans-114"/>
     <use x="38.863281" xlink:href="#DejaVuSans-101"/>
     <use x="100.386719" xlink:href="#DejaVuSans-110"/>
     <use x="163.765625" xlink:href="#DejaVuSans-100"/>
     <use x="227.242188" xlink:href="#DejaVuSans-105"/>
     <use x="255.025391" xlink:href="#DejaVuSans-109"/>
     <use x="352.4375" xlink:href="#DejaVuSans-101"/>
     <use x="413.960938" xlink:href="#DejaVuSans-110"/>
     <use x="477.339844" xlink:href="#DejaVuSans-116"/>
     <use x="516.548828" xlink:href="#DejaVuSans-111"/>
     <use x="577.730469" xlink:href="#DejaVuSans-32"/>
     <use x="609.517578" xlink:href="#DejaVuSans-100"/>
     <use x="672.994141" xlink:href="#DejaVuSans-101"/>
     <use x="734.517578" xlink:href="#DejaVuSans-32"/>
     <use x="766.304688" xlink:href="#DejaVuSans-70"/>
     <use x="823.824219" xlink:href="#DejaVuSans-66"/>
     <use x="892.427734" xlink:href="#DejaVuSans-32"/>
     <use x="924.214844" xlink:href="#DejaVuSans-99"/>
     <use x="979.195312" xlink:href="#DejaVuSans-111"/>
     <use x="1040.376953" xlink:href="#DejaVuSans-110"/>
     <use x="1103.755859" xlink:href="#DejaVuSans-32"/>
     <use x="1135.542969" xlink:href="#DejaVuSans-108"/>
     <use x="1163.326172" xlink:href="#DejaVuSans-97"/>
     <use x="1224.605469" xlink:href="#DejaVuSans-115"/>
     <use x="1276.705078" xlink:href="#DejaVuSans-32"/>
     <use x="1308.492188" xlink:href="#DejaVuSans-105"/>
     <use x="1336.275391" xlink:href="#DejaVuSans-110"/>
     <use x="1399.654297" xlink:href="#DejaVuSans-115"/>
     <use x="1451.753906" xlink:href="#DejaVuSans-116"/>
     <use x="1490.962891" xlink:href="#DejaVuSans-97"/>
     <use x="1552.242188" xlink:href="#DejaVuSans-110"/>
     <use x="1615.621094" xlink:href="#DejaVuSans-99"/>
     <use x="1670.601562" xlink:href="#DejaVuSans-105"/>
     <use x="1698.384766" xlink:href="#DejaVuSans-97"/>
     <use x="1759.664062" xlink:href="#DejaVuSans-115"/>
     <use x="1811.763672" xlink:href="#DejaVuSans-32"/>
     <use x="1843.550781" xlink:href="#DejaVuSans-100"/>
     <use x="1907.027344" xlink:href="#DejaVuSans-101"/>
     <use x="1968.550781" xlink:href="#DejaVuSans-32"/>
     <use x="2000.337891" xlink:href="#DejaVuSans-100"/>
     <use x="2063.814453" xlink:href="#DejaVuSans-101"/>
     <use x="2125.337891" xlink:href="#DejaVuSans-110"/>
     <use x="2188.716797" xlink:href="#DejaVuSans-115"/>
     <use x="2240.816406" xlink:href="#DejaVuSans-105"/>
     <use x="2268.599609" xlink:href="#DejaVuSans-100"/>
     <use x="2332.076172" xlink:href="#DejaVuSans-97"/>
     <use x="2393.355469" xlink:href="#DejaVuSans-100"/>
     <use x="2456.832031" xlink:href="#DejaVuSans-101"/>
     <use x="2518.355469" xlink:href="#DejaVuSans-115"/>
     <use x="2570.455078" xlink:href="#DejaVuSans-32"/>
     <use x="2602.242188" xlink:href="#DejaVuSans-97"/>
     <use x="2663.521484" xlink:href="#DejaVuSans-108"/>
     <use x="2691.304688" xlink:href="#DejaVuSans-116"/>
     <use x="2730.513672" xlink:href="#DejaVuSans-97"/>
     <use x="2791.792969" xlink:href="#DejaVuSans-115"/>
     <use x="2843.892578" xlink:href="#DejaVuSans-32"/>
     <use x="2875.679688" xlink:href="#DejaVuSans-121"/>
     <use x="2934.859375" xlink:href="#DejaVuSans-32"/>
     <use x="2966.646484" xlink:href="#DejaVuSans-98"/>
     <use x="3030.123047" xlink:href="#DejaVuSans-97"/>
     <use x="3091.402344" xlink:href="#DejaVuSans-106"/>
     <use x="3119.185547" xlink:href="#DejaVuSans-97"/>
     <use x="3180.464844" xlink:href="#DejaVuSans-115"/>
     <use x="3232.564453" xlink:href="#DejaVuSans-32"/>
     <use x="3264.351562" xlink:href="#DejaVuSans-100"/>
     <use x="3327.828125" xlink:href="#DejaVuSans-101"/>
     <use x="3389.351562" xlink:href="#DejaVuSans-32"/>
     <use x="3421.138672" xlink:href="#DejaVuSans-111"/>
     <use x="3482.320312" xlink:href="#DejaVuSans-112"/>
     <use x="3545.796875" xlink:href="#DejaVuSans-116"/>
     <use x="3585.005859" xlink:href="#DejaVuSans-105"/>
     <use x="3612.789062" xlink:href="#DejaVuSans-109"/>
     <use x="3710.201172" xlink:href="#DejaVuSans-97"/>
     <use x="3771.480469" xlink:href="#DejaVuSans-108"/>
     <use x="3799.263672" xlink:href="#DejaVuSans-105"/>
     <use x="3827.046875" xlink:href="#DejaVuSans-100"/>
     <use x="3890.523438" xlink:href="#DejaVuSans-97"/>
     <use x="3951.802734" xlink:href="#DejaVuSans-100"/>
    </g>
   </g>
   <g id="legend_1">
    <g id="patch_7">
     <path d="M 61 86.594375 
L 172.978125 86.594375 
Q 174.978125 86.594375 174.978125 84.594375 
L 174.978125 41.56 
Q 174.978125 39.56 172.978125 39.56 
L 61 39.56 
Q 59 39.56 59 41.56 
L 59 84.594375 
Q 59 86.594375 61 86.594375 
z
" style="fill:#ffffff;opacity:0.8;stroke:#cccccc;stroke-linejoin:miter;"/>
    </g>
    <g id="PathCollection_4">
     <g>
      <use style="fill:#0000ff;stroke:#ffffff;stroke-width:0.75;" x="73" xlink:href="#ma506ea2039" y="48.533438"/>
     </g>
    </g>
    <g id="text_15">
     <!-- densidad alta -->
     <g transform="translate(91 51.158438)scale(0.1 -0.1)">
      <use xlink:href="#DejaVuSans-100"/>
      <use x="63.476562" xlink:href="#DejaVuSans-101"/>
      <use x="125" xlink:href="#DejaVuSans-110"/>
      <use x="188.378906" xlink:href="#DejaVuSans-115"/>
      <use x="240.478516" xlink:href="#DejaVuSans-105"/>
      <use x="268.261719" xlink:href="#DejaVuSans-100"/>
      <use x="331.738281" xlink:href="#DejaVuSans-97"/>
      <use x="393.017578" xlink:href="#DejaVuSans-100"/>
      <use x="456.494141" xlink:href="#DejaVuSans-32"/>
      <use x="488.28125" xlink:href="#DejaVuSans-97"/>
      <use x="549.560547" xlink:href="#DejaVuSans-108"/>
      <use x="577.34375" xlink:href="#DejaVuSans-116"/>
      <use x="616.552734" xlink:href="#DejaVuSans-97"/>
     </g>
    </g>
    <g id="PathCollection_5">
     <g>
      <use style="fill:#008000;stroke:#ffffff;stroke-width:0.75;" x="73" xlink:href="#ma88944b3d2" y="63.211563"/>
     </g>
    </g>
    <g id="text_16">
     <!-- densidad media -->
     <g transform="translate(91 65.836563)scale(0.1 -0.1)">
      <use xlink:href="#DejaVuSans-100"/>
      <use x="63.476562" xlink:href="#DejaVuSans-101"/>
      <use x="125" xlink:href="#DejaVuSans-110"/>
      <use x="188.378906" xlink:href="#DejaVuSans-115"/>
      <use x="240.478516" xlink:href="#DejaVuSans-105"/>
      <use x="268.261719" xlink:href="#DejaVuSans-100"/>
      <use x="331.738281" xlink:href="#DejaVuSans-97"/>
      <use x="393.017578" xlink:href="#DejaVuSans-100"/>
      <use x="456.494141" xlink:href="#DejaVuSans-32"/>
      <use x="488.28125" xlink:href="#DejaVuSans-109"/>
      <use x="585.693359" xlink:href="#DejaVuSans-101"/>
      <use x="647.216797" xlink:href="#DejaVuSans-100"/>
      <use x="710.693359" xlink:href="#DejaVuSans-105"/>
      <use x="738.476562" xlink:href="#DejaVuSans-97"/>
     </g>
    </g>
    <g id="PathCollection_6">
     <g>
      <use style="fill:#ff0000;stroke:#ffffff;stroke-width:0.75;" x="73" xlink:href="#ma6b303a558" y="77.889688"/>
     </g>
    </g>
    <g id="text_17">
     <!-- densidad baja -->
     <g transform="translate(91 80.514688)scale(0.1 -0.1)">
      <use xlink:href="#DejaVuSans-100"/>
      <use x="63.476562" xlink:href="#DejaVuSans-101"/>
      <use x="125" xlink:href="#DejaVuSans-110"/>
      <use x="188.378906" xlink:href="#DejaVuSans-115"/>
      <use x="240.478516" xlink:href="#DejaVuSans-105"/>
      <use x="268.261719" xlink:href="#DejaVuSans-100"/>
      <use x="331.738281" xlink:href="#DejaVuSans-97"/>
      <use x="393.017578" xlink:href="#DejaVuSans-100"/>
      <use x="456.494141" xlink:href="#DejaVuSans-32"/>
      <use x="488.28125" xlink:href="#DejaVuSans-98"/>
      <use x="551.757812" xlink:href="#DejaVuSans-97"/>
      <use x="613.037109" xlink:href="#DejaVuSans-106"/>
      <use x="640.820312" xlink:href="#DejaVuSans-97"/>
     </g>
    </g>
   </g>
  </g>
 </g>
 <defs>
  <clipPath id="pd69ff6ed7e">
   <rect height="217.44" width="334.8" x="54" y="34.56"/>
  </clipPath>
 </defs>
</svg>
